G04 #@! TF.GenerationSoftware,KiCad,Pcbnew,7.0.7*
G04 #@! TF.CreationDate,2023-09-08T10:26:21-07:00*
G04 #@! TF.ProjectId,TailLights,5461696c-4c69-4676-9874-732e6b696361,rev?*
G04 #@! TF.SameCoordinates,Original*
G04 #@! TF.FileFunction,Legend,Top*
G04 #@! TF.FilePolarity,Positive*
%FSLAX46Y46*%
G04 Gerber Fmt 4.6, Leading zero omitted, Abs format (unit mm)*
G04 Created by KiCad (PCBNEW 7.0.7) date 2023-09-08 10:26:21*
%MOMM*%
%LPD*%
G01*
G04 APERTURE LIST*
%ADD10C,0.150000*%
%ADD11C,0.125000*%
%ADD12C,0.120000*%
%ADD13C,1.600000*%
%ADD14O,1.600000X1.600000*%
%ADD15R,1.700000X1.700000*%
%ADD16O,1.700000X1.700000*%
%ADD17C,2.200000*%
%ADD18R,2.000000X2.000000*%
%ADD19C,2.000000*%
%ADD20R,1.600000X1.600000*%
%ADD21R,2.000000X1.905000*%
%ADD22O,2.000000X1.905000*%
%ADD23R,2.200000X2.200000*%
%ADD24O,2.200000X2.200000*%
G04 APERTURE END LIST*
D10*
X58797819Y-39576211D02*
X58797819Y-40147639D01*
X58797819Y-39861925D02*
X57797819Y-39861925D01*
X57797819Y-39861925D02*
X57940676Y-39957163D01*
X57940676Y-39957163D02*
X58035914Y-40052401D01*
X58035914Y-40052401D02*
X58083533Y-40147639D01*
X57893057Y-39195258D02*
X57845438Y-39147639D01*
X57845438Y-39147639D02*
X57797819Y-39052401D01*
X57797819Y-39052401D02*
X57797819Y-38814306D01*
X57797819Y-38814306D02*
X57845438Y-38719068D01*
X57845438Y-38719068D02*
X57893057Y-38671449D01*
X57893057Y-38671449D02*
X57988295Y-38623830D01*
X57988295Y-38623830D02*
X58083533Y-38623830D01*
X58083533Y-38623830D02*
X58226390Y-38671449D01*
X58226390Y-38671449D02*
X58797819Y-39242877D01*
X58797819Y-39242877D02*
X58797819Y-38623830D01*
X57797819Y-38338115D02*
X58797819Y-38004782D01*
X58797819Y-38004782D02*
X57797819Y-37671449D01*
X57947038Y-43030611D02*
X57899419Y-43125849D01*
X57899419Y-43125849D02*
X57899419Y-43268706D01*
X57899419Y-43268706D02*
X57947038Y-43411563D01*
X57947038Y-43411563D02*
X58042276Y-43506801D01*
X58042276Y-43506801D02*
X58137514Y-43554420D01*
X58137514Y-43554420D02*
X58327990Y-43602039D01*
X58327990Y-43602039D02*
X58470847Y-43602039D01*
X58470847Y-43602039D02*
X58661323Y-43554420D01*
X58661323Y-43554420D02*
X58756561Y-43506801D01*
X58756561Y-43506801D02*
X58851800Y-43411563D01*
X58851800Y-43411563D02*
X58899419Y-43268706D01*
X58899419Y-43268706D02*
X58899419Y-43173468D01*
X58899419Y-43173468D02*
X58851800Y-43030611D01*
X58851800Y-43030611D02*
X58804180Y-42982992D01*
X58804180Y-42982992D02*
X58470847Y-42982992D01*
X58470847Y-42982992D02*
X58470847Y-43173468D01*
X58899419Y-42554420D02*
X57899419Y-42554420D01*
X57899419Y-42554420D02*
X58899419Y-41982992D01*
X58899419Y-41982992D02*
X57899419Y-41982992D01*
X58899419Y-41506801D02*
X57899419Y-41506801D01*
X57899419Y-41506801D02*
X57899419Y-41268706D01*
X57899419Y-41268706D02*
X57947038Y-41125849D01*
X57947038Y-41125849D02*
X58042276Y-41030611D01*
X58042276Y-41030611D02*
X58137514Y-40982992D01*
X58137514Y-40982992D02*
X58327990Y-40935373D01*
X58327990Y-40935373D02*
X58470847Y-40935373D01*
X58470847Y-40935373D02*
X58661323Y-40982992D01*
X58661323Y-40982992D02*
X58756561Y-41030611D01*
X58756561Y-41030611D02*
X58851800Y-41125849D01*
X58851800Y-41125849D02*
X58899419Y-41268706D01*
X58899419Y-41268706D02*
X58899419Y-41506801D01*
X54308219Y-56133904D02*
X54308219Y-55562476D01*
X55308219Y-55848190D02*
X54308219Y-55848190D01*
X55260600Y-55276761D02*
X55308219Y-55133904D01*
X55308219Y-55133904D02*
X55308219Y-54895809D01*
X55308219Y-54895809D02*
X55260600Y-54800571D01*
X55260600Y-54800571D02*
X55212980Y-54752952D01*
X55212980Y-54752952D02*
X55117742Y-54705333D01*
X55117742Y-54705333D02*
X55022504Y-54705333D01*
X55022504Y-54705333D02*
X54927266Y-54752952D01*
X54927266Y-54752952D02*
X54879647Y-54800571D01*
X54879647Y-54800571D02*
X54832028Y-54895809D01*
X54832028Y-54895809D02*
X54784409Y-55086285D01*
X54784409Y-55086285D02*
X54736790Y-55181523D01*
X54736790Y-55181523D02*
X54689171Y-55229142D01*
X54689171Y-55229142D02*
X54593933Y-55276761D01*
X54593933Y-55276761D02*
X54498695Y-55276761D01*
X54498695Y-55276761D02*
X54403457Y-55229142D01*
X54403457Y-55229142D02*
X54355838Y-55181523D01*
X54355838Y-55181523D02*
X54308219Y-55086285D01*
X54308219Y-55086285D02*
X54308219Y-54848190D01*
X54308219Y-54848190D02*
X54355838Y-54705333D01*
X56918219Y-55895808D02*
X55918219Y-55895808D01*
X56918219Y-55419618D02*
X55918219Y-55419618D01*
X55918219Y-55419618D02*
X56918219Y-54848190D01*
X56918219Y-54848190D02*
X55918219Y-54848190D01*
X55308219Y-58058038D02*
X54832028Y-58391371D01*
X55308219Y-58629466D02*
X54308219Y-58629466D01*
X54308219Y-58629466D02*
X54308219Y-58248514D01*
X54308219Y-58248514D02*
X54355838Y-58153276D01*
X54355838Y-58153276D02*
X54403457Y-58105657D01*
X54403457Y-58105657D02*
X54498695Y-58058038D01*
X54498695Y-58058038D02*
X54641552Y-58058038D01*
X54641552Y-58058038D02*
X54736790Y-58105657D01*
X54736790Y-58105657D02*
X54784409Y-58153276D01*
X54784409Y-58153276D02*
X54832028Y-58248514D01*
X54832028Y-58248514D02*
X54832028Y-58629466D01*
X55308219Y-57153276D02*
X55308219Y-57629466D01*
X55308219Y-57629466D02*
X54308219Y-57629466D01*
X56918219Y-58486608D02*
X55918219Y-58486608D01*
X56918219Y-58010418D02*
X55918219Y-58010418D01*
X55918219Y-58010418D02*
X56918219Y-57438990D01*
X56918219Y-57438990D02*
X55918219Y-57438990D01*
X54835209Y-60886933D02*
X54882828Y-60744076D01*
X54882828Y-60744076D02*
X54930447Y-60696457D01*
X54930447Y-60696457D02*
X55025685Y-60648838D01*
X55025685Y-60648838D02*
X55168542Y-60648838D01*
X55168542Y-60648838D02*
X55263780Y-60696457D01*
X55263780Y-60696457D02*
X55311400Y-60744076D01*
X55311400Y-60744076D02*
X55359019Y-60839314D01*
X55359019Y-60839314D02*
X55359019Y-61220266D01*
X55359019Y-61220266D02*
X54359019Y-61220266D01*
X54359019Y-61220266D02*
X54359019Y-60886933D01*
X54359019Y-60886933D02*
X54406638Y-60791695D01*
X54406638Y-60791695D02*
X54454257Y-60744076D01*
X54454257Y-60744076D02*
X54549495Y-60696457D01*
X54549495Y-60696457D02*
X54644733Y-60696457D01*
X54644733Y-60696457D02*
X54739971Y-60744076D01*
X54739971Y-60744076D02*
X54787590Y-60791695D01*
X54787590Y-60791695D02*
X54835209Y-60886933D01*
X54835209Y-60886933D02*
X54835209Y-61220266D01*
X55359019Y-59744076D02*
X55359019Y-60220266D01*
X55359019Y-60220266D02*
X54359019Y-60220266D01*
X56969019Y-61077408D02*
X55969019Y-61077408D01*
X56969019Y-60601218D02*
X55969019Y-60601218D01*
X55969019Y-60601218D02*
X56969019Y-60029790D01*
X56969019Y-60029790D02*
X55969019Y-60029790D01*
D11*
X74351740Y-88428338D02*
X74256502Y-88380719D01*
X74256502Y-88380719D02*
X74113645Y-88380719D01*
X74113645Y-88380719D02*
X73970788Y-88428338D01*
X73970788Y-88428338D02*
X73875550Y-88523576D01*
X73875550Y-88523576D02*
X73827931Y-88618814D01*
X73827931Y-88618814D02*
X73780312Y-88809290D01*
X73780312Y-88809290D02*
X73780312Y-88952147D01*
X73780312Y-88952147D02*
X73827931Y-89142623D01*
X73827931Y-89142623D02*
X73875550Y-89237861D01*
X73875550Y-89237861D02*
X73970788Y-89333100D01*
X73970788Y-89333100D02*
X74113645Y-89380719D01*
X74113645Y-89380719D02*
X74208883Y-89380719D01*
X74208883Y-89380719D02*
X74351740Y-89333100D01*
X74351740Y-89333100D02*
X74399359Y-89285480D01*
X74399359Y-89285480D02*
X74399359Y-88952147D01*
X74399359Y-88952147D02*
X74208883Y-88952147D01*
X74827931Y-89380719D02*
X74827931Y-88380719D01*
X74827931Y-88380719D02*
X75399359Y-89380719D01*
X75399359Y-89380719D02*
X75399359Y-88380719D01*
X75875550Y-89380719D02*
X75875550Y-88380719D01*
X75875550Y-88380719D02*
X76113645Y-88380719D01*
X76113645Y-88380719D02*
X76256502Y-88428338D01*
X76256502Y-88428338D02*
X76351740Y-88523576D01*
X76351740Y-88523576D02*
X76399359Y-88618814D01*
X76399359Y-88618814D02*
X76446978Y-88809290D01*
X76446978Y-88809290D02*
X76446978Y-88952147D01*
X76446978Y-88952147D02*
X76399359Y-89142623D01*
X76399359Y-89142623D02*
X76351740Y-89237861D01*
X76351740Y-89237861D02*
X76256502Y-89333100D01*
X76256502Y-89333100D02*
X76113645Y-89380719D01*
X76113645Y-89380719D02*
X75875550Y-89380719D01*
X77498159Y-89380719D02*
X77164826Y-88904528D01*
X76926731Y-89380719D02*
X76926731Y-88380719D01*
X76926731Y-88380719D02*
X77307683Y-88380719D01*
X77307683Y-88380719D02*
X77402921Y-88428338D01*
X77402921Y-88428338D02*
X77450540Y-88475957D01*
X77450540Y-88475957D02*
X77498159Y-88571195D01*
X77498159Y-88571195D02*
X77498159Y-88714052D01*
X77498159Y-88714052D02*
X77450540Y-88809290D01*
X77450540Y-88809290D02*
X77402921Y-88856909D01*
X77402921Y-88856909D02*
X77307683Y-88904528D01*
X77307683Y-88904528D02*
X76926731Y-88904528D01*
X77879112Y-89333100D02*
X78021969Y-89380719D01*
X78021969Y-89380719D02*
X78260064Y-89380719D01*
X78260064Y-89380719D02*
X78355302Y-89333100D01*
X78355302Y-89333100D02*
X78402921Y-89285480D01*
X78402921Y-89285480D02*
X78450540Y-89190242D01*
X78450540Y-89190242D02*
X78450540Y-89095004D01*
X78450540Y-89095004D02*
X78402921Y-88999766D01*
X78402921Y-88999766D02*
X78355302Y-88952147D01*
X78355302Y-88952147D02*
X78260064Y-88904528D01*
X78260064Y-88904528D02*
X78069588Y-88856909D01*
X78069588Y-88856909D02*
X77974350Y-88809290D01*
X77974350Y-88809290D02*
X77926731Y-88761671D01*
X77926731Y-88761671D02*
X77879112Y-88666433D01*
X77879112Y-88666433D02*
X77879112Y-88571195D01*
X77879112Y-88571195D02*
X77926731Y-88475957D01*
X77926731Y-88475957D02*
X77974350Y-88428338D01*
X77974350Y-88428338D02*
X78069588Y-88380719D01*
X78069588Y-88380719D02*
X78307683Y-88380719D01*
X78307683Y-88380719D02*
X78450540Y-88428338D01*
X78736255Y-88380719D02*
X79307683Y-88380719D01*
X79021969Y-89380719D02*
X79021969Y-88380719D01*
X80346140Y-89329919D02*
X79774712Y-89329919D01*
X80060426Y-89329919D02*
X80060426Y-88329919D01*
X80060426Y-88329919D02*
X79965188Y-88472776D01*
X79965188Y-88472776D02*
X79869950Y-88568014D01*
X79869950Y-88568014D02*
X79774712Y-88615633D01*
X81298521Y-89329919D02*
X80727093Y-89329919D01*
X81012807Y-89329919D02*
X81012807Y-88329919D01*
X81012807Y-88329919D02*
X80917569Y-88472776D01*
X80917569Y-88472776D02*
X80822331Y-88568014D01*
X80822331Y-88568014D02*
X80727093Y-88615633D01*
X82784540Y-89329919D02*
X82213112Y-89329919D01*
X82498826Y-89329919D02*
X82498826Y-88329919D01*
X82498826Y-88329919D02*
X82403588Y-88472776D01*
X82403588Y-88472776D02*
X82308350Y-88568014D01*
X82308350Y-88568014D02*
X82213112Y-88615633D01*
X83403588Y-88329919D02*
X83498826Y-88329919D01*
X83498826Y-88329919D02*
X83594064Y-88377538D01*
X83594064Y-88377538D02*
X83641683Y-88425157D01*
X83641683Y-88425157D02*
X83689302Y-88520395D01*
X83689302Y-88520395D02*
X83736921Y-88710871D01*
X83736921Y-88710871D02*
X83736921Y-88948966D01*
X83736921Y-88948966D02*
X83689302Y-89139442D01*
X83689302Y-89139442D02*
X83641683Y-89234680D01*
X83641683Y-89234680D02*
X83594064Y-89282300D01*
X83594064Y-89282300D02*
X83498826Y-89329919D01*
X83498826Y-89329919D02*
X83403588Y-89329919D01*
X83403588Y-89329919D02*
X83308350Y-89282300D01*
X83308350Y-89282300D02*
X83260731Y-89234680D01*
X83260731Y-89234680D02*
X83213112Y-89139442D01*
X83213112Y-89139442D02*
X83165493Y-88948966D01*
X83165493Y-88948966D02*
X83165493Y-88710871D01*
X83165493Y-88710871D02*
X83213112Y-88520395D01*
X83213112Y-88520395D02*
X83260731Y-88425157D01*
X83260731Y-88425157D02*
X83308350Y-88377538D01*
X83308350Y-88377538D02*
X83403588Y-88329919D01*
X85273740Y-89279119D02*
X84702312Y-89279119D01*
X84988026Y-89279119D02*
X84988026Y-88279119D01*
X84988026Y-88279119D02*
X84892788Y-88421976D01*
X84892788Y-88421976D02*
X84797550Y-88517214D01*
X84797550Y-88517214D02*
X84702312Y-88564833D01*
X85654693Y-88374357D02*
X85702312Y-88326738D01*
X85702312Y-88326738D02*
X85797550Y-88279119D01*
X85797550Y-88279119D02*
X86035645Y-88279119D01*
X86035645Y-88279119D02*
X86130883Y-88326738D01*
X86130883Y-88326738D02*
X86178502Y-88374357D01*
X86178502Y-88374357D02*
X86226121Y-88469595D01*
X86226121Y-88469595D02*
X86226121Y-88564833D01*
X86226121Y-88564833D02*
X86178502Y-88707690D01*
X86178502Y-88707690D02*
X85607074Y-89279119D01*
X85607074Y-89279119D02*
X86226121Y-89279119D01*
X87712140Y-89279119D02*
X87140712Y-89279119D01*
X87426426Y-89279119D02*
X87426426Y-88279119D01*
X87426426Y-88279119D02*
X87331188Y-88421976D01*
X87331188Y-88421976D02*
X87235950Y-88517214D01*
X87235950Y-88517214D02*
X87140712Y-88564833D01*
X88045474Y-88279119D02*
X88664521Y-88279119D01*
X88664521Y-88279119D02*
X88331188Y-88660071D01*
X88331188Y-88660071D02*
X88474045Y-88660071D01*
X88474045Y-88660071D02*
X88569283Y-88707690D01*
X88569283Y-88707690D02*
X88616902Y-88755309D01*
X88616902Y-88755309D02*
X88664521Y-88850547D01*
X88664521Y-88850547D02*
X88664521Y-89088642D01*
X88664521Y-89088642D02*
X88616902Y-89183880D01*
X88616902Y-89183880D02*
X88569283Y-89231500D01*
X88569283Y-89231500D02*
X88474045Y-89279119D01*
X88474045Y-89279119D02*
X88188331Y-89279119D01*
X88188331Y-89279119D02*
X88093093Y-89231500D01*
X88093093Y-89231500D02*
X88045474Y-89183880D01*
D10*
X96656638Y-69345011D02*
X96609019Y-69440249D01*
X96609019Y-69440249D02*
X96609019Y-69583106D01*
X96609019Y-69583106D02*
X96656638Y-69725963D01*
X96656638Y-69725963D02*
X96751876Y-69821201D01*
X96751876Y-69821201D02*
X96847114Y-69868820D01*
X96847114Y-69868820D02*
X97037590Y-69916439D01*
X97037590Y-69916439D02*
X97180447Y-69916439D01*
X97180447Y-69916439D02*
X97370923Y-69868820D01*
X97370923Y-69868820D02*
X97466161Y-69821201D01*
X97466161Y-69821201D02*
X97561400Y-69725963D01*
X97561400Y-69725963D02*
X97609019Y-69583106D01*
X97609019Y-69583106D02*
X97609019Y-69487868D01*
X97609019Y-69487868D02*
X97561400Y-69345011D01*
X97561400Y-69345011D02*
X97513780Y-69297392D01*
X97513780Y-69297392D02*
X97180447Y-69297392D01*
X97180447Y-69297392D02*
X97180447Y-69487868D01*
X97609019Y-68868820D02*
X96609019Y-68868820D01*
X96609019Y-68868820D02*
X97609019Y-68297392D01*
X97609019Y-68297392D02*
X96609019Y-68297392D01*
X97609019Y-67821201D02*
X96609019Y-67821201D01*
X96609019Y-67821201D02*
X96609019Y-67583106D01*
X96609019Y-67583106D02*
X96656638Y-67440249D01*
X96656638Y-67440249D02*
X96751876Y-67345011D01*
X96751876Y-67345011D02*
X96847114Y-67297392D01*
X96847114Y-67297392D02*
X97037590Y-67249773D01*
X97037590Y-67249773D02*
X97180447Y-67249773D01*
X97180447Y-67249773D02*
X97370923Y-67297392D01*
X97370923Y-67297392D02*
X97466161Y-67345011D01*
X97466161Y-67345011D02*
X97561400Y-67440249D01*
X97561400Y-67440249D02*
X97609019Y-67583106D01*
X97609019Y-67583106D02*
X97609019Y-67821201D01*
X97507419Y-65890611D02*
X97507419Y-66462039D01*
X97507419Y-66176325D02*
X96507419Y-66176325D01*
X96507419Y-66176325D02*
X96650276Y-66271563D01*
X96650276Y-66271563D02*
X96745514Y-66366801D01*
X96745514Y-66366801D02*
X96793133Y-66462039D01*
X96602657Y-65509658D02*
X96555038Y-65462039D01*
X96555038Y-65462039D02*
X96507419Y-65366801D01*
X96507419Y-65366801D02*
X96507419Y-65128706D01*
X96507419Y-65128706D02*
X96555038Y-65033468D01*
X96555038Y-65033468D02*
X96602657Y-64985849D01*
X96602657Y-64985849D02*
X96697895Y-64938230D01*
X96697895Y-64938230D02*
X96793133Y-64938230D01*
X96793133Y-64938230D02*
X96935990Y-64985849D01*
X96935990Y-64985849D02*
X97507419Y-65557277D01*
X97507419Y-65557277D02*
X97507419Y-64938230D01*
X96507419Y-64652515D02*
X97507419Y-64319182D01*
X97507419Y-64319182D02*
X96507419Y-63985849D01*
X96999419Y-60204192D02*
X96523228Y-60537525D01*
X96999419Y-60775620D02*
X95999419Y-60775620D01*
X95999419Y-60775620D02*
X95999419Y-60394668D01*
X95999419Y-60394668D02*
X96047038Y-60299430D01*
X96047038Y-60299430D02*
X96094657Y-60251811D01*
X96094657Y-60251811D02*
X96189895Y-60204192D01*
X96189895Y-60204192D02*
X96332752Y-60204192D01*
X96332752Y-60204192D02*
X96427990Y-60251811D01*
X96427990Y-60251811D02*
X96475609Y-60299430D01*
X96475609Y-60299430D02*
X96523228Y-60394668D01*
X96523228Y-60394668D02*
X96523228Y-60775620D01*
X96951800Y-59823239D02*
X96999419Y-59680382D01*
X96999419Y-59680382D02*
X96999419Y-59442287D01*
X96999419Y-59442287D02*
X96951800Y-59347049D01*
X96951800Y-59347049D02*
X96904180Y-59299430D01*
X96904180Y-59299430D02*
X96808942Y-59251811D01*
X96808942Y-59251811D02*
X96713704Y-59251811D01*
X96713704Y-59251811D02*
X96618466Y-59299430D01*
X96618466Y-59299430D02*
X96570847Y-59347049D01*
X96570847Y-59347049D02*
X96523228Y-59442287D01*
X96523228Y-59442287D02*
X96475609Y-59632763D01*
X96475609Y-59632763D02*
X96427990Y-59728001D01*
X96427990Y-59728001D02*
X96380371Y-59775620D01*
X96380371Y-59775620D02*
X96285133Y-59823239D01*
X96285133Y-59823239D02*
X96189895Y-59823239D01*
X96189895Y-59823239D02*
X96094657Y-59775620D01*
X96094657Y-59775620D02*
X96047038Y-59728001D01*
X96047038Y-59728001D02*
X95999419Y-59632763D01*
X95999419Y-59632763D02*
X95999419Y-59394668D01*
X95999419Y-59394668D02*
X96047038Y-59251811D01*
X96951800Y-58232439D02*
X96999419Y-58089582D01*
X96999419Y-58089582D02*
X96999419Y-57851487D01*
X96999419Y-57851487D02*
X96951800Y-57756249D01*
X96951800Y-57756249D02*
X96904180Y-57708630D01*
X96904180Y-57708630D02*
X96808942Y-57661011D01*
X96808942Y-57661011D02*
X96713704Y-57661011D01*
X96713704Y-57661011D02*
X96618466Y-57708630D01*
X96618466Y-57708630D02*
X96570847Y-57756249D01*
X96570847Y-57756249D02*
X96523228Y-57851487D01*
X96523228Y-57851487D02*
X96475609Y-58041963D01*
X96475609Y-58041963D02*
X96427990Y-58137201D01*
X96427990Y-58137201D02*
X96380371Y-58184820D01*
X96380371Y-58184820D02*
X96285133Y-58232439D01*
X96285133Y-58232439D02*
X96189895Y-58232439D01*
X96189895Y-58232439D02*
X96094657Y-58184820D01*
X96094657Y-58184820D02*
X96047038Y-58137201D01*
X96047038Y-58137201D02*
X95999419Y-58041963D01*
X95999419Y-58041963D02*
X95999419Y-57803868D01*
X95999419Y-57803868D02*
X96047038Y-57661011D01*
X96951800Y-57280058D02*
X96999419Y-57137201D01*
X96999419Y-57137201D02*
X96999419Y-56899106D01*
X96999419Y-56899106D02*
X96951800Y-56803868D01*
X96951800Y-56803868D02*
X96904180Y-56756249D01*
X96904180Y-56756249D02*
X96808942Y-56708630D01*
X96808942Y-56708630D02*
X96713704Y-56708630D01*
X96713704Y-56708630D02*
X96618466Y-56756249D01*
X96618466Y-56756249D02*
X96570847Y-56803868D01*
X96570847Y-56803868D02*
X96523228Y-56899106D01*
X96523228Y-56899106D02*
X96475609Y-57089582D01*
X96475609Y-57089582D02*
X96427990Y-57184820D01*
X96427990Y-57184820D02*
X96380371Y-57232439D01*
X96380371Y-57232439D02*
X96285133Y-57280058D01*
X96285133Y-57280058D02*
X96189895Y-57280058D01*
X96189895Y-57280058D02*
X96094657Y-57232439D01*
X96094657Y-57232439D02*
X96047038Y-57184820D01*
X96047038Y-57184820D02*
X95999419Y-57089582D01*
X95999419Y-57089582D02*
X95999419Y-56851487D01*
X95999419Y-56851487D02*
X96047038Y-56708630D01*
X95999419Y-55838477D02*
X95999419Y-55267049D01*
X96999419Y-55552763D02*
X95999419Y-55552763D01*
X96951800Y-54981334D02*
X96999419Y-54838477D01*
X96999419Y-54838477D02*
X96999419Y-54600382D01*
X96999419Y-54600382D02*
X96951800Y-54505144D01*
X96951800Y-54505144D02*
X96904180Y-54457525D01*
X96904180Y-54457525D02*
X96808942Y-54409906D01*
X96808942Y-54409906D02*
X96713704Y-54409906D01*
X96713704Y-54409906D02*
X96618466Y-54457525D01*
X96618466Y-54457525D02*
X96570847Y-54505144D01*
X96570847Y-54505144D02*
X96523228Y-54600382D01*
X96523228Y-54600382D02*
X96475609Y-54790858D01*
X96475609Y-54790858D02*
X96427990Y-54886096D01*
X96427990Y-54886096D02*
X96380371Y-54933715D01*
X96380371Y-54933715D02*
X96285133Y-54981334D01*
X96285133Y-54981334D02*
X96189895Y-54981334D01*
X96189895Y-54981334D02*
X96094657Y-54933715D01*
X96094657Y-54933715D02*
X96047038Y-54886096D01*
X96047038Y-54886096D02*
X95999419Y-54790858D01*
X95999419Y-54790858D02*
X95999419Y-54552763D01*
X95999419Y-54552763D02*
X96047038Y-54409906D01*
X99336219Y-70935620D02*
X98336219Y-70935620D01*
X98336219Y-70935620D02*
X98336219Y-70554668D01*
X98336219Y-70554668D02*
X98383838Y-70459430D01*
X98383838Y-70459430D02*
X98431457Y-70411811D01*
X98431457Y-70411811D02*
X98526695Y-70364192D01*
X98526695Y-70364192D02*
X98669552Y-70364192D01*
X98669552Y-70364192D02*
X98764790Y-70411811D01*
X98764790Y-70411811D02*
X98812409Y-70459430D01*
X98812409Y-70459430D02*
X98860028Y-70554668D01*
X98860028Y-70554668D02*
X98860028Y-70935620D01*
X98336219Y-69745144D02*
X98336219Y-69554668D01*
X98336219Y-69554668D02*
X98383838Y-69459430D01*
X98383838Y-69459430D02*
X98479076Y-69364192D01*
X98479076Y-69364192D02*
X98669552Y-69316573D01*
X98669552Y-69316573D02*
X99002885Y-69316573D01*
X99002885Y-69316573D02*
X99193361Y-69364192D01*
X99193361Y-69364192D02*
X99288600Y-69459430D01*
X99288600Y-69459430D02*
X99336219Y-69554668D01*
X99336219Y-69554668D02*
X99336219Y-69745144D01*
X99336219Y-69745144D02*
X99288600Y-69840382D01*
X99288600Y-69840382D02*
X99193361Y-69935620D01*
X99193361Y-69935620D02*
X99002885Y-69983239D01*
X99002885Y-69983239D02*
X98669552Y-69983239D01*
X98669552Y-69983239D02*
X98479076Y-69935620D01*
X98479076Y-69935620D02*
X98383838Y-69840382D01*
X98383838Y-69840382D02*
X98336219Y-69745144D01*
X98336219Y-68983239D02*
X99336219Y-68745144D01*
X99336219Y-68745144D02*
X98621933Y-68554668D01*
X98621933Y-68554668D02*
X99336219Y-68364192D01*
X99336219Y-68364192D02*
X98336219Y-68126097D01*
X98812409Y-67745144D02*
X98812409Y-67411811D01*
X99336219Y-67268954D02*
X99336219Y-67745144D01*
X99336219Y-67745144D02*
X98336219Y-67745144D01*
X98336219Y-67745144D02*
X98336219Y-67268954D01*
X99336219Y-66268954D02*
X98860028Y-66602287D01*
X99336219Y-66840382D02*
X98336219Y-66840382D01*
X98336219Y-66840382D02*
X98336219Y-66459430D01*
X98336219Y-66459430D02*
X98383838Y-66364192D01*
X98383838Y-66364192D02*
X98431457Y-66316573D01*
X98431457Y-66316573D02*
X98526695Y-66268954D01*
X98526695Y-66268954D02*
X98669552Y-66268954D01*
X98669552Y-66268954D02*
X98764790Y-66316573D01*
X98764790Y-66316573D02*
X98812409Y-66364192D01*
X98812409Y-66364192D02*
X98860028Y-66459430D01*
X98860028Y-66459430D02*
X98860028Y-66840382D01*
X99431457Y-66078478D02*
X99431457Y-65316573D01*
X98336219Y-64888001D02*
X98336219Y-64697525D01*
X98336219Y-64697525D02*
X98383838Y-64602287D01*
X98383838Y-64602287D02*
X98479076Y-64507049D01*
X98479076Y-64507049D02*
X98669552Y-64459430D01*
X98669552Y-64459430D02*
X99002885Y-64459430D01*
X99002885Y-64459430D02*
X99193361Y-64507049D01*
X99193361Y-64507049D02*
X99288600Y-64602287D01*
X99288600Y-64602287D02*
X99336219Y-64697525D01*
X99336219Y-64697525D02*
X99336219Y-64888001D01*
X99336219Y-64888001D02*
X99288600Y-64983239D01*
X99288600Y-64983239D02*
X99193361Y-65078477D01*
X99193361Y-65078477D02*
X99002885Y-65126096D01*
X99002885Y-65126096D02*
X98669552Y-65126096D01*
X98669552Y-65126096D02*
X98479076Y-65078477D01*
X98479076Y-65078477D02*
X98383838Y-64983239D01*
X98383838Y-64983239D02*
X98336219Y-64888001D01*
X98336219Y-64030858D02*
X99145742Y-64030858D01*
X99145742Y-64030858D02*
X99240980Y-63983239D01*
X99240980Y-63983239D02*
X99288600Y-63935620D01*
X99288600Y-63935620D02*
X99336219Y-63840382D01*
X99336219Y-63840382D02*
X99336219Y-63649906D01*
X99336219Y-63649906D02*
X99288600Y-63554668D01*
X99288600Y-63554668D02*
X99240980Y-63507049D01*
X99240980Y-63507049D02*
X99145742Y-63459430D01*
X99145742Y-63459430D02*
X98336219Y-63459430D01*
X98336219Y-63126096D02*
X98336219Y-62554668D01*
X99336219Y-62840382D02*
X98336219Y-62840382D01*
X59010779Y-63522219D02*
X59010779Y-62522219D01*
X59486969Y-63522219D02*
X59486969Y-62522219D01*
X59486969Y-62522219D02*
X60058397Y-63522219D01*
X60058397Y-63522219D02*
X60058397Y-62522219D01*
X79889579Y-91665419D02*
X79889579Y-90665419D01*
X79889579Y-90665419D02*
X80270531Y-90665419D01*
X80270531Y-90665419D02*
X80365769Y-90713038D01*
X80365769Y-90713038D02*
X80413388Y-90760657D01*
X80413388Y-90760657D02*
X80461007Y-90855895D01*
X80461007Y-90855895D02*
X80461007Y-90998752D01*
X80461007Y-90998752D02*
X80413388Y-91093990D01*
X80413388Y-91093990D02*
X80365769Y-91141609D01*
X80365769Y-91141609D02*
X80270531Y-91189228D01*
X80270531Y-91189228D02*
X79889579Y-91189228D01*
X81461007Y-91665419D02*
X81127674Y-91189228D01*
X80889579Y-91665419D02*
X80889579Y-90665419D01*
X80889579Y-90665419D02*
X81270531Y-90665419D01*
X81270531Y-90665419D02*
X81365769Y-90713038D01*
X81365769Y-90713038D02*
X81413388Y-90760657D01*
X81413388Y-90760657D02*
X81461007Y-90855895D01*
X81461007Y-90855895D02*
X81461007Y-90998752D01*
X81461007Y-90998752D02*
X81413388Y-91093990D01*
X81413388Y-91093990D02*
X81365769Y-91141609D01*
X81365769Y-91141609D02*
X81270531Y-91189228D01*
X81270531Y-91189228D02*
X80889579Y-91189228D01*
X82080055Y-90665419D02*
X82270531Y-90665419D01*
X82270531Y-90665419D02*
X82365769Y-90713038D01*
X82365769Y-90713038D02*
X82461007Y-90808276D01*
X82461007Y-90808276D02*
X82508626Y-90998752D01*
X82508626Y-90998752D02*
X82508626Y-91332085D01*
X82508626Y-91332085D02*
X82461007Y-91522561D01*
X82461007Y-91522561D02*
X82365769Y-91617800D01*
X82365769Y-91617800D02*
X82270531Y-91665419D01*
X82270531Y-91665419D02*
X82080055Y-91665419D01*
X82080055Y-91665419D02*
X81984817Y-91617800D01*
X81984817Y-91617800D02*
X81889579Y-91522561D01*
X81889579Y-91522561D02*
X81841960Y-91332085D01*
X81841960Y-91332085D02*
X81841960Y-90998752D01*
X81841960Y-90998752D02*
X81889579Y-90808276D01*
X81889579Y-90808276D02*
X81984817Y-90713038D01*
X81984817Y-90713038D02*
X82080055Y-90665419D01*
X83461007Y-90713038D02*
X83365769Y-90665419D01*
X83365769Y-90665419D02*
X83222912Y-90665419D01*
X83222912Y-90665419D02*
X83080055Y-90713038D01*
X83080055Y-90713038D02*
X82984817Y-90808276D01*
X82984817Y-90808276D02*
X82937198Y-90903514D01*
X82937198Y-90903514D02*
X82889579Y-91093990D01*
X82889579Y-91093990D02*
X82889579Y-91236847D01*
X82889579Y-91236847D02*
X82937198Y-91427323D01*
X82937198Y-91427323D02*
X82984817Y-91522561D01*
X82984817Y-91522561D02*
X83080055Y-91617800D01*
X83080055Y-91617800D02*
X83222912Y-91665419D01*
X83222912Y-91665419D02*
X83318150Y-91665419D01*
X83318150Y-91665419D02*
X83461007Y-91617800D01*
X83461007Y-91617800D02*
X83508626Y-91570180D01*
X83508626Y-91570180D02*
X83508626Y-91236847D01*
X83508626Y-91236847D02*
X83318150Y-91236847D01*
X94431007Y-89379419D02*
X94097674Y-88903228D01*
X93859579Y-89379419D02*
X93859579Y-88379419D01*
X93859579Y-88379419D02*
X94240531Y-88379419D01*
X94240531Y-88379419D02*
X94335769Y-88427038D01*
X94335769Y-88427038D02*
X94383388Y-88474657D01*
X94383388Y-88474657D02*
X94431007Y-88569895D01*
X94431007Y-88569895D02*
X94431007Y-88712752D01*
X94431007Y-88712752D02*
X94383388Y-88807990D01*
X94383388Y-88807990D02*
X94335769Y-88855609D01*
X94335769Y-88855609D02*
X94240531Y-88903228D01*
X94240531Y-88903228D02*
X93859579Y-88903228D01*
X94764341Y-88379419D02*
X95431007Y-89379419D01*
X95431007Y-88379419D02*
X94764341Y-89379419D01*
X74355560Y-78765400D02*
X74498417Y-78813019D01*
X74498417Y-78813019D02*
X74736512Y-78813019D01*
X74736512Y-78813019D02*
X74831750Y-78765400D01*
X74831750Y-78765400D02*
X74879369Y-78717780D01*
X74879369Y-78717780D02*
X74926988Y-78622542D01*
X74926988Y-78622542D02*
X74926988Y-78527304D01*
X74926988Y-78527304D02*
X74879369Y-78432066D01*
X74879369Y-78432066D02*
X74831750Y-78384447D01*
X74831750Y-78384447D02*
X74736512Y-78336828D01*
X74736512Y-78336828D02*
X74546036Y-78289209D01*
X74546036Y-78289209D02*
X74450798Y-78241590D01*
X74450798Y-78241590D02*
X74403179Y-78193971D01*
X74403179Y-78193971D02*
X74355560Y-78098733D01*
X74355560Y-78098733D02*
X74355560Y-78003495D01*
X74355560Y-78003495D02*
X74403179Y-77908257D01*
X74403179Y-77908257D02*
X74450798Y-77860638D01*
X74450798Y-77860638D02*
X74546036Y-77813019D01*
X74546036Y-77813019D02*
X74784131Y-77813019D01*
X74784131Y-77813019D02*
X74926988Y-77860638D01*
X75355560Y-78813019D02*
X75355560Y-77813019D01*
X75355560Y-78289209D02*
X75926988Y-78289209D01*
X75926988Y-78813019D02*
X75926988Y-77813019D01*
X76593655Y-77813019D02*
X76784131Y-77813019D01*
X76784131Y-77813019D02*
X76879369Y-77860638D01*
X76879369Y-77860638D02*
X76974607Y-77955876D01*
X76974607Y-77955876D02*
X77022226Y-78146352D01*
X77022226Y-78146352D02*
X77022226Y-78479685D01*
X77022226Y-78479685D02*
X76974607Y-78670161D01*
X76974607Y-78670161D02*
X76879369Y-78765400D01*
X76879369Y-78765400D02*
X76784131Y-78813019D01*
X76784131Y-78813019D02*
X76593655Y-78813019D01*
X76593655Y-78813019D02*
X76498417Y-78765400D01*
X76498417Y-78765400D02*
X76403179Y-78670161D01*
X76403179Y-78670161D02*
X76355560Y-78479685D01*
X76355560Y-78479685D02*
X76355560Y-78146352D01*
X76355560Y-78146352D02*
X76403179Y-77955876D01*
X76403179Y-77955876D02*
X76498417Y-77860638D01*
X76498417Y-77860638D02*
X76593655Y-77813019D01*
X77355560Y-77813019D02*
X77593655Y-78813019D01*
X77593655Y-78813019D02*
X77784131Y-78098733D01*
X77784131Y-78098733D02*
X77974607Y-78813019D01*
X77974607Y-78813019D02*
X78212703Y-77813019D01*
X56816619Y-43706820D02*
X55816619Y-43706820D01*
X55816619Y-43706820D02*
X55816619Y-43325868D01*
X55816619Y-43325868D02*
X55864238Y-43230630D01*
X55864238Y-43230630D02*
X55911857Y-43183011D01*
X55911857Y-43183011D02*
X56007095Y-43135392D01*
X56007095Y-43135392D02*
X56149952Y-43135392D01*
X56149952Y-43135392D02*
X56245190Y-43183011D01*
X56245190Y-43183011D02*
X56292809Y-43230630D01*
X56292809Y-43230630D02*
X56340428Y-43325868D01*
X56340428Y-43325868D02*
X56340428Y-43706820D01*
X55816619Y-42516344D02*
X55816619Y-42325868D01*
X55816619Y-42325868D02*
X55864238Y-42230630D01*
X55864238Y-42230630D02*
X55959476Y-42135392D01*
X55959476Y-42135392D02*
X56149952Y-42087773D01*
X56149952Y-42087773D02*
X56483285Y-42087773D01*
X56483285Y-42087773D02*
X56673761Y-42135392D01*
X56673761Y-42135392D02*
X56769000Y-42230630D01*
X56769000Y-42230630D02*
X56816619Y-42325868D01*
X56816619Y-42325868D02*
X56816619Y-42516344D01*
X56816619Y-42516344D02*
X56769000Y-42611582D01*
X56769000Y-42611582D02*
X56673761Y-42706820D01*
X56673761Y-42706820D02*
X56483285Y-42754439D01*
X56483285Y-42754439D02*
X56149952Y-42754439D01*
X56149952Y-42754439D02*
X55959476Y-42706820D01*
X55959476Y-42706820D02*
X55864238Y-42611582D01*
X55864238Y-42611582D02*
X55816619Y-42516344D01*
X55816619Y-41754439D02*
X56816619Y-41516344D01*
X56816619Y-41516344D02*
X56102333Y-41325868D01*
X56102333Y-41325868D02*
X56816619Y-41135392D01*
X56816619Y-41135392D02*
X55816619Y-40897297D01*
X56292809Y-40516344D02*
X56292809Y-40183011D01*
X56816619Y-40040154D02*
X56816619Y-40516344D01*
X56816619Y-40516344D02*
X55816619Y-40516344D01*
X55816619Y-40516344D02*
X55816619Y-40040154D01*
X56816619Y-39040154D02*
X56340428Y-39373487D01*
X56816619Y-39611582D02*
X55816619Y-39611582D01*
X55816619Y-39611582D02*
X55816619Y-39230630D01*
X55816619Y-39230630D02*
X55864238Y-39135392D01*
X55864238Y-39135392D02*
X55911857Y-39087773D01*
X55911857Y-39087773D02*
X56007095Y-39040154D01*
X56007095Y-39040154D02*
X56149952Y-39040154D01*
X56149952Y-39040154D02*
X56245190Y-39087773D01*
X56245190Y-39087773D02*
X56292809Y-39135392D01*
X56292809Y-39135392D02*
X56340428Y-39230630D01*
X56340428Y-39230630D02*
X56340428Y-39611582D01*
X56911857Y-38849678D02*
X56911857Y-38087773D01*
X56816619Y-37849677D02*
X55816619Y-37849677D01*
X56816619Y-37373487D02*
X55816619Y-37373487D01*
X55816619Y-37373487D02*
X56816619Y-36802059D01*
X56816619Y-36802059D02*
X55816619Y-36802059D01*
X94307019Y-51968230D02*
X94307019Y-52444420D01*
X94307019Y-52444420D02*
X93307019Y-52444420D01*
X93783209Y-51634896D02*
X93783209Y-51301563D01*
X94307019Y-51158706D02*
X94307019Y-51634896D01*
X94307019Y-51634896D02*
X93307019Y-51634896D01*
X93307019Y-51634896D02*
X93307019Y-51158706D01*
X94307019Y-50730134D02*
X93307019Y-50730134D01*
X93307019Y-50730134D02*
X93307019Y-50492039D01*
X93307019Y-50492039D02*
X93354638Y-50349182D01*
X93354638Y-50349182D02*
X93449876Y-50253944D01*
X93449876Y-50253944D02*
X93545114Y-50206325D01*
X93545114Y-50206325D02*
X93735590Y-50158706D01*
X93735590Y-50158706D02*
X93878447Y-50158706D01*
X93878447Y-50158706D02*
X94068923Y-50206325D01*
X94068923Y-50206325D02*
X94164161Y-50253944D01*
X94164161Y-50253944D02*
X94259400Y-50349182D01*
X94259400Y-50349182D02*
X94307019Y-50492039D01*
X94307019Y-50492039D02*
X94307019Y-50730134D01*
X71828819Y-61126666D02*
X71352628Y-61459999D01*
X71828819Y-61698094D02*
X70828819Y-61698094D01*
X70828819Y-61698094D02*
X70828819Y-61317142D01*
X70828819Y-61317142D02*
X70876438Y-61221904D01*
X70876438Y-61221904D02*
X70924057Y-61174285D01*
X70924057Y-61174285D02*
X71019295Y-61126666D01*
X71019295Y-61126666D02*
X71162152Y-61126666D01*
X71162152Y-61126666D02*
X71257390Y-61174285D01*
X71257390Y-61174285D02*
X71305009Y-61221904D01*
X71305009Y-61221904D02*
X71352628Y-61317142D01*
X71352628Y-61317142D02*
X71352628Y-61698094D01*
X71162152Y-60269523D02*
X71828819Y-60269523D01*
X70781200Y-60507618D02*
X71495485Y-60745713D01*
X71495485Y-60745713D02*
X71495485Y-60126666D01*
X62571333Y-70660419D02*
X62238000Y-70184228D01*
X61999905Y-70660419D02*
X61999905Y-69660419D01*
X61999905Y-69660419D02*
X62380857Y-69660419D01*
X62380857Y-69660419D02*
X62476095Y-69708038D01*
X62476095Y-69708038D02*
X62523714Y-69755657D01*
X62523714Y-69755657D02*
X62571333Y-69850895D01*
X62571333Y-69850895D02*
X62571333Y-69993752D01*
X62571333Y-69993752D02*
X62523714Y-70088990D01*
X62523714Y-70088990D02*
X62476095Y-70136609D01*
X62476095Y-70136609D02*
X62380857Y-70184228D01*
X62380857Y-70184228D02*
X61999905Y-70184228D01*
X63476095Y-69660419D02*
X62999905Y-69660419D01*
X62999905Y-69660419D02*
X62952286Y-70136609D01*
X62952286Y-70136609D02*
X62999905Y-70088990D01*
X62999905Y-70088990D02*
X63095143Y-70041371D01*
X63095143Y-70041371D02*
X63333238Y-70041371D01*
X63333238Y-70041371D02*
X63428476Y-70088990D01*
X63428476Y-70088990D02*
X63476095Y-70136609D01*
X63476095Y-70136609D02*
X63523714Y-70231847D01*
X63523714Y-70231847D02*
X63523714Y-70469942D01*
X63523714Y-70469942D02*
X63476095Y-70565180D01*
X63476095Y-70565180D02*
X63428476Y-70612800D01*
X63428476Y-70612800D02*
X63333238Y-70660419D01*
X63333238Y-70660419D02*
X63095143Y-70660419D01*
X63095143Y-70660419D02*
X62999905Y-70612800D01*
X62999905Y-70612800D02*
X62952286Y-70565180D01*
X63028533Y-56538019D02*
X62695200Y-56061828D01*
X62457105Y-56538019D02*
X62457105Y-55538019D01*
X62457105Y-55538019D02*
X62838057Y-55538019D01*
X62838057Y-55538019D02*
X62933295Y-55585638D01*
X62933295Y-55585638D02*
X62980914Y-55633257D01*
X62980914Y-55633257D02*
X63028533Y-55728495D01*
X63028533Y-55728495D02*
X63028533Y-55871352D01*
X63028533Y-55871352D02*
X62980914Y-55966590D01*
X62980914Y-55966590D02*
X62933295Y-56014209D01*
X62933295Y-56014209D02*
X62838057Y-56061828D01*
X62838057Y-56061828D02*
X62457105Y-56061828D01*
X63361867Y-55538019D02*
X63980914Y-55538019D01*
X63980914Y-55538019D02*
X63647581Y-55918971D01*
X63647581Y-55918971D02*
X63790438Y-55918971D01*
X63790438Y-55918971D02*
X63885676Y-55966590D01*
X63885676Y-55966590D02*
X63933295Y-56014209D01*
X63933295Y-56014209D02*
X63980914Y-56109447D01*
X63980914Y-56109447D02*
X63980914Y-56347542D01*
X63980914Y-56347542D02*
X63933295Y-56442780D01*
X63933295Y-56442780D02*
X63885676Y-56490400D01*
X63885676Y-56490400D02*
X63790438Y-56538019D01*
X63790438Y-56538019D02*
X63504724Y-56538019D01*
X63504724Y-56538019D02*
X63409486Y-56490400D01*
X63409486Y-56490400D02*
X63361867Y-56442780D01*
X72794019Y-53811466D02*
X72317828Y-54144799D01*
X72794019Y-54382894D02*
X71794019Y-54382894D01*
X71794019Y-54382894D02*
X71794019Y-54001942D01*
X71794019Y-54001942D02*
X71841638Y-53906704D01*
X71841638Y-53906704D02*
X71889257Y-53859085D01*
X71889257Y-53859085D02*
X71984495Y-53811466D01*
X71984495Y-53811466D02*
X72127352Y-53811466D01*
X72127352Y-53811466D02*
X72222590Y-53859085D01*
X72222590Y-53859085D02*
X72270209Y-53906704D01*
X72270209Y-53906704D02*
X72317828Y-54001942D01*
X72317828Y-54001942D02*
X72317828Y-54382894D01*
X71889257Y-53430513D02*
X71841638Y-53382894D01*
X71841638Y-53382894D02*
X71794019Y-53287656D01*
X71794019Y-53287656D02*
X71794019Y-53049561D01*
X71794019Y-53049561D02*
X71841638Y-52954323D01*
X71841638Y-52954323D02*
X71889257Y-52906704D01*
X71889257Y-52906704D02*
X71984495Y-52859085D01*
X71984495Y-52859085D02*
X72079733Y-52859085D01*
X72079733Y-52859085D02*
X72222590Y-52906704D01*
X72222590Y-52906704D02*
X72794019Y-53478132D01*
X72794019Y-53478132D02*
X72794019Y-52859085D01*
X54764780Y-83975866D02*
X54812400Y-84023485D01*
X54812400Y-84023485D02*
X54860019Y-84166342D01*
X54860019Y-84166342D02*
X54860019Y-84261580D01*
X54860019Y-84261580D02*
X54812400Y-84404437D01*
X54812400Y-84404437D02*
X54717161Y-84499675D01*
X54717161Y-84499675D02*
X54621923Y-84547294D01*
X54621923Y-84547294D02*
X54431447Y-84594913D01*
X54431447Y-84594913D02*
X54288590Y-84594913D01*
X54288590Y-84594913D02*
X54098114Y-84547294D01*
X54098114Y-84547294D02*
X54002876Y-84499675D01*
X54002876Y-84499675D02*
X53907638Y-84404437D01*
X53907638Y-84404437D02*
X53860019Y-84261580D01*
X53860019Y-84261580D02*
X53860019Y-84166342D01*
X53860019Y-84166342D02*
X53907638Y-84023485D01*
X53907638Y-84023485D02*
X53955257Y-83975866D01*
X53860019Y-83642532D02*
X53860019Y-83023485D01*
X53860019Y-83023485D02*
X54240971Y-83356818D01*
X54240971Y-83356818D02*
X54240971Y-83213961D01*
X54240971Y-83213961D02*
X54288590Y-83118723D01*
X54288590Y-83118723D02*
X54336209Y-83071104D01*
X54336209Y-83071104D02*
X54431447Y-83023485D01*
X54431447Y-83023485D02*
X54669542Y-83023485D01*
X54669542Y-83023485D02*
X54764780Y-83071104D01*
X54764780Y-83071104D02*
X54812400Y-83118723D01*
X54812400Y-83118723D02*
X54860019Y-83213961D01*
X54860019Y-83213961D02*
X54860019Y-83499675D01*
X54860019Y-83499675D02*
X54812400Y-83594913D01*
X54812400Y-83594913D02*
X54764780Y-83642532D01*
X76711980Y-42279866D02*
X76759600Y-42327485D01*
X76759600Y-42327485D02*
X76807219Y-42470342D01*
X76807219Y-42470342D02*
X76807219Y-42565580D01*
X76807219Y-42565580D02*
X76759600Y-42708437D01*
X76759600Y-42708437D02*
X76664361Y-42803675D01*
X76664361Y-42803675D02*
X76569123Y-42851294D01*
X76569123Y-42851294D02*
X76378647Y-42898913D01*
X76378647Y-42898913D02*
X76235790Y-42898913D01*
X76235790Y-42898913D02*
X76045314Y-42851294D01*
X76045314Y-42851294D02*
X75950076Y-42803675D01*
X75950076Y-42803675D02*
X75854838Y-42708437D01*
X75854838Y-42708437D02*
X75807219Y-42565580D01*
X75807219Y-42565580D02*
X75807219Y-42470342D01*
X75807219Y-42470342D02*
X75854838Y-42327485D01*
X75854838Y-42327485D02*
X75902457Y-42279866D01*
X75902457Y-41898913D02*
X75854838Y-41851294D01*
X75854838Y-41851294D02*
X75807219Y-41756056D01*
X75807219Y-41756056D02*
X75807219Y-41517961D01*
X75807219Y-41517961D02*
X75854838Y-41422723D01*
X75854838Y-41422723D02*
X75902457Y-41375104D01*
X75902457Y-41375104D02*
X75997695Y-41327485D01*
X75997695Y-41327485D02*
X76092933Y-41327485D01*
X76092933Y-41327485D02*
X76235790Y-41375104D01*
X76235790Y-41375104D02*
X76807219Y-41946532D01*
X76807219Y-41946532D02*
X76807219Y-41327485D01*
X66990933Y-44701619D02*
X66657600Y-44225428D01*
X66419505Y-44701619D02*
X66419505Y-43701619D01*
X66419505Y-43701619D02*
X66800457Y-43701619D01*
X66800457Y-43701619D02*
X66895695Y-43749238D01*
X66895695Y-43749238D02*
X66943314Y-43796857D01*
X66943314Y-43796857D02*
X66990933Y-43892095D01*
X66990933Y-43892095D02*
X66990933Y-44034952D01*
X66990933Y-44034952D02*
X66943314Y-44130190D01*
X66943314Y-44130190D02*
X66895695Y-44177809D01*
X66895695Y-44177809D02*
X66800457Y-44225428D01*
X66800457Y-44225428D02*
X66419505Y-44225428D01*
X67943314Y-44701619D02*
X67371886Y-44701619D01*
X67657600Y-44701619D02*
X67657600Y-43701619D01*
X67657600Y-43701619D02*
X67562362Y-43844476D01*
X67562362Y-43844476D02*
X67467124Y-43939714D01*
X67467124Y-43939714D02*
X67371886Y-43987333D01*
X64056419Y-74601294D02*
X63056419Y-74601294D01*
X63056419Y-74601294D02*
X63056419Y-74363199D01*
X63056419Y-74363199D02*
X63104038Y-74220342D01*
X63104038Y-74220342D02*
X63199276Y-74125104D01*
X63199276Y-74125104D02*
X63294514Y-74077485D01*
X63294514Y-74077485D02*
X63484990Y-74029866D01*
X63484990Y-74029866D02*
X63627847Y-74029866D01*
X63627847Y-74029866D02*
X63818323Y-74077485D01*
X63818323Y-74077485D02*
X63913561Y-74125104D01*
X63913561Y-74125104D02*
X64008800Y-74220342D01*
X64008800Y-74220342D02*
X64056419Y-74363199D01*
X64056419Y-74363199D02*
X64056419Y-74601294D01*
X63056419Y-73696532D02*
X63056419Y-73077485D01*
X63056419Y-73077485D02*
X63437371Y-73410818D01*
X63437371Y-73410818D02*
X63437371Y-73267961D01*
X63437371Y-73267961D02*
X63484990Y-73172723D01*
X63484990Y-73172723D02*
X63532609Y-73125104D01*
X63532609Y-73125104D02*
X63627847Y-73077485D01*
X63627847Y-73077485D02*
X63865942Y-73077485D01*
X63865942Y-73077485D02*
X63961180Y-73125104D01*
X63961180Y-73125104D02*
X64008800Y-73172723D01*
X64008800Y-73172723D02*
X64056419Y-73267961D01*
X64056419Y-73267961D02*
X64056419Y-73553675D01*
X64056419Y-73553675D02*
X64008800Y-73648913D01*
X64008800Y-73648913D02*
X63961180Y-73696532D01*
X72540019Y-76417466D02*
X72063828Y-76750799D01*
X72540019Y-76988894D02*
X71540019Y-76988894D01*
X71540019Y-76988894D02*
X71540019Y-76607942D01*
X71540019Y-76607942D02*
X71587638Y-76512704D01*
X71587638Y-76512704D02*
X71635257Y-76465085D01*
X71635257Y-76465085D02*
X71730495Y-76417466D01*
X71730495Y-76417466D02*
X71873352Y-76417466D01*
X71873352Y-76417466D02*
X71968590Y-76465085D01*
X71968590Y-76465085D02*
X72016209Y-76512704D01*
X72016209Y-76512704D02*
X72063828Y-76607942D01*
X72063828Y-76607942D02*
X72063828Y-76988894D01*
X71540019Y-75560323D02*
X71540019Y-75750799D01*
X71540019Y-75750799D02*
X71587638Y-75846037D01*
X71587638Y-75846037D02*
X71635257Y-75893656D01*
X71635257Y-75893656D02*
X71778114Y-75988894D01*
X71778114Y-75988894D02*
X71968590Y-76036513D01*
X71968590Y-76036513D02*
X72349542Y-76036513D01*
X72349542Y-76036513D02*
X72444780Y-75988894D01*
X72444780Y-75988894D02*
X72492400Y-75941275D01*
X72492400Y-75941275D02*
X72540019Y-75846037D01*
X72540019Y-75846037D02*
X72540019Y-75655561D01*
X72540019Y-75655561D02*
X72492400Y-75560323D01*
X72492400Y-75560323D02*
X72444780Y-75512704D01*
X72444780Y-75512704D02*
X72349542Y-75465085D01*
X72349542Y-75465085D02*
X72111447Y-75465085D01*
X72111447Y-75465085D02*
X72016209Y-75512704D01*
X72016209Y-75512704D02*
X71968590Y-75560323D01*
X71968590Y-75560323D02*
X71920971Y-75655561D01*
X71920971Y-75655561D02*
X71920971Y-75846037D01*
X71920971Y-75846037D02*
X71968590Y-75941275D01*
X71968590Y-75941275D02*
X72016209Y-75988894D01*
X72016209Y-75988894D02*
X72111447Y-76036513D01*
X63954819Y-61901294D02*
X62954819Y-61901294D01*
X62954819Y-61901294D02*
X62954819Y-61663199D01*
X62954819Y-61663199D02*
X63002438Y-61520342D01*
X63002438Y-61520342D02*
X63097676Y-61425104D01*
X63097676Y-61425104D02*
X63192914Y-61377485D01*
X63192914Y-61377485D02*
X63383390Y-61329866D01*
X63383390Y-61329866D02*
X63526247Y-61329866D01*
X63526247Y-61329866D02*
X63716723Y-61377485D01*
X63716723Y-61377485D02*
X63811961Y-61425104D01*
X63811961Y-61425104D02*
X63907200Y-61520342D01*
X63907200Y-61520342D02*
X63954819Y-61663199D01*
X63954819Y-61663199D02*
X63954819Y-61901294D01*
X63050057Y-60948913D02*
X63002438Y-60901294D01*
X63002438Y-60901294D02*
X62954819Y-60806056D01*
X62954819Y-60806056D02*
X62954819Y-60567961D01*
X62954819Y-60567961D02*
X63002438Y-60472723D01*
X63002438Y-60472723D02*
X63050057Y-60425104D01*
X63050057Y-60425104D02*
X63145295Y-60377485D01*
X63145295Y-60377485D02*
X63240533Y-60377485D01*
X63240533Y-60377485D02*
X63383390Y-60425104D01*
X63383390Y-60425104D02*
X63954819Y-60996532D01*
X63954819Y-60996532D02*
X63954819Y-60377485D01*
X64259619Y-52554094D02*
X63259619Y-52554094D01*
X63259619Y-52554094D02*
X63259619Y-52315999D01*
X63259619Y-52315999D02*
X63307238Y-52173142D01*
X63307238Y-52173142D02*
X63402476Y-52077904D01*
X63402476Y-52077904D02*
X63497714Y-52030285D01*
X63497714Y-52030285D02*
X63688190Y-51982666D01*
X63688190Y-51982666D02*
X63831047Y-51982666D01*
X63831047Y-51982666D02*
X64021523Y-52030285D01*
X64021523Y-52030285D02*
X64116761Y-52077904D01*
X64116761Y-52077904D02*
X64212000Y-52173142D01*
X64212000Y-52173142D02*
X64259619Y-52315999D01*
X64259619Y-52315999D02*
X64259619Y-52554094D01*
X64259619Y-51030285D02*
X64259619Y-51601713D01*
X64259619Y-51315999D02*
X63259619Y-51315999D01*
X63259619Y-51315999D02*
X63402476Y-51411237D01*
X63402476Y-51411237D02*
X63497714Y-51506475D01*
X63497714Y-51506475D02*
X63545333Y-51601713D01*
X89056380Y-42229066D02*
X89104000Y-42276685D01*
X89104000Y-42276685D02*
X89151619Y-42419542D01*
X89151619Y-42419542D02*
X89151619Y-42514780D01*
X89151619Y-42514780D02*
X89104000Y-42657637D01*
X89104000Y-42657637D02*
X89008761Y-42752875D01*
X89008761Y-42752875D02*
X88913523Y-42800494D01*
X88913523Y-42800494D02*
X88723047Y-42848113D01*
X88723047Y-42848113D02*
X88580190Y-42848113D01*
X88580190Y-42848113D02*
X88389714Y-42800494D01*
X88389714Y-42800494D02*
X88294476Y-42752875D01*
X88294476Y-42752875D02*
X88199238Y-42657637D01*
X88199238Y-42657637D02*
X88151619Y-42514780D01*
X88151619Y-42514780D02*
X88151619Y-42419542D01*
X88151619Y-42419542D02*
X88199238Y-42276685D01*
X88199238Y-42276685D02*
X88246857Y-42229066D01*
X89151619Y-41276685D02*
X89151619Y-41848113D01*
X89151619Y-41562399D02*
X88151619Y-41562399D01*
X88151619Y-41562399D02*
X88294476Y-41657637D01*
X88294476Y-41657637D02*
X88389714Y-41752875D01*
X88389714Y-41752875D02*
X88437333Y-41848113D01*
D12*
X69545200Y-61876000D02*
X69545200Y-61806000D01*
X70915200Y-63246000D02*
G75*
G03*
X70915200Y-63246000I-1370000J0D01*
G01*
X66803600Y-68681601D02*
X66733600Y-68681601D01*
X69543600Y-68681601D02*
G75*
G03*
X69543600Y-68681601I-1370000J0D01*
G01*
X86690600Y-84750200D02*
X73930600Y-84750200D01*
X86690600Y-84750200D02*
X86690600Y-87410200D01*
X73930600Y-84750200D02*
X73930600Y-87410200D01*
X89290600Y-86080200D02*
X89290600Y-87410200D01*
X89290600Y-87410200D02*
X87960600Y-87410200D01*
X86690600Y-87410200D02*
X73930600Y-87410200D01*
X66905200Y-57861200D02*
X66835200Y-57861200D01*
X69645200Y-57861200D02*
G75*
G03*
X69645200Y-57861200I-1370000J0D01*
G01*
X93208800Y-87366800D02*
X93208800Y-87486800D01*
X93208800Y-87486800D02*
X95868800Y-87486800D01*
X94538800Y-84826800D02*
X95868800Y-84826800D01*
X95868800Y-84826800D02*
X95868800Y-86156800D01*
X95868800Y-87366800D02*
X95868800Y-87486800D01*
X69646800Y-50750800D02*
X69646800Y-50680800D01*
X71016800Y-52120800D02*
G75*
G03*
X71016800Y-52120800I-1370000J0D01*
G01*
X57780200Y-89288846D02*
X57780200Y-88288846D01*
X57280200Y-88788846D02*
X58280200Y-88788846D01*
X55575200Y-83809200D02*
X65735200Y-83809200D01*
X55575200Y-83769200D02*
X65735200Y-83769200D01*
X55575200Y-83729200D02*
X65735200Y-83729200D01*
X55576200Y-83689200D02*
X65734200Y-83689200D01*
X55577200Y-83649200D02*
X65733200Y-83649200D01*
X55578200Y-83609200D02*
X65732200Y-83609200D01*
X55580200Y-83569200D02*
X65730200Y-83569200D01*
X55582200Y-83529200D02*
X65728200Y-83529200D01*
X55585200Y-83489200D02*
X65725200Y-83489200D01*
X55587200Y-83449200D02*
X65723200Y-83449200D01*
X55590200Y-83409200D02*
X65720200Y-83409200D01*
X55593200Y-83369200D02*
X65717200Y-83369200D01*
X55597200Y-83329200D02*
X65713200Y-83329200D01*
X55601200Y-83289200D02*
X65709200Y-83289200D01*
X55605200Y-83249200D02*
X65705200Y-83249200D01*
X55610200Y-83209200D02*
X65700200Y-83209200D01*
X55615200Y-83169200D02*
X65695200Y-83169200D01*
X55620200Y-83129200D02*
X65690200Y-83129200D01*
X55625200Y-83088200D02*
X65685200Y-83088200D01*
X55631200Y-83048200D02*
X65679200Y-83048200D01*
X55637200Y-83008200D02*
X65673200Y-83008200D01*
X55644200Y-82968200D02*
X65666200Y-82968200D01*
X55651200Y-82928200D02*
X65659200Y-82928200D01*
X55658200Y-82888200D02*
X65652200Y-82888200D01*
X55665200Y-82848200D02*
X65645200Y-82848200D01*
X55673200Y-82808200D02*
X65637200Y-82808200D01*
X55681200Y-82768200D02*
X65629200Y-82768200D01*
X55690200Y-82728200D02*
X65620200Y-82728200D01*
X55699200Y-82688200D02*
X65611200Y-82688200D01*
X55708200Y-82648200D02*
X65602200Y-82648200D01*
X55717200Y-82608200D02*
X65593200Y-82608200D01*
X55727200Y-82568200D02*
X65583200Y-82568200D01*
X55737200Y-82528200D02*
X59414200Y-82528200D01*
X61896200Y-82528200D02*
X65573200Y-82528200D01*
X55748200Y-82488200D02*
X59414200Y-82488200D01*
X61896200Y-82488200D02*
X65562200Y-82488200D01*
X55758200Y-82448200D02*
X59414200Y-82448200D01*
X61896200Y-82448200D02*
X65552200Y-82448200D01*
X55770200Y-82408200D02*
X59414200Y-82408200D01*
X61896200Y-82408200D02*
X65540200Y-82408200D01*
X55781200Y-82368200D02*
X59414200Y-82368200D01*
X61896200Y-82368200D02*
X65529200Y-82368200D01*
X55793200Y-82328200D02*
X59414200Y-82328200D01*
X61896200Y-82328200D02*
X65517200Y-82328200D01*
X55805200Y-82288200D02*
X59414200Y-82288200D01*
X61896200Y-82288200D02*
X65505200Y-82288200D01*
X55818200Y-82248200D02*
X59414200Y-82248200D01*
X61896200Y-82248200D02*
X65492200Y-82248200D01*
X55831200Y-82208200D02*
X59414200Y-82208200D01*
X61896200Y-82208200D02*
X65479200Y-82208200D01*
X55844200Y-82168200D02*
X59414200Y-82168200D01*
X61896200Y-82168200D02*
X65466200Y-82168200D01*
X55858200Y-82128200D02*
X59414200Y-82128200D01*
X61896200Y-82128200D02*
X65452200Y-82128200D01*
X55872200Y-82088200D02*
X59414200Y-82088200D01*
X61896200Y-82088200D02*
X65438200Y-82088200D01*
X55887200Y-82048200D02*
X59414200Y-82048200D01*
X61896200Y-82048200D02*
X65423200Y-82048200D01*
X55901200Y-82008200D02*
X59414200Y-82008200D01*
X61896200Y-82008200D02*
X65409200Y-82008200D01*
X55917200Y-81968200D02*
X59414200Y-81968200D01*
X61896200Y-81968200D02*
X65393200Y-81968200D01*
X55932200Y-81928200D02*
X59414200Y-81928200D01*
X61896200Y-81928200D02*
X65378200Y-81928200D01*
X55948200Y-81888200D02*
X59414200Y-81888200D01*
X61896200Y-81888200D02*
X65362200Y-81888200D01*
X55965200Y-81848200D02*
X59414200Y-81848200D01*
X61896200Y-81848200D02*
X65345200Y-81848200D01*
X55981200Y-81808200D02*
X59414200Y-81808200D01*
X61896200Y-81808200D02*
X65329200Y-81808200D01*
X55998200Y-81768200D02*
X59414200Y-81768200D01*
X61896200Y-81768200D02*
X65312200Y-81768200D01*
X56016200Y-81728200D02*
X59414200Y-81728200D01*
X61896200Y-81728200D02*
X65294200Y-81728200D01*
X56034200Y-81688200D02*
X59414200Y-81688200D01*
X61896200Y-81688200D02*
X65276200Y-81688200D01*
X56052200Y-81648200D02*
X59414200Y-81648200D01*
X61896200Y-81648200D02*
X65258200Y-81648200D01*
X56071200Y-81608200D02*
X59414200Y-81608200D01*
X61896200Y-81608200D02*
X65239200Y-81608200D01*
X56091200Y-81568200D02*
X59414200Y-81568200D01*
X61896200Y-81568200D02*
X65219200Y-81568200D01*
X56110200Y-81528200D02*
X59414200Y-81528200D01*
X61896200Y-81528200D02*
X65200200Y-81528200D01*
X56130200Y-81488200D02*
X59414200Y-81488200D01*
X61896200Y-81488200D02*
X65180200Y-81488200D01*
X56151200Y-81448200D02*
X59414200Y-81448200D01*
X61896200Y-81448200D02*
X65159200Y-81448200D01*
X56172200Y-81408200D02*
X59414200Y-81408200D01*
X61896200Y-81408200D02*
X65138200Y-81408200D01*
X56193200Y-81368200D02*
X59414200Y-81368200D01*
X61896200Y-81368200D02*
X65117200Y-81368200D01*
X56215200Y-81328200D02*
X59414200Y-81328200D01*
X61896200Y-81328200D02*
X65095200Y-81328200D01*
X56238200Y-81288200D02*
X59414200Y-81288200D01*
X61896200Y-81288200D02*
X65072200Y-81288200D01*
X56260200Y-81248200D02*
X59414200Y-81248200D01*
X61896200Y-81248200D02*
X65050200Y-81248200D01*
X56284200Y-81208200D02*
X59414200Y-81208200D01*
X61896200Y-81208200D02*
X65026200Y-81208200D01*
X56308200Y-81168200D02*
X59414200Y-81168200D01*
X61896200Y-81168200D02*
X65002200Y-81168200D01*
X56332200Y-81128200D02*
X59414200Y-81128200D01*
X61896200Y-81128200D02*
X64978200Y-81128200D01*
X56357200Y-81088200D02*
X59414200Y-81088200D01*
X61896200Y-81088200D02*
X64953200Y-81088200D01*
X56382200Y-81048200D02*
X59414200Y-81048200D01*
X61896200Y-81048200D02*
X64928200Y-81048200D01*
X56408200Y-81008200D02*
X59414200Y-81008200D01*
X61896200Y-81008200D02*
X64902200Y-81008200D01*
X56434200Y-80968200D02*
X59414200Y-80968200D01*
X61896200Y-80968200D02*
X64876200Y-80968200D01*
X56461200Y-80928200D02*
X59414200Y-80928200D01*
X61896200Y-80928200D02*
X64849200Y-80928200D01*
X56489200Y-80888200D02*
X59414200Y-80888200D01*
X61896200Y-80888200D02*
X64821200Y-80888200D01*
X56517200Y-80848200D02*
X59414200Y-80848200D01*
X61896200Y-80848200D02*
X64793200Y-80848200D01*
X56545200Y-80808200D02*
X59414200Y-80808200D01*
X61896200Y-80808200D02*
X64765200Y-80808200D01*
X56575200Y-80768200D02*
X59414200Y-80768200D01*
X61896200Y-80768200D02*
X64735200Y-80768200D01*
X56605200Y-80728200D02*
X59414200Y-80728200D01*
X61896200Y-80728200D02*
X64705200Y-80728200D01*
X56635200Y-80688200D02*
X59414200Y-80688200D01*
X61896200Y-80688200D02*
X64675200Y-80688200D01*
X56666200Y-80648200D02*
X59414200Y-80648200D01*
X61896200Y-80648200D02*
X64644200Y-80648200D01*
X56698200Y-80608200D02*
X59414200Y-80608200D01*
X61896200Y-80608200D02*
X64612200Y-80608200D01*
X56730200Y-80568200D02*
X59414200Y-80568200D01*
X61896200Y-80568200D02*
X64580200Y-80568200D01*
X56763200Y-80528200D02*
X59414200Y-80528200D01*
X61896200Y-80528200D02*
X64547200Y-80528200D01*
X56797200Y-80488200D02*
X59414200Y-80488200D01*
X61896200Y-80488200D02*
X64513200Y-80488200D01*
X56831200Y-80448200D02*
X59414200Y-80448200D01*
X61896200Y-80448200D02*
X64479200Y-80448200D01*
X56866200Y-80408200D02*
X59414200Y-80408200D01*
X61896200Y-80408200D02*
X64444200Y-80408200D01*
X56902200Y-80368200D02*
X59414200Y-80368200D01*
X61896200Y-80368200D02*
X64408200Y-80368200D01*
X56939200Y-80328200D02*
X59414200Y-80328200D01*
X61896200Y-80328200D02*
X64371200Y-80328200D01*
X56976200Y-80288200D02*
X59414200Y-80288200D01*
X61896200Y-80288200D02*
X64334200Y-80288200D01*
X57015200Y-80248200D02*
X59414200Y-80248200D01*
X61896200Y-80248200D02*
X64295200Y-80248200D01*
X57054200Y-80208200D02*
X59414200Y-80208200D01*
X61896200Y-80208200D02*
X64256200Y-80208200D01*
X57094200Y-80168200D02*
X59414200Y-80168200D01*
X61896200Y-80168200D02*
X64216200Y-80168200D01*
X57135200Y-80128200D02*
X59414200Y-80128200D01*
X61896200Y-80128200D02*
X64175200Y-80128200D01*
X57177200Y-80088200D02*
X59414200Y-80088200D01*
X61896200Y-80088200D02*
X64133200Y-80088200D01*
X57219200Y-80048200D02*
X64091200Y-80048200D01*
X57263200Y-80008200D02*
X64047200Y-80008200D01*
X57308200Y-79968200D02*
X64002200Y-79968200D01*
X57354200Y-79928200D02*
X63956200Y-79928200D01*
X57401200Y-79888200D02*
X63909200Y-79888200D01*
X57449200Y-79848200D02*
X63861200Y-79848200D01*
X57499200Y-79808200D02*
X63811200Y-79808200D01*
X57549200Y-79768200D02*
X63761200Y-79768200D01*
X57601200Y-79728200D02*
X63709200Y-79728200D01*
X57655200Y-79688200D02*
X63655200Y-79688200D01*
X57710200Y-79648200D02*
X63600200Y-79648200D01*
X57766200Y-79608200D02*
X63544200Y-79608200D01*
X57825200Y-79568200D02*
X63485200Y-79568200D01*
X57885200Y-79528200D02*
X63425200Y-79528200D01*
X57946200Y-79488200D02*
X63364200Y-79488200D01*
X58010200Y-79448200D02*
X63300200Y-79448200D01*
X58076200Y-79408200D02*
X63234200Y-79408200D01*
X58145200Y-79368200D02*
X63165200Y-79368200D01*
X58216200Y-79328200D02*
X63094200Y-79328200D01*
X58290200Y-79288200D02*
X63020200Y-79288200D01*
X58366200Y-79248200D02*
X62944200Y-79248200D01*
X58446200Y-79208200D02*
X62864200Y-79208200D01*
X58530200Y-79168200D02*
X62780200Y-79168200D01*
X58618200Y-79128200D02*
X62692200Y-79128200D01*
X58711200Y-79088200D02*
X62599200Y-79088200D01*
X58809200Y-79048200D02*
X62501200Y-79048200D01*
X58913200Y-79008200D02*
X62397200Y-79008200D01*
X59025200Y-78968200D02*
X62285200Y-78968200D01*
X59145200Y-78928200D02*
X62165200Y-78928200D01*
X59277200Y-78888200D02*
X62033200Y-78888200D01*
X59425200Y-78848200D02*
X61885200Y-78848200D01*
X59593200Y-78808200D02*
X61717200Y-78808200D01*
X59793200Y-78768200D02*
X61517200Y-78768200D01*
X60056200Y-78728200D02*
X61254200Y-78728200D01*
X65775200Y-83809200D02*
G75*
G03*
X65775200Y-83809200I-5120000J0D01*
G01*
X79646000Y-51248000D02*
X79646000Y-69148000D01*
X79646000Y-69148000D02*
X84946000Y-69148000D01*
X81296000Y-51248000D02*
X79646000Y-51248000D01*
X84946000Y-51248000D02*
X83296000Y-51248000D01*
X84946000Y-69148000D02*
X84946000Y-51248000D01*
X81296000Y-51248000D02*
G75*
G03*
X83296000Y-51248000I1000000J0D01*
G01*
X74982400Y-46816000D02*
X77722400Y-46816000D01*
X74982400Y-46816000D02*
X74982400Y-36576000D01*
X77722400Y-46816000D02*
X77722400Y-36576000D01*
X74982400Y-36576000D02*
X77722400Y-36576000D01*
X84702400Y-36536000D02*
X80061400Y-36536000D01*
X84702400Y-36536000D02*
X84702400Y-46776000D01*
X83192400Y-36536000D02*
X83192400Y-46776000D01*
X80061400Y-36536000D02*
X80061400Y-46776000D01*
X84702400Y-39806000D02*
X83192400Y-39806000D01*
X84702400Y-43507000D02*
X83192400Y-43507000D01*
X84702400Y-46776000D02*
X80061400Y-46776000D01*
X66905200Y-46532800D02*
X66835200Y-46532800D01*
X69645200Y-46532800D02*
G75*
G03*
X69645200Y-46532800I-1370000J0D01*
G01*
X60467800Y-40660000D02*
X60467800Y-43260000D01*
X60467800Y-40660000D02*
X63127800Y-40660000D01*
X60467800Y-43260000D02*
X63127800Y-43260000D01*
X61797800Y-38060000D02*
X63127800Y-38060000D01*
X63127800Y-38060000D02*
X63127800Y-39390000D01*
X63127800Y-40660000D02*
X63127800Y-43260000D01*
X66243200Y-73875853D02*
X66243200Y-74535218D01*
X67993835Y-72125218D02*
G75*
G03*
X67993835Y-72125218I-1750635J0D01*
G01*
X74870000Y-76800400D02*
X74870000Y-76920400D01*
X74870000Y-76920400D02*
X77530000Y-76920400D01*
X76200000Y-74260400D02*
X77530000Y-74260400D01*
X77530000Y-74260400D02*
X77530000Y-75590400D01*
X77530000Y-76800400D02*
X77530000Y-76920400D01*
X69697600Y-72798001D02*
X69697600Y-72728001D01*
X71067600Y-74168001D02*
G75*
G03*
X71067600Y-74168001I-1370000J0D01*
G01*
X66243200Y-62903052D02*
X66243200Y-63562417D01*
X67993835Y-61152417D02*
G75*
G03*
X67993835Y-61152417I-1750635J0D01*
G01*
X58156800Y-56489600D02*
X58156800Y-61629600D01*
X58156800Y-56489600D02*
X60816800Y-56489600D01*
X58156800Y-61629600D02*
X60816800Y-61629600D01*
X59486800Y-53889600D02*
X60816800Y-53889600D01*
X60816800Y-53889600D02*
X60816800Y-55219600D01*
X60816800Y-56489600D02*
X60816800Y-61629600D01*
X92700800Y-67106800D02*
X92700800Y-69706800D01*
X92700800Y-67106800D02*
X95360800Y-67106800D01*
X92700800Y-69706800D02*
X95360800Y-69706800D01*
X94030800Y-64506800D02*
X95360800Y-64506800D01*
X95360800Y-64506800D02*
X95360800Y-65836800D01*
X95360800Y-67106800D02*
X95360800Y-69706800D01*
X66344800Y-51777852D02*
X66344800Y-52437217D01*
X68095435Y-50027217D02*
G75*
G03*
X68095435Y-50027217I-1750635J0D01*
G01*
X92599200Y-56388000D02*
X92599200Y-61528000D01*
X92599200Y-56388000D02*
X95259200Y-56388000D01*
X92599200Y-61528000D02*
X95259200Y-61528000D01*
X93929200Y-53788000D02*
X95259200Y-53788000D01*
X95259200Y-53788000D02*
X95259200Y-55118000D01*
X95259200Y-56388000D02*
X95259200Y-61528000D01*
X90422400Y-36576000D02*
X87682400Y-36576000D01*
X90422400Y-36576000D02*
X90422400Y-46816000D01*
X87682400Y-36576000D02*
X87682400Y-46816000D01*
X90422400Y-46816000D02*
X87682400Y-46816000D01*
%LPC*%
D13*
X69545200Y-63246000D03*
D14*
X69545200Y-60706000D03*
D13*
X68173600Y-68681601D03*
D14*
X65633600Y-68681601D03*
D15*
X87960600Y-86080200D03*
D16*
X85420600Y-86080200D03*
X82880600Y-86080200D03*
X80340600Y-86080200D03*
X77800600Y-86080200D03*
X75260600Y-86080200D03*
D13*
X68275200Y-57861200D03*
D14*
X65735200Y-57861200D03*
D15*
X94538800Y-86156800D03*
D17*
X96824800Y-94132400D03*
D13*
X69646800Y-52120800D03*
D14*
X69646800Y-49580800D03*
D18*
X60655200Y-86309200D03*
D19*
X60655200Y-81309200D03*
D20*
X78486000Y-52578000D03*
D14*
X78486000Y-55118000D03*
X78486000Y-57658000D03*
X78486000Y-60198000D03*
X78486000Y-62738000D03*
X78486000Y-65278000D03*
X78486000Y-67818000D03*
X86106000Y-67818000D03*
X86106000Y-65278000D03*
X86106000Y-62738000D03*
X86106000Y-60198000D03*
X86106000Y-57658000D03*
X86106000Y-55118000D03*
X86106000Y-52578000D03*
D13*
X76352400Y-44196000D03*
X76352400Y-39196000D03*
D17*
X56438800Y-93980000D03*
D21*
X81432400Y-39116000D03*
D22*
X81432400Y-41656000D03*
X81432400Y-44196000D03*
D13*
X68275200Y-46532800D03*
D14*
X65735200Y-46532800D03*
D15*
X61797800Y-39390000D03*
D16*
X61797800Y-41930000D03*
D23*
X66243200Y-72125218D03*
D24*
X66243200Y-75935218D03*
D15*
X76200000Y-75590400D03*
D13*
X69697600Y-74168001D03*
D14*
X69697600Y-71628001D03*
D17*
X55981600Y-32918400D03*
D23*
X66243200Y-61152417D03*
D24*
X66243200Y-64962417D03*
D15*
X59486800Y-55219600D03*
D16*
X59486800Y-57759600D03*
X59486800Y-60299600D03*
D15*
X94030800Y-65836800D03*
D16*
X94030800Y-68376800D03*
D23*
X66344800Y-50027217D03*
D24*
X66344800Y-53837217D03*
D17*
X97739200Y-32715200D03*
D15*
X93929200Y-55118000D03*
D16*
X93929200Y-57658000D03*
X93929200Y-60198000D03*
D13*
X89052400Y-39196000D03*
X89052400Y-44196000D03*
%LPD*%
M02*
