M48
; DRILL file {KiCad 7.0.7} date Fri Sep  8 10:26:24 2023
; FORMAT={-:-/ absolute / metric / decimal}
; #@! TF.CreationDate,2023-09-08T10:26:24-07:00
; #@! TF.GenerationSoftware,Kicad,Pcbnew,7.0.7
; #@! TF.FileFunction,Plated,1,2,PTH
FMAT,2
METRIC
; #@! TA.AperFunction,Plated,PTH,ComponentDrill
T1C0.800
; #@! TA.AperFunction,Plated,PTH,ComponentDrill
T2C1.000
; #@! TA.AperFunction,Plated,PTH,ComponentDrill
T3C1.100
%
G90
G05
T1
X65.634Y-68.682
X65.735Y-46.533
X65.735Y-57.861
X68.174Y-68.682
X68.275Y-46.533
X68.275Y-57.861
X69.545Y-60.706
X69.545Y-63.246
X69.647Y-49.581
X69.647Y-52.121
X69.698Y-71.628
X69.698Y-74.168
X76.352Y-39.196
X76.352Y-44.196
X78.486Y-52.578
X78.486Y-55.118
X78.486Y-57.658
X78.486Y-60.198
X78.486Y-62.738
X78.486Y-65.278
X78.486Y-67.818
X86.106Y-52.578
X86.106Y-55.118
X86.106Y-57.658
X86.106Y-60.198
X86.106Y-62.738
X86.106Y-65.278
X86.106Y-67.818
X89.052Y-39.196
X89.052Y-44.196
T2
X59.487Y-55.22
X59.487Y-57.76
X59.487Y-60.3
X60.655Y-81.309
X60.655Y-86.309
X61.798Y-39.39
X61.798Y-41.93
X75.261Y-86.08
X76.2Y-75.59
X77.801Y-86.08
X80.341Y-86.08
X82.881Y-86.08
X85.421Y-86.08
X87.961Y-86.08
X93.929Y-55.118
X93.929Y-57.658
X93.929Y-60.198
X94.031Y-65.837
X94.031Y-68.377
X94.539Y-86.157
T3
X66.243Y-61.152
X66.243Y-64.962
X66.243Y-72.125
X66.243Y-75.935
X66.345Y-50.027
X66.345Y-53.837
X81.432Y-39.116
X81.432Y-41.656
X81.432Y-44.196
T0
M30
