%TF.GenerationSoftware,KiCad,Pcbnew,7.0.7*%
%TF.CreationDate,2023-09-08T10:26:25-07:00*%
%TF.ProjectId,TailLights,5461696c-4c69-4676-9874-732e6b696361,rev?*%
%TF.SameCoordinates,Original*%
%TF.FileFunction,Drillmap*%
%TF.FilePolarity,Positive*%
%FSLAX45Y45*%
G04 Gerber Fmt 4.5, Leading zero omitted, Abs format (unit mm)*
G04 Created by KiCad (PCBNEW 7.0.7) date 2023-09-08 10:26:25*
%MOMM*%
%LPD*%
G01*
G04 APERTURE LIST*
%ADD10C,0.100000*%
%ADD11C,0.200000*%
%ADD12C,0.220000*%
G04 APERTURE END LIST*
D10*
X5273040Y-2951480D02*
X10093960Y-2951480D01*
X10093960Y-9748520D01*
X5273040Y-9748520D01*
X5273040Y-2951480D01*
D11*
D12*
X5488160Y-3181840D02*
X5708160Y-3401840D01*
X5708160Y-3181840D02*
X5488160Y-3401840D01*
X5533880Y-9288000D02*
X5753880Y-9508000D01*
X5753880Y-9288000D02*
X5533880Y-9508000D01*
X9572480Y-9303240D02*
X9792480Y-9523240D01*
X9792480Y-9303240D02*
X9572480Y-9523240D01*
X9663920Y-3161520D02*
X9883920Y-3381520D01*
X9883920Y-3161520D02*
X9663920Y-3381520D01*
D11*
X5528817Y-10065004D02*
X5528817Y-9865004D01*
X5528817Y-9865004D02*
X5576436Y-9865004D01*
X5576436Y-9865004D02*
X5605007Y-9874528D01*
X5605007Y-9874528D02*
X5624055Y-9893575D01*
X5624055Y-9893575D02*
X5633579Y-9912623D01*
X5633579Y-9912623D02*
X5643102Y-9950718D01*
X5643102Y-9950718D02*
X5643102Y-9979290D01*
X5643102Y-9979290D02*
X5633579Y-10017385D01*
X5633579Y-10017385D02*
X5624055Y-10036432D01*
X5624055Y-10036432D02*
X5605007Y-10055480D01*
X5605007Y-10055480D02*
X5576436Y-10065004D01*
X5576436Y-10065004D02*
X5528817Y-10065004D01*
X5728817Y-10065004D02*
X5728817Y-9931670D01*
X5728817Y-9969766D02*
X5738341Y-9950718D01*
X5738341Y-9950718D02*
X5747864Y-9941194D01*
X5747864Y-9941194D02*
X5766912Y-9931670D01*
X5766912Y-9931670D02*
X5785960Y-9931670D01*
X5852626Y-10065004D02*
X5852626Y-9931670D01*
X5852626Y-9865004D02*
X5843102Y-9874528D01*
X5843102Y-9874528D02*
X5852626Y-9884051D01*
X5852626Y-9884051D02*
X5862150Y-9874528D01*
X5862150Y-9874528D02*
X5852626Y-9865004D01*
X5852626Y-9865004D02*
X5852626Y-9884051D01*
X5976436Y-10065004D02*
X5957388Y-10055480D01*
X5957388Y-10055480D02*
X5947864Y-10036432D01*
X5947864Y-10036432D02*
X5947864Y-9865004D01*
X6081198Y-10065004D02*
X6062150Y-10055480D01*
X6062150Y-10055480D02*
X6052626Y-10036432D01*
X6052626Y-10036432D02*
X6052626Y-9865004D01*
X6309769Y-10065004D02*
X6309769Y-9865004D01*
X6309769Y-9865004D02*
X6376436Y-10007861D01*
X6376436Y-10007861D02*
X6443102Y-9865004D01*
X6443102Y-9865004D02*
X6443102Y-10065004D01*
X6624055Y-10065004D02*
X6624055Y-9960242D01*
X6624055Y-9960242D02*
X6614531Y-9941194D01*
X6614531Y-9941194D02*
X6595483Y-9931670D01*
X6595483Y-9931670D02*
X6557388Y-9931670D01*
X6557388Y-9931670D02*
X6538341Y-9941194D01*
X6624055Y-10055480D02*
X6605007Y-10065004D01*
X6605007Y-10065004D02*
X6557388Y-10065004D01*
X6557388Y-10065004D02*
X6538341Y-10055480D01*
X6538341Y-10055480D02*
X6528817Y-10036432D01*
X6528817Y-10036432D02*
X6528817Y-10017385D01*
X6528817Y-10017385D02*
X6538341Y-9998337D01*
X6538341Y-9998337D02*
X6557388Y-9988813D01*
X6557388Y-9988813D02*
X6605007Y-9988813D01*
X6605007Y-9988813D02*
X6624055Y-9979290D01*
X6719293Y-9931670D02*
X6719293Y-10131670D01*
X6719293Y-9941194D02*
X6738341Y-9931670D01*
X6738341Y-9931670D02*
X6776436Y-9931670D01*
X6776436Y-9931670D02*
X6795483Y-9941194D01*
X6795483Y-9941194D02*
X6805007Y-9950718D01*
X6805007Y-9950718D02*
X6814531Y-9969766D01*
X6814531Y-9969766D02*
X6814531Y-10026909D01*
X6814531Y-10026909D02*
X6805007Y-10045956D01*
X6805007Y-10045956D02*
X6795483Y-10055480D01*
X6795483Y-10055480D02*
X6776436Y-10065004D01*
X6776436Y-10065004D02*
X6738341Y-10065004D01*
X6738341Y-10065004D02*
X6719293Y-10055480D01*
X6900245Y-10045956D02*
X6909769Y-10055480D01*
X6909769Y-10055480D02*
X6900245Y-10065004D01*
X6900245Y-10065004D02*
X6890722Y-10055480D01*
X6890722Y-10055480D02*
X6900245Y-10045956D01*
X6900245Y-10045956D02*
X6900245Y-10065004D01*
X6900245Y-9941194D02*
X6909769Y-9950718D01*
X6909769Y-9950718D02*
X6900245Y-9960242D01*
X6900245Y-9960242D02*
X6890722Y-9950718D01*
X6890722Y-9950718D02*
X6900245Y-9941194D01*
X6900245Y-9941194D02*
X6900245Y-9960242D01*
X5068040Y-10293520D02*
X5268040Y-10493520D01*
X5268040Y-10293520D02*
X5068040Y-10493520D01*
X5519293Y-10304051D02*
X5528817Y-10294528D01*
X5528817Y-10294528D02*
X5547864Y-10285004D01*
X5547864Y-10285004D02*
X5595483Y-10285004D01*
X5595483Y-10285004D02*
X5614531Y-10294528D01*
X5614531Y-10294528D02*
X5624055Y-10304051D01*
X5624055Y-10304051D02*
X5633579Y-10323099D01*
X5633579Y-10323099D02*
X5633579Y-10342147D01*
X5633579Y-10342147D02*
X5624055Y-10370718D01*
X5624055Y-10370718D02*
X5509769Y-10485004D01*
X5509769Y-10485004D02*
X5633579Y-10485004D01*
X5719293Y-10465956D02*
X5728817Y-10475480D01*
X5728817Y-10475480D02*
X5719293Y-10485004D01*
X5719293Y-10485004D02*
X5709769Y-10475480D01*
X5709769Y-10475480D02*
X5719293Y-10465956D01*
X5719293Y-10465956D02*
X5719293Y-10485004D01*
X5805007Y-10304051D02*
X5814531Y-10294528D01*
X5814531Y-10294528D02*
X5833579Y-10285004D01*
X5833579Y-10285004D02*
X5881198Y-10285004D01*
X5881198Y-10285004D02*
X5900245Y-10294528D01*
X5900245Y-10294528D02*
X5909769Y-10304051D01*
X5909769Y-10304051D02*
X5919293Y-10323099D01*
X5919293Y-10323099D02*
X5919293Y-10342147D01*
X5919293Y-10342147D02*
X5909769Y-10370718D01*
X5909769Y-10370718D02*
X5795483Y-10485004D01*
X5795483Y-10485004D02*
X5919293Y-10485004D01*
X6043102Y-10285004D02*
X6062150Y-10285004D01*
X6062150Y-10285004D02*
X6081198Y-10294528D01*
X6081198Y-10294528D02*
X6090722Y-10304051D01*
X6090722Y-10304051D02*
X6100245Y-10323099D01*
X6100245Y-10323099D02*
X6109769Y-10361194D01*
X6109769Y-10361194D02*
X6109769Y-10408813D01*
X6109769Y-10408813D02*
X6100245Y-10446909D01*
X6100245Y-10446909D02*
X6090722Y-10465956D01*
X6090722Y-10465956D02*
X6081198Y-10475480D01*
X6081198Y-10475480D02*
X6062150Y-10485004D01*
X6062150Y-10485004D02*
X6043102Y-10485004D01*
X6043102Y-10485004D02*
X6024055Y-10475480D01*
X6024055Y-10475480D02*
X6014531Y-10465956D01*
X6014531Y-10465956D02*
X6005007Y-10446909D01*
X6005007Y-10446909D02*
X5995483Y-10408813D01*
X5995483Y-10408813D02*
X5995483Y-10361194D01*
X5995483Y-10361194D02*
X6005007Y-10323099D01*
X6005007Y-10323099D02*
X6014531Y-10304051D01*
X6014531Y-10304051D02*
X6024055Y-10294528D01*
X6024055Y-10294528D02*
X6043102Y-10285004D01*
X6233579Y-10285004D02*
X6252626Y-10285004D01*
X6252626Y-10285004D02*
X6271674Y-10294528D01*
X6271674Y-10294528D02*
X6281198Y-10304051D01*
X6281198Y-10304051D02*
X6290722Y-10323099D01*
X6290722Y-10323099D02*
X6300245Y-10361194D01*
X6300245Y-10361194D02*
X6300245Y-10408813D01*
X6300245Y-10408813D02*
X6290722Y-10446909D01*
X6290722Y-10446909D02*
X6281198Y-10465956D01*
X6281198Y-10465956D02*
X6271674Y-10475480D01*
X6271674Y-10475480D02*
X6252626Y-10485004D01*
X6252626Y-10485004D02*
X6233579Y-10485004D01*
X6233579Y-10485004D02*
X6214531Y-10475480D01*
X6214531Y-10475480D02*
X6205007Y-10465956D01*
X6205007Y-10465956D02*
X6195483Y-10446909D01*
X6195483Y-10446909D02*
X6185960Y-10408813D01*
X6185960Y-10408813D02*
X6185960Y-10361194D01*
X6185960Y-10361194D02*
X6195483Y-10323099D01*
X6195483Y-10323099D02*
X6205007Y-10304051D01*
X6205007Y-10304051D02*
X6214531Y-10294528D01*
X6214531Y-10294528D02*
X6233579Y-10285004D01*
X6385960Y-10485004D02*
X6385960Y-10351670D01*
X6385960Y-10370718D02*
X6395483Y-10361194D01*
X6395483Y-10361194D02*
X6414531Y-10351670D01*
X6414531Y-10351670D02*
X6443103Y-10351670D01*
X6443103Y-10351670D02*
X6462150Y-10361194D01*
X6462150Y-10361194D02*
X6471674Y-10380242D01*
X6471674Y-10380242D02*
X6471674Y-10485004D01*
X6471674Y-10380242D02*
X6481198Y-10361194D01*
X6481198Y-10361194D02*
X6500245Y-10351670D01*
X6500245Y-10351670D02*
X6528817Y-10351670D01*
X6528817Y-10351670D02*
X6547864Y-10361194D01*
X6547864Y-10361194D02*
X6557388Y-10380242D01*
X6557388Y-10380242D02*
X6557388Y-10485004D01*
X6652626Y-10485004D02*
X6652626Y-10351670D01*
X6652626Y-10370718D02*
X6662150Y-10361194D01*
X6662150Y-10361194D02*
X6681198Y-10351670D01*
X6681198Y-10351670D02*
X6709769Y-10351670D01*
X6709769Y-10351670D02*
X6728817Y-10361194D01*
X6728817Y-10361194D02*
X6738341Y-10380242D01*
X6738341Y-10380242D02*
X6738341Y-10485004D01*
X6738341Y-10380242D02*
X6747864Y-10361194D01*
X6747864Y-10361194D02*
X6766912Y-10351670D01*
X6766912Y-10351670D02*
X6795483Y-10351670D01*
X6795483Y-10351670D02*
X6814531Y-10361194D01*
X6814531Y-10361194D02*
X6824055Y-10380242D01*
X6824055Y-10380242D02*
X6824055Y-10485004D01*
X7214531Y-10275480D02*
X7043103Y-10532623D01*
X7471674Y-10285004D02*
X7490722Y-10285004D01*
X7490722Y-10285004D02*
X7509769Y-10294528D01*
X7509769Y-10294528D02*
X7519293Y-10304051D01*
X7519293Y-10304051D02*
X7528817Y-10323099D01*
X7528817Y-10323099D02*
X7538341Y-10361194D01*
X7538341Y-10361194D02*
X7538341Y-10408813D01*
X7538341Y-10408813D02*
X7528817Y-10446909D01*
X7528817Y-10446909D02*
X7519293Y-10465956D01*
X7519293Y-10465956D02*
X7509769Y-10475480D01*
X7509769Y-10475480D02*
X7490722Y-10485004D01*
X7490722Y-10485004D02*
X7471674Y-10485004D01*
X7471674Y-10485004D02*
X7452626Y-10475480D01*
X7452626Y-10475480D02*
X7443103Y-10465956D01*
X7443103Y-10465956D02*
X7433579Y-10446909D01*
X7433579Y-10446909D02*
X7424055Y-10408813D01*
X7424055Y-10408813D02*
X7424055Y-10361194D01*
X7424055Y-10361194D02*
X7433579Y-10323099D01*
X7433579Y-10323099D02*
X7443103Y-10304051D01*
X7443103Y-10304051D02*
X7452626Y-10294528D01*
X7452626Y-10294528D02*
X7471674Y-10285004D01*
X7624055Y-10465956D02*
X7633579Y-10475480D01*
X7633579Y-10475480D02*
X7624055Y-10485004D01*
X7624055Y-10485004D02*
X7614531Y-10475480D01*
X7614531Y-10475480D02*
X7624055Y-10465956D01*
X7624055Y-10465956D02*
X7624055Y-10485004D01*
X7757388Y-10285004D02*
X7776436Y-10285004D01*
X7776436Y-10285004D02*
X7795484Y-10294528D01*
X7795484Y-10294528D02*
X7805007Y-10304051D01*
X7805007Y-10304051D02*
X7814531Y-10323099D01*
X7814531Y-10323099D02*
X7824055Y-10361194D01*
X7824055Y-10361194D02*
X7824055Y-10408813D01*
X7824055Y-10408813D02*
X7814531Y-10446909D01*
X7814531Y-10446909D02*
X7805007Y-10465956D01*
X7805007Y-10465956D02*
X7795484Y-10475480D01*
X7795484Y-10475480D02*
X7776436Y-10485004D01*
X7776436Y-10485004D02*
X7757388Y-10485004D01*
X7757388Y-10485004D02*
X7738341Y-10475480D01*
X7738341Y-10475480D02*
X7728817Y-10465956D01*
X7728817Y-10465956D02*
X7719293Y-10446909D01*
X7719293Y-10446909D02*
X7709769Y-10408813D01*
X7709769Y-10408813D02*
X7709769Y-10361194D01*
X7709769Y-10361194D02*
X7719293Y-10323099D01*
X7719293Y-10323099D02*
X7728817Y-10304051D01*
X7728817Y-10304051D02*
X7738341Y-10294528D01*
X7738341Y-10294528D02*
X7757388Y-10285004D01*
X7938341Y-10370718D02*
X7919293Y-10361194D01*
X7919293Y-10361194D02*
X7909769Y-10351670D01*
X7909769Y-10351670D02*
X7900246Y-10332623D01*
X7900246Y-10332623D02*
X7900246Y-10323099D01*
X7900246Y-10323099D02*
X7909769Y-10304051D01*
X7909769Y-10304051D02*
X7919293Y-10294528D01*
X7919293Y-10294528D02*
X7938341Y-10285004D01*
X7938341Y-10285004D02*
X7976436Y-10285004D01*
X7976436Y-10285004D02*
X7995484Y-10294528D01*
X7995484Y-10294528D02*
X8005007Y-10304051D01*
X8005007Y-10304051D02*
X8014531Y-10323099D01*
X8014531Y-10323099D02*
X8014531Y-10332623D01*
X8014531Y-10332623D02*
X8005007Y-10351670D01*
X8005007Y-10351670D02*
X7995484Y-10361194D01*
X7995484Y-10361194D02*
X7976436Y-10370718D01*
X7976436Y-10370718D02*
X7938341Y-10370718D01*
X7938341Y-10370718D02*
X7919293Y-10380242D01*
X7919293Y-10380242D02*
X7909769Y-10389766D01*
X7909769Y-10389766D02*
X7900246Y-10408813D01*
X7900246Y-10408813D02*
X7900246Y-10446909D01*
X7900246Y-10446909D02*
X7909769Y-10465956D01*
X7909769Y-10465956D02*
X7919293Y-10475480D01*
X7919293Y-10475480D02*
X7938341Y-10485004D01*
X7938341Y-10485004D02*
X7976436Y-10485004D01*
X7976436Y-10485004D02*
X7995484Y-10475480D01*
X7995484Y-10475480D02*
X8005007Y-10465956D01*
X8005007Y-10465956D02*
X8014531Y-10446909D01*
X8014531Y-10446909D02*
X8014531Y-10408813D01*
X8014531Y-10408813D02*
X8005007Y-10389766D01*
X8005007Y-10389766D02*
X7995484Y-10380242D01*
X7995484Y-10380242D02*
X7976436Y-10370718D01*
X8185960Y-10285004D02*
X8147865Y-10285004D01*
X8147865Y-10285004D02*
X8128817Y-10294528D01*
X8128817Y-10294528D02*
X8119293Y-10304051D01*
X8119293Y-10304051D02*
X8100246Y-10332623D01*
X8100246Y-10332623D02*
X8090722Y-10370718D01*
X8090722Y-10370718D02*
X8090722Y-10446909D01*
X8090722Y-10446909D02*
X8100246Y-10465956D01*
X8100246Y-10465956D02*
X8109769Y-10475480D01*
X8109769Y-10475480D02*
X8128817Y-10485004D01*
X8128817Y-10485004D02*
X8166912Y-10485004D01*
X8166912Y-10485004D02*
X8185960Y-10475480D01*
X8185960Y-10475480D02*
X8195484Y-10465956D01*
X8195484Y-10465956D02*
X8205007Y-10446909D01*
X8205007Y-10446909D02*
X8205007Y-10399290D01*
X8205007Y-10399290D02*
X8195484Y-10380242D01*
X8195484Y-10380242D02*
X8185960Y-10370718D01*
X8185960Y-10370718D02*
X8166912Y-10361194D01*
X8166912Y-10361194D02*
X8128817Y-10361194D01*
X8128817Y-10361194D02*
X8109769Y-10370718D01*
X8109769Y-10370718D02*
X8100246Y-10380242D01*
X8100246Y-10380242D02*
X8090722Y-10399290D01*
X8376436Y-10285004D02*
X8338341Y-10285004D01*
X8338341Y-10285004D02*
X8319293Y-10294528D01*
X8319293Y-10294528D02*
X8309769Y-10304051D01*
X8309769Y-10304051D02*
X8290722Y-10332623D01*
X8290722Y-10332623D02*
X8281198Y-10370718D01*
X8281198Y-10370718D02*
X8281198Y-10446909D01*
X8281198Y-10446909D02*
X8290722Y-10465956D01*
X8290722Y-10465956D02*
X8300246Y-10475480D01*
X8300246Y-10475480D02*
X8319293Y-10485004D01*
X8319293Y-10485004D02*
X8357388Y-10485004D01*
X8357388Y-10485004D02*
X8376436Y-10475480D01*
X8376436Y-10475480D02*
X8385960Y-10465956D01*
X8385960Y-10465956D02*
X8395484Y-10446909D01*
X8395484Y-10446909D02*
X8395484Y-10399290D01*
X8395484Y-10399290D02*
X8385960Y-10380242D01*
X8385960Y-10380242D02*
X8376436Y-10370718D01*
X8376436Y-10370718D02*
X8357388Y-10361194D01*
X8357388Y-10361194D02*
X8319293Y-10361194D01*
X8319293Y-10361194D02*
X8300246Y-10370718D01*
X8300246Y-10370718D02*
X8290722Y-10380242D01*
X8290722Y-10380242D02*
X8281198Y-10399290D01*
X8471674Y-10285004D02*
X8471674Y-10323099D01*
X8547865Y-10285004D02*
X8547865Y-10323099D01*
X8843103Y-10561194D02*
X8833579Y-10551670D01*
X8833579Y-10551670D02*
X8814531Y-10523099D01*
X8814531Y-10523099D02*
X8805008Y-10504051D01*
X8805008Y-10504051D02*
X8795484Y-10475480D01*
X8795484Y-10475480D02*
X8785960Y-10427861D01*
X8785960Y-10427861D02*
X8785960Y-10389766D01*
X8785960Y-10389766D02*
X8795484Y-10342147D01*
X8795484Y-10342147D02*
X8805008Y-10313575D01*
X8805008Y-10313575D02*
X8814531Y-10294528D01*
X8814531Y-10294528D02*
X8833579Y-10265956D01*
X8833579Y-10265956D02*
X8843103Y-10256432D01*
X9005008Y-10351670D02*
X9005008Y-10485004D01*
X8957389Y-10275480D02*
X8909770Y-10418337D01*
X8909770Y-10418337D02*
X9033579Y-10418337D01*
X9262151Y-10485004D02*
X9262151Y-10285004D01*
X9347865Y-10485004D02*
X9347865Y-10380242D01*
X9347865Y-10380242D02*
X9338341Y-10361194D01*
X9338341Y-10361194D02*
X9319293Y-10351670D01*
X9319293Y-10351670D02*
X9290722Y-10351670D01*
X9290722Y-10351670D02*
X9271674Y-10361194D01*
X9271674Y-10361194D02*
X9262151Y-10370718D01*
X9471674Y-10485004D02*
X9452627Y-10475480D01*
X9452627Y-10475480D02*
X9443103Y-10465956D01*
X9443103Y-10465956D02*
X9433579Y-10446909D01*
X9433579Y-10446909D02*
X9433579Y-10389766D01*
X9433579Y-10389766D02*
X9443103Y-10370718D01*
X9443103Y-10370718D02*
X9452627Y-10361194D01*
X9452627Y-10361194D02*
X9471674Y-10351670D01*
X9471674Y-10351670D02*
X9500246Y-10351670D01*
X9500246Y-10351670D02*
X9519293Y-10361194D01*
X9519293Y-10361194D02*
X9528817Y-10370718D01*
X9528817Y-10370718D02*
X9538341Y-10389766D01*
X9538341Y-10389766D02*
X9538341Y-10446909D01*
X9538341Y-10446909D02*
X9528817Y-10465956D01*
X9528817Y-10465956D02*
X9519293Y-10475480D01*
X9519293Y-10475480D02*
X9500246Y-10485004D01*
X9500246Y-10485004D02*
X9471674Y-10485004D01*
X9652627Y-10485004D02*
X9633579Y-10475480D01*
X9633579Y-10475480D02*
X9624055Y-10456432D01*
X9624055Y-10456432D02*
X9624055Y-10285004D01*
X9805008Y-10475480D02*
X9785960Y-10485004D01*
X9785960Y-10485004D02*
X9747865Y-10485004D01*
X9747865Y-10485004D02*
X9728817Y-10475480D01*
X9728817Y-10475480D02*
X9719293Y-10456432D01*
X9719293Y-10456432D02*
X9719293Y-10380242D01*
X9719293Y-10380242D02*
X9728817Y-10361194D01*
X9728817Y-10361194D02*
X9747865Y-10351670D01*
X9747865Y-10351670D02*
X9785960Y-10351670D01*
X9785960Y-10351670D02*
X9805008Y-10361194D01*
X9805008Y-10361194D02*
X9814532Y-10380242D01*
X9814532Y-10380242D02*
X9814532Y-10399290D01*
X9814532Y-10399290D02*
X9719293Y-10418337D01*
X9890722Y-10475480D02*
X9909770Y-10485004D01*
X9909770Y-10485004D02*
X9947865Y-10485004D01*
X9947865Y-10485004D02*
X9966913Y-10475480D01*
X9966913Y-10475480D02*
X9976436Y-10456432D01*
X9976436Y-10456432D02*
X9976436Y-10446909D01*
X9976436Y-10446909D02*
X9966913Y-10427861D01*
X9966913Y-10427861D02*
X9947865Y-10418337D01*
X9947865Y-10418337D02*
X9919293Y-10418337D01*
X9919293Y-10418337D02*
X9900246Y-10408813D01*
X9900246Y-10408813D02*
X9890722Y-10389766D01*
X9890722Y-10389766D02*
X9890722Y-10380242D01*
X9890722Y-10380242D02*
X9900246Y-10361194D01*
X9900246Y-10361194D02*
X9919293Y-10351670D01*
X9919293Y-10351670D02*
X9947865Y-10351670D01*
X9947865Y-10351670D02*
X9966913Y-10361194D01*
X10043103Y-10561194D02*
X10052627Y-10551670D01*
X10052627Y-10551670D02*
X10071674Y-10523099D01*
X10071674Y-10523099D02*
X10081198Y-10504051D01*
X10081198Y-10504051D02*
X10090722Y-10475480D01*
X10090722Y-10475480D02*
X10100246Y-10427861D01*
X10100246Y-10427861D02*
X10100246Y-10389766D01*
X10100246Y-10389766D02*
X10090722Y-10342147D01*
X10090722Y-10342147D02*
X10081198Y-10313575D01*
X10081198Y-10313575D02*
X10071674Y-10294528D01*
X10071674Y-10294528D02*
X10052627Y-10265956D01*
X10052627Y-10265956D02*
X10043103Y-10256432D01*
X10405008Y-10561194D02*
X10395484Y-10551670D01*
X10395484Y-10551670D02*
X10376436Y-10523099D01*
X10376436Y-10523099D02*
X10366913Y-10504051D01*
X10366913Y-10504051D02*
X10357389Y-10475480D01*
X10357389Y-10475480D02*
X10347865Y-10427861D01*
X10347865Y-10427861D02*
X10347865Y-10389766D01*
X10347865Y-10389766D02*
X10357389Y-10342147D01*
X10357389Y-10342147D02*
X10366913Y-10313575D01*
X10366913Y-10313575D02*
X10376436Y-10294528D01*
X10376436Y-10294528D02*
X10395484Y-10265956D01*
X10395484Y-10265956D02*
X10405008Y-10256432D01*
X10481198Y-10351670D02*
X10481198Y-10485004D01*
X10481198Y-10370718D02*
X10490722Y-10361194D01*
X10490722Y-10361194D02*
X10509770Y-10351670D01*
X10509770Y-10351670D02*
X10538341Y-10351670D01*
X10538341Y-10351670D02*
X10557389Y-10361194D01*
X10557389Y-10361194D02*
X10566913Y-10380242D01*
X10566913Y-10380242D02*
X10566913Y-10485004D01*
X10690722Y-10485004D02*
X10671674Y-10475480D01*
X10671674Y-10475480D02*
X10662151Y-10465956D01*
X10662151Y-10465956D02*
X10652627Y-10446909D01*
X10652627Y-10446909D02*
X10652627Y-10389766D01*
X10652627Y-10389766D02*
X10662151Y-10370718D01*
X10662151Y-10370718D02*
X10671674Y-10361194D01*
X10671674Y-10361194D02*
X10690722Y-10351670D01*
X10690722Y-10351670D02*
X10719294Y-10351670D01*
X10719294Y-10351670D02*
X10738341Y-10361194D01*
X10738341Y-10361194D02*
X10747865Y-10370718D01*
X10747865Y-10370718D02*
X10757389Y-10389766D01*
X10757389Y-10389766D02*
X10757389Y-10446909D01*
X10757389Y-10446909D02*
X10747865Y-10465956D01*
X10747865Y-10465956D02*
X10738341Y-10475480D01*
X10738341Y-10475480D02*
X10719294Y-10485004D01*
X10719294Y-10485004D02*
X10690722Y-10485004D01*
X10814532Y-10351670D02*
X10890722Y-10351670D01*
X10843103Y-10285004D02*
X10843103Y-10456432D01*
X10843103Y-10456432D02*
X10852627Y-10475480D01*
X10852627Y-10475480D02*
X10871674Y-10485004D01*
X10871674Y-10485004D02*
X10890722Y-10485004D01*
X11109770Y-10351670D02*
X11109770Y-10551670D01*
X11109770Y-10361194D02*
X11128817Y-10351670D01*
X11128817Y-10351670D02*
X11166913Y-10351670D01*
X11166913Y-10351670D02*
X11185960Y-10361194D01*
X11185960Y-10361194D02*
X11195484Y-10370718D01*
X11195484Y-10370718D02*
X11205008Y-10389766D01*
X11205008Y-10389766D02*
X11205008Y-10446909D01*
X11205008Y-10446909D02*
X11195484Y-10465956D01*
X11195484Y-10465956D02*
X11185960Y-10475480D01*
X11185960Y-10475480D02*
X11166913Y-10485004D01*
X11166913Y-10485004D02*
X11128817Y-10485004D01*
X11128817Y-10485004D02*
X11109770Y-10475480D01*
X11319293Y-10485004D02*
X11300246Y-10475480D01*
X11300246Y-10475480D02*
X11290722Y-10456432D01*
X11290722Y-10456432D02*
X11290722Y-10285004D01*
X11481198Y-10485004D02*
X11481198Y-10380242D01*
X11481198Y-10380242D02*
X11471674Y-10361194D01*
X11471674Y-10361194D02*
X11452627Y-10351670D01*
X11452627Y-10351670D02*
X11414532Y-10351670D01*
X11414532Y-10351670D02*
X11395484Y-10361194D01*
X11481198Y-10475480D02*
X11462151Y-10485004D01*
X11462151Y-10485004D02*
X11414532Y-10485004D01*
X11414532Y-10485004D02*
X11395484Y-10475480D01*
X11395484Y-10475480D02*
X11385960Y-10456432D01*
X11385960Y-10456432D02*
X11385960Y-10437385D01*
X11385960Y-10437385D02*
X11395484Y-10418337D01*
X11395484Y-10418337D02*
X11414532Y-10408813D01*
X11414532Y-10408813D02*
X11462151Y-10408813D01*
X11462151Y-10408813D02*
X11481198Y-10399290D01*
X11547865Y-10351670D02*
X11624055Y-10351670D01*
X11576436Y-10285004D02*
X11576436Y-10456432D01*
X11576436Y-10456432D02*
X11585960Y-10475480D01*
X11585960Y-10475480D02*
X11605008Y-10485004D01*
X11605008Y-10485004D02*
X11624055Y-10485004D01*
X11766913Y-10475480D02*
X11747865Y-10485004D01*
X11747865Y-10485004D02*
X11709770Y-10485004D01*
X11709770Y-10485004D02*
X11690722Y-10475480D01*
X11690722Y-10475480D02*
X11681198Y-10456432D01*
X11681198Y-10456432D02*
X11681198Y-10380242D01*
X11681198Y-10380242D02*
X11690722Y-10361194D01*
X11690722Y-10361194D02*
X11709770Y-10351670D01*
X11709770Y-10351670D02*
X11747865Y-10351670D01*
X11747865Y-10351670D02*
X11766913Y-10361194D01*
X11766913Y-10361194D02*
X11776436Y-10380242D01*
X11776436Y-10380242D02*
X11776436Y-10399290D01*
X11776436Y-10399290D02*
X11681198Y-10418337D01*
X11947865Y-10485004D02*
X11947865Y-10285004D01*
X11947865Y-10475480D02*
X11928817Y-10485004D01*
X11928817Y-10485004D02*
X11890722Y-10485004D01*
X11890722Y-10485004D02*
X11871674Y-10475480D01*
X11871674Y-10475480D02*
X11862151Y-10465956D01*
X11862151Y-10465956D02*
X11852627Y-10446909D01*
X11852627Y-10446909D02*
X11852627Y-10389766D01*
X11852627Y-10389766D02*
X11862151Y-10370718D01*
X11862151Y-10370718D02*
X11871674Y-10361194D01*
X11871674Y-10361194D02*
X11890722Y-10351670D01*
X11890722Y-10351670D02*
X11928817Y-10351670D01*
X11928817Y-10351670D02*
X11947865Y-10361194D01*
X12024055Y-10561194D02*
X12033579Y-10551670D01*
X12033579Y-10551670D02*
X12052627Y-10523099D01*
X12052627Y-10523099D02*
X12062151Y-10504051D01*
X12062151Y-10504051D02*
X12071674Y-10475480D01*
X12071674Y-10475480D02*
X12081198Y-10427861D01*
X12081198Y-10427861D02*
X12081198Y-10389766D01*
X12081198Y-10389766D02*
X12071674Y-10342147D01*
X12071674Y-10342147D02*
X12062151Y-10313575D01*
X12062151Y-10313575D02*
X12052627Y-10294528D01*
X12052627Y-10294528D02*
X12033579Y-10265956D01*
X12033579Y-10265956D02*
X12024055Y-10256432D01*
M02*
