G04 #@! TF.GenerationSoftware,KiCad,Pcbnew,7.0.7*
G04 #@! TF.CreationDate,2023-09-08T10:26:21-07:00*
G04 #@! TF.ProjectId,TailLights,5461696c-4c69-4676-9874-732e6b696361,rev?*
G04 #@! TF.SameCoordinates,Original*
G04 #@! TF.FileFunction,Copper,L2,Bot*
G04 #@! TF.FilePolarity,Positive*
%FSLAX46Y46*%
G04 Gerber Fmt 4.6, Leading zero omitted, Abs format (unit mm)*
G04 Created by KiCad (PCBNEW 7.0.7) date 2023-09-08 10:26:21*
%MOMM*%
%LPD*%
G01*
G04 APERTURE LIST*
G04 #@! TA.AperFunction,ComponentPad*
%ADD10C,1.600000*%
G04 #@! TD*
G04 #@! TA.AperFunction,ComponentPad*
%ADD11O,1.600000X1.600000*%
G04 #@! TD*
G04 #@! TA.AperFunction,ComponentPad*
%ADD12R,1.700000X1.700000*%
G04 #@! TD*
G04 #@! TA.AperFunction,ComponentPad*
%ADD13O,1.700000X1.700000*%
G04 #@! TD*
G04 #@! TA.AperFunction,ComponentPad*
%ADD14R,2.000000X2.000000*%
G04 #@! TD*
G04 #@! TA.AperFunction,ComponentPad*
%ADD15C,2.000000*%
G04 #@! TD*
G04 #@! TA.AperFunction,ComponentPad*
%ADD16R,1.600000X1.600000*%
G04 #@! TD*
G04 #@! TA.AperFunction,ComponentPad*
%ADD17R,2.000000X1.905000*%
G04 #@! TD*
G04 #@! TA.AperFunction,ComponentPad*
%ADD18O,2.000000X1.905000*%
G04 #@! TD*
G04 #@! TA.AperFunction,ComponentPad*
%ADD19R,2.200000X2.200000*%
G04 #@! TD*
G04 #@! TA.AperFunction,ComponentPad*
%ADD20O,2.200000X2.200000*%
G04 #@! TD*
G04 #@! TA.AperFunction,Conductor*
%ADD21C,1.000000*%
G04 #@! TD*
G04 #@! TA.AperFunction,Conductor*
%ADD22C,2.000000*%
G04 #@! TD*
G04 #@! TA.AperFunction,Conductor*
%ADD23C,1.500000*%
G04 #@! TD*
G04 APERTURE END LIST*
D10*
X69545200Y-63246000D03*
D11*
X69545200Y-60706000D03*
D10*
X68173600Y-68681601D03*
D11*
X65633600Y-68681601D03*
D12*
X87960600Y-86080200D03*
D13*
X85420600Y-86080200D03*
X82880600Y-86080200D03*
X80340600Y-86080200D03*
X77800600Y-86080200D03*
X75260600Y-86080200D03*
D10*
X68275200Y-57861200D03*
D11*
X65735200Y-57861200D03*
D12*
X94538800Y-86156800D03*
D10*
X69646800Y-52120800D03*
D11*
X69646800Y-49580800D03*
D14*
X60655200Y-86309200D03*
D15*
X60655200Y-81309200D03*
D16*
X78486000Y-52578000D03*
D11*
X78486000Y-55118000D03*
X78486000Y-57658000D03*
X78486000Y-60198000D03*
X78486000Y-62738000D03*
X78486000Y-65278000D03*
X78486000Y-67818000D03*
X86106000Y-67818000D03*
X86106000Y-65278000D03*
X86106000Y-62738000D03*
X86106000Y-60198000D03*
X86106000Y-57658000D03*
X86106000Y-55118000D03*
X86106000Y-52578000D03*
D10*
X76352400Y-44196000D03*
X76352400Y-39196000D03*
D17*
X81432400Y-39116000D03*
D18*
X81432400Y-41656000D03*
X81432400Y-44196000D03*
D10*
X68275200Y-46532800D03*
D11*
X65735200Y-46532800D03*
D12*
X61797800Y-39390000D03*
D13*
X61797800Y-41930000D03*
D19*
X66243200Y-72125218D03*
D20*
X66243200Y-75935218D03*
D12*
X76200000Y-75590400D03*
D10*
X69697600Y-74168001D03*
D11*
X69697600Y-71628001D03*
D19*
X66243200Y-61152417D03*
D20*
X66243200Y-64962417D03*
D12*
X59486800Y-55219600D03*
D13*
X59486800Y-57759600D03*
X59486800Y-60299600D03*
D12*
X94030800Y-65836800D03*
D13*
X94030800Y-68376800D03*
D19*
X66344800Y-50027217D03*
D20*
X66344800Y-53837217D03*
D12*
X93929200Y-55118000D03*
D13*
X93929200Y-57658000D03*
X93929200Y-60198000D03*
D10*
X89052400Y-39196000D03*
X89052400Y-44196000D03*
D21*
X81512400Y-39196000D02*
X81432400Y-39116000D01*
D22*
X71201600Y-39390000D02*
X61797800Y-39390000D01*
X74218800Y-36372800D02*
X71201600Y-39390000D01*
X81432400Y-39116000D02*
X78689200Y-36372800D01*
X89052400Y-39196000D02*
X81512400Y-39196000D01*
X97840800Y-47984400D02*
X89052400Y-39196000D01*
X78689200Y-36372800D02*
X74218800Y-36372800D01*
X97840800Y-62026800D02*
X97840800Y-47984400D01*
X94030800Y-65836800D02*
X97840800Y-62026800D01*
D21*
X78486000Y-52578000D02*
X78486000Y-46329600D01*
X78486000Y-46329600D02*
X76352400Y-44196000D01*
X81432400Y-44196000D02*
X76352400Y-44196000D01*
D23*
X68529200Y-86309200D02*
X72542400Y-82296000D01*
X75031600Y-82296000D02*
X77800600Y-85065000D01*
X72542400Y-82296000D02*
X75031600Y-82296000D01*
X77800600Y-85065000D02*
X77800600Y-86080200D01*
X60655200Y-86309200D02*
X68529200Y-86309200D01*
D21*
X77354630Y-55118000D02*
X71817430Y-49580800D01*
D22*
X68275200Y-46532800D02*
X68275200Y-48209200D01*
X66344800Y-50027217D02*
X68275200Y-48096817D01*
X68275200Y-48096817D02*
X68275200Y-46532800D01*
X68275200Y-48209200D02*
X69646800Y-49580800D01*
D21*
X78486000Y-55118000D02*
X77354630Y-55118000D01*
X71817430Y-49580800D02*
X69646800Y-49580800D01*
D22*
X66243200Y-61152417D02*
X68275200Y-59120417D01*
D21*
X72593200Y-57658000D02*
X69545200Y-60706000D01*
D22*
X68275200Y-59120417D02*
X68275200Y-57861200D01*
X68275200Y-57861200D02*
X68275200Y-59436000D01*
X68275200Y-59436000D02*
X69545200Y-60706000D01*
D21*
X78486000Y-57658000D02*
X72593200Y-57658000D01*
X78486000Y-62738000D02*
X74117201Y-62738000D01*
D22*
X69697600Y-70205601D02*
X68173600Y-68681601D01*
X69697600Y-71628001D02*
X69697600Y-70205601D01*
D21*
X74117201Y-62738000D02*
X68173600Y-68681601D01*
D22*
X66243200Y-72125218D02*
X68173600Y-70194818D01*
X68173600Y-70194818D02*
X68173600Y-68681601D01*
D23*
X59486800Y-52781200D02*
X65735200Y-46532800D01*
X59486800Y-55219600D02*
X59486800Y-52781200D01*
D21*
X65633600Y-57759600D02*
X65735200Y-57861200D01*
D23*
X59486800Y-57759600D02*
X65633600Y-57759600D01*
X63093600Y-67716400D02*
X64058801Y-68681601D01*
X64058801Y-68681601D02*
X65633600Y-68681601D01*
X59486800Y-60299600D02*
X63093600Y-63906400D01*
X63093600Y-63906400D02*
X63093600Y-67716400D01*
D21*
X82880600Y-64592600D02*
X78486000Y-60198000D01*
X82880600Y-86080200D02*
X82880600Y-64592600D01*
X80340600Y-86080200D02*
X80340600Y-69672600D01*
X80340600Y-69672600D02*
X78486000Y-67818000D01*
X85420600Y-86080200D02*
X85420600Y-68503400D01*
X85420600Y-68503400D02*
X86106000Y-67818000D01*
X87960600Y-67132600D02*
X86106000Y-65278000D01*
X87960600Y-86080200D02*
X87960600Y-67132600D01*
X86106000Y-60198000D02*
X93929200Y-60198000D01*
X86106000Y-57658000D02*
X93929200Y-57658000D01*
X86106000Y-55118000D02*
X93929200Y-55118000D01*
X76200000Y-66243200D02*
X76200000Y-75590400D01*
X77165200Y-65278000D02*
X76200000Y-66243200D01*
X78486000Y-65278000D02*
X77165200Y-65278000D01*
X94538800Y-83362800D02*
X94538800Y-86156800D01*
X87731600Y-62738000D02*
X90576400Y-65582800D01*
X90576400Y-79400400D02*
X94538800Y-83362800D01*
X86106000Y-62738000D02*
X87731600Y-62738000D01*
X90576400Y-65582800D02*
X90576400Y-79400400D01*
M02*
