%TF.GenerationSoftware,KiCad,Pcbnew,7.0.7*%
%TF.CreationDate,2023-09-08T10:26:25-07:00*%
%TF.ProjectId,TailLights,5461696c-4c69-4676-9874-732e6b696361,rev?*%
%TF.SameCoordinates,Original*%
%TF.FileFunction,Drillmap*%
%TF.FilePolarity,Positive*%
%FSLAX45Y45*%
G04 Gerber Fmt 4.5, Leading zero omitted, Abs format (unit mm)*
G04 Created by KiCad (PCBNEW 7.0.7) date 2023-09-08 10:26:25*
%MOMM*%
%LPD*%
G01*
G04 APERTURE LIST*
%ADD10C,0.100000*%
%ADD11C,0.200000*%
%ADD12C,0.080000*%
%ADD13C,0.110000*%
G04 APERTURE END LIST*
D10*
X5273040Y-2951480D02*
X10093960Y-2951480D01*
X10093960Y-9748520D01*
X5273040Y-9748520D01*
X5273040Y-2951480D01*
D11*
D12*
X6523360Y-6828160D02*
X6603360Y-6908160D01*
X6603360Y-6828160D02*
X6523360Y-6908160D01*
X6533520Y-4613280D02*
X6613520Y-4693280D01*
X6613520Y-4613280D02*
X6533520Y-4693280D01*
X6533520Y-5746120D02*
X6613520Y-5826120D01*
X6613520Y-5746120D02*
X6533520Y-5826120D01*
X6777360Y-6828160D02*
X6857360Y-6908160D01*
X6857360Y-6828160D02*
X6777360Y-6908160D01*
X6787520Y-4613280D02*
X6867520Y-4693280D01*
X6867520Y-4613280D02*
X6787520Y-4693280D01*
X6787520Y-5746120D02*
X6867520Y-5826120D01*
X6867520Y-5746120D02*
X6787520Y-5826120D01*
X6914520Y-6030600D02*
X6994520Y-6110600D01*
X6994520Y-6030600D02*
X6914520Y-6110600D01*
X6914520Y-6284600D02*
X6994520Y-6364600D01*
X6994520Y-6284600D02*
X6914520Y-6364600D01*
X6924680Y-4918080D02*
X7004680Y-4998080D01*
X7004680Y-4918080D02*
X6924680Y-4998080D01*
X6924680Y-5172080D02*
X7004680Y-5252080D01*
X7004680Y-5172080D02*
X6924680Y-5252080D01*
X6929760Y-7122800D02*
X7009760Y-7202800D01*
X7009760Y-7122800D02*
X6929760Y-7202800D01*
X6929760Y-7376800D02*
X7009760Y-7456800D01*
X7009760Y-7376800D02*
X6929760Y-7456800D01*
X7595240Y-3879600D02*
X7675240Y-3959600D01*
X7675240Y-3879600D02*
X7595240Y-3959600D01*
X7595240Y-4379600D02*
X7675240Y-4459600D01*
X7675240Y-4379600D02*
X7595240Y-4459600D01*
X7808600Y-5217800D02*
X7888600Y-5297800D01*
X7888600Y-5217800D02*
X7808600Y-5297800D01*
X7808600Y-5471800D02*
X7888600Y-5551800D01*
X7888600Y-5471800D02*
X7808600Y-5551800D01*
X7808600Y-5725800D02*
X7888600Y-5805800D01*
X7888600Y-5725800D02*
X7808600Y-5805800D01*
X7808600Y-5979800D02*
X7888600Y-6059800D01*
X7888600Y-5979800D02*
X7808600Y-6059800D01*
X7808600Y-6233800D02*
X7888600Y-6313800D01*
X7888600Y-6233800D02*
X7808600Y-6313800D01*
X7808600Y-6487800D02*
X7888600Y-6567800D01*
X7888600Y-6487800D02*
X7808600Y-6567800D01*
X7808600Y-6741800D02*
X7888600Y-6821800D01*
X7888600Y-6741800D02*
X7808600Y-6821800D01*
X8570600Y-5217800D02*
X8650600Y-5297800D01*
X8650600Y-5217800D02*
X8570600Y-5297800D01*
X8570600Y-5471800D02*
X8650600Y-5551800D01*
X8650600Y-5471800D02*
X8570600Y-5551800D01*
X8570600Y-5725800D02*
X8650600Y-5805800D01*
X8650600Y-5725800D02*
X8570600Y-5805800D01*
X8570600Y-5979800D02*
X8650600Y-6059800D01*
X8650600Y-5979800D02*
X8570600Y-6059800D01*
X8570600Y-6233800D02*
X8650600Y-6313800D01*
X8650600Y-6233800D02*
X8570600Y-6313800D01*
X8570600Y-6487800D02*
X8650600Y-6567800D01*
X8650600Y-6487800D02*
X8570600Y-6567800D01*
X8570600Y-6741800D02*
X8650600Y-6821800D01*
X8650600Y-6741800D02*
X8570600Y-6821800D01*
X8865240Y-3879600D02*
X8945240Y-3959600D01*
X8945240Y-3879600D02*
X8865240Y-3959600D01*
X8865240Y-4379600D02*
X8945240Y-4459600D01*
X8945240Y-4379600D02*
X8865240Y-4459600D01*
D10*
X5998680Y-5521960D02*
G75*
G03*
X5998680Y-5521960I-50000J0D01*
G01*
X5998680Y-5775960D02*
G75*
G03*
X5998680Y-5775960I-50000J0D01*
G01*
X5998680Y-6029960D02*
G75*
G03*
X5998680Y-6029960I-50000J0D01*
G01*
X6115520Y-8130920D02*
G75*
G03*
X6115520Y-8130920I-50000J0D01*
G01*
X6115520Y-8630920D02*
G75*
G03*
X6115520Y-8630920I-50000J0D01*
G01*
X6229780Y-3939000D02*
G75*
G03*
X6229780Y-3939000I-50000J0D01*
G01*
X6229780Y-4193000D02*
G75*
G03*
X6229780Y-4193000I-50000J0D01*
G01*
X7576060Y-8608020D02*
G75*
G03*
X7576060Y-8608020I-50000J0D01*
G01*
X7670000Y-7559040D02*
G75*
G03*
X7670000Y-7559040I-50000J0D01*
G01*
X7830060Y-8608020D02*
G75*
G03*
X7830060Y-8608020I-50000J0D01*
G01*
X8084060Y-8608020D02*
G75*
G03*
X8084060Y-8608020I-50000J0D01*
G01*
X8338060Y-8608020D02*
G75*
G03*
X8338060Y-8608020I-50000J0D01*
G01*
X8592060Y-8608020D02*
G75*
G03*
X8592060Y-8608020I-50000J0D01*
G01*
X8846060Y-8608020D02*
G75*
G03*
X8846060Y-8608020I-50000J0D01*
G01*
X9442920Y-5511800D02*
G75*
G03*
X9442920Y-5511800I-50000J0D01*
G01*
X9442920Y-5765800D02*
G75*
G03*
X9442920Y-5765800I-50000J0D01*
G01*
X9442920Y-6019800D02*
G75*
G03*
X9442920Y-6019800I-50000J0D01*
G01*
X9453080Y-6583680D02*
G75*
G03*
X9453080Y-6583680I-50000J0D01*
G01*
X9453080Y-6837680D02*
G75*
G03*
X9453080Y-6837680I-50000J0D01*
G01*
X9503880Y-8615680D02*
G75*
G03*
X9503880Y-8615680I-50000J0D01*
G01*
D13*
X6624320Y-6060242D02*
X6624320Y-6170242D01*
X6569320Y-6115242D02*
X6679320Y-6115242D01*
X6624320Y-6441242D02*
X6624320Y-6551242D01*
X6569320Y-6496242D02*
X6679320Y-6496242D01*
X6624320Y-7157522D02*
X6624320Y-7267522D01*
X6569320Y-7212522D02*
X6679320Y-7212522D01*
X6624320Y-7538522D02*
X6624320Y-7648522D01*
X6569320Y-7593522D02*
X6679320Y-7593522D01*
X6634480Y-4947722D02*
X6634480Y-5057722D01*
X6579480Y-5002722D02*
X6689480Y-5002722D01*
X6634480Y-5328722D02*
X6634480Y-5438722D01*
X6579480Y-5383722D02*
X6689480Y-5383722D01*
X8143240Y-3856600D02*
X8143240Y-3966600D01*
X8088240Y-3911600D02*
X8198240Y-3911600D01*
X8143240Y-4110600D02*
X8143240Y-4220600D01*
X8088240Y-4165600D02*
X8198240Y-4165600D01*
X8143240Y-4364600D02*
X8143240Y-4474600D01*
X8088240Y-4419600D02*
X8198240Y-4419600D01*
D11*
X5528817Y-10065004D02*
X5528817Y-9865004D01*
X5528817Y-9865004D02*
X5576436Y-9865004D01*
X5576436Y-9865004D02*
X5605007Y-9874528D01*
X5605007Y-9874528D02*
X5624055Y-9893575D01*
X5624055Y-9893575D02*
X5633579Y-9912623D01*
X5633579Y-9912623D02*
X5643102Y-9950718D01*
X5643102Y-9950718D02*
X5643102Y-9979290D01*
X5643102Y-9979290D02*
X5633579Y-10017385D01*
X5633579Y-10017385D02*
X5624055Y-10036432D01*
X5624055Y-10036432D02*
X5605007Y-10055480D01*
X5605007Y-10055480D02*
X5576436Y-10065004D01*
X5576436Y-10065004D02*
X5528817Y-10065004D01*
X5728817Y-10065004D02*
X5728817Y-9931670D01*
X5728817Y-9969766D02*
X5738341Y-9950718D01*
X5738341Y-9950718D02*
X5747864Y-9941194D01*
X5747864Y-9941194D02*
X5766912Y-9931670D01*
X5766912Y-9931670D02*
X5785960Y-9931670D01*
X5852626Y-10065004D02*
X5852626Y-9931670D01*
X5852626Y-9865004D02*
X5843102Y-9874528D01*
X5843102Y-9874528D02*
X5852626Y-9884051D01*
X5852626Y-9884051D02*
X5862150Y-9874528D01*
X5862150Y-9874528D02*
X5852626Y-9865004D01*
X5852626Y-9865004D02*
X5852626Y-9884051D01*
X5976436Y-10065004D02*
X5957388Y-10055480D01*
X5957388Y-10055480D02*
X5947864Y-10036432D01*
X5947864Y-10036432D02*
X5947864Y-9865004D01*
X6081198Y-10065004D02*
X6062150Y-10055480D01*
X6062150Y-10055480D02*
X6052626Y-10036432D01*
X6052626Y-10036432D02*
X6052626Y-9865004D01*
X6309769Y-10065004D02*
X6309769Y-9865004D01*
X6309769Y-9865004D02*
X6376436Y-10007861D01*
X6376436Y-10007861D02*
X6443102Y-9865004D01*
X6443102Y-9865004D02*
X6443102Y-10065004D01*
X6624055Y-10065004D02*
X6624055Y-9960242D01*
X6624055Y-9960242D02*
X6614531Y-9941194D01*
X6614531Y-9941194D02*
X6595483Y-9931670D01*
X6595483Y-9931670D02*
X6557388Y-9931670D01*
X6557388Y-9931670D02*
X6538341Y-9941194D01*
X6624055Y-10055480D02*
X6605007Y-10065004D01*
X6605007Y-10065004D02*
X6557388Y-10065004D01*
X6557388Y-10065004D02*
X6538341Y-10055480D01*
X6538341Y-10055480D02*
X6528817Y-10036432D01*
X6528817Y-10036432D02*
X6528817Y-10017385D01*
X6528817Y-10017385D02*
X6538341Y-9998337D01*
X6538341Y-9998337D02*
X6557388Y-9988813D01*
X6557388Y-9988813D02*
X6605007Y-9988813D01*
X6605007Y-9988813D02*
X6624055Y-9979290D01*
X6719293Y-9931670D02*
X6719293Y-10131670D01*
X6719293Y-9941194D02*
X6738341Y-9931670D01*
X6738341Y-9931670D02*
X6776436Y-9931670D01*
X6776436Y-9931670D02*
X6795483Y-9941194D01*
X6795483Y-9941194D02*
X6805007Y-9950718D01*
X6805007Y-9950718D02*
X6814531Y-9969766D01*
X6814531Y-9969766D02*
X6814531Y-10026909D01*
X6814531Y-10026909D02*
X6805007Y-10045956D01*
X6805007Y-10045956D02*
X6795483Y-10055480D01*
X6795483Y-10055480D02*
X6776436Y-10065004D01*
X6776436Y-10065004D02*
X6738341Y-10065004D01*
X6738341Y-10065004D02*
X6719293Y-10055480D01*
X6900245Y-10045956D02*
X6909769Y-10055480D01*
X6909769Y-10055480D02*
X6900245Y-10065004D01*
X6900245Y-10065004D02*
X6890722Y-10055480D01*
X6890722Y-10055480D02*
X6900245Y-10045956D01*
X6900245Y-10045956D02*
X6900245Y-10065004D01*
X6900245Y-9941194D02*
X6909769Y-9950718D01*
X6909769Y-9950718D02*
X6900245Y-9960242D01*
X6900245Y-9960242D02*
X6890722Y-9950718D01*
X6890722Y-9950718D02*
X6900245Y-9941194D01*
X6900245Y-9941194D02*
X6900245Y-9960242D01*
D12*
X5188040Y-10353520D02*
X5268040Y-10433520D01*
X5268040Y-10353520D02*
X5188040Y-10433520D01*
D11*
X5566912Y-10285004D02*
X5585960Y-10285004D01*
X5585960Y-10285004D02*
X5605007Y-10294528D01*
X5605007Y-10294528D02*
X5614531Y-10304051D01*
X5614531Y-10304051D02*
X5624055Y-10323099D01*
X5624055Y-10323099D02*
X5633579Y-10361194D01*
X5633579Y-10361194D02*
X5633579Y-10408813D01*
X5633579Y-10408813D02*
X5624055Y-10446909D01*
X5624055Y-10446909D02*
X5614531Y-10465956D01*
X5614531Y-10465956D02*
X5605007Y-10475480D01*
X5605007Y-10475480D02*
X5585960Y-10485004D01*
X5585960Y-10485004D02*
X5566912Y-10485004D01*
X5566912Y-10485004D02*
X5547864Y-10475480D01*
X5547864Y-10475480D02*
X5538341Y-10465956D01*
X5538341Y-10465956D02*
X5528817Y-10446909D01*
X5528817Y-10446909D02*
X5519293Y-10408813D01*
X5519293Y-10408813D02*
X5519293Y-10361194D01*
X5519293Y-10361194D02*
X5528817Y-10323099D01*
X5528817Y-10323099D02*
X5538341Y-10304051D01*
X5538341Y-10304051D02*
X5547864Y-10294528D01*
X5547864Y-10294528D02*
X5566912Y-10285004D01*
X5719293Y-10465956D02*
X5728817Y-10475480D01*
X5728817Y-10475480D02*
X5719293Y-10485004D01*
X5719293Y-10485004D02*
X5709769Y-10475480D01*
X5709769Y-10475480D02*
X5719293Y-10465956D01*
X5719293Y-10465956D02*
X5719293Y-10485004D01*
X5843102Y-10370718D02*
X5824055Y-10361194D01*
X5824055Y-10361194D02*
X5814531Y-10351670D01*
X5814531Y-10351670D02*
X5805007Y-10332623D01*
X5805007Y-10332623D02*
X5805007Y-10323099D01*
X5805007Y-10323099D02*
X5814531Y-10304051D01*
X5814531Y-10304051D02*
X5824055Y-10294528D01*
X5824055Y-10294528D02*
X5843102Y-10285004D01*
X5843102Y-10285004D02*
X5881198Y-10285004D01*
X5881198Y-10285004D02*
X5900245Y-10294528D01*
X5900245Y-10294528D02*
X5909769Y-10304051D01*
X5909769Y-10304051D02*
X5919293Y-10323099D01*
X5919293Y-10323099D02*
X5919293Y-10332623D01*
X5919293Y-10332623D02*
X5909769Y-10351670D01*
X5909769Y-10351670D02*
X5900245Y-10361194D01*
X5900245Y-10361194D02*
X5881198Y-10370718D01*
X5881198Y-10370718D02*
X5843102Y-10370718D01*
X5843102Y-10370718D02*
X5824055Y-10380242D01*
X5824055Y-10380242D02*
X5814531Y-10389766D01*
X5814531Y-10389766D02*
X5805007Y-10408813D01*
X5805007Y-10408813D02*
X5805007Y-10446909D01*
X5805007Y-10446909D02*
X5814531Y-10465956D01*
X5814531Y-10465956D02*
X5824055Y-10475480D01*
X5824055Y-10475480D02*
X5843102Y-10485004D01*
X5843102Y-10485004D02*
X5881198Y-10485004D01*
X5881198Y-10485004D02*
X5900245Y-10475480D01*
X5900245Y-10475480D02*
X5909769Y-10465956D01*
X5909769Y-10465956D02*
X5919293Y-10446909D01*
X5919293Y-10446909D02*
X5919293Y-10408813D01*
X5919293Y-10408813D02*
X5909769Y-10389766D01*
X5909769Y-10389766D02*
X5900245Y-10380242D01*
X5900245Y-10380242D02*
X5881198Y-10370718D01*
X6043102Y-10285004D02*
X6062150Y-10285004D01*
X6062150Y-10285004D02*
X6081198Y-10294528D01*
X6081198Y-10294528D02*
X6090722Y-10304051D01*
X6090722Y-10304051D02*
X6100245Y-10323099D01*
X6100245Y-10323099D02*
X6109769Y-10361194D01*
X6109769Y-10361194D02*
X6109769Y-10408813D01*
X6109769Y-10408813D02*
X6100245Y-10446909D01*
X6100245Y-10446909D02*
X6090722Y-10465956D01*
X6090722Y-10465956D02*
X6081198Y-10475480D01*
X6081198Y-10475480D02*
X6062150Y-10485004D01*
X6062150Y-10485004D02*
X6043102Y-10485004D01*
X6043102Y-10485004D02*
X6024055Y-10475480D01*
X6024055Y-10475480D02*
X6014531Y-10465956D01*
X6014531Y-10465956D02*
X6005007Y-10446909D01*
X6005007Y-10446909D02*
X5995483Y-10408813D01*
X5995483Y-10408813D02*
X5995483Y-10361194D01*
X5995483Y-10361194D02*
X6005007Y-10323099D01*
X6005007Y-10323099D02*
X6014531Y-10304051D01*
X6014531Y-10304051D02*
X6024055Y-10294528D01*
X6024055Y-10294528D02*
X6043102Y-10285004D01*
X6233579Y-10285004D02*
X6252626Y-10285004D01*
X6252626Y-10285004D02*
X6271674Y-10294528D01*
X6271674Y-10294528D02*
X6281198Y-10304051D01*
X6281198Y-10304051D02*
X6290722Y-10323099D01*
X6290722Y-10323099D02*
X6300245Y-10361194D01*
X6300245Y-10361194D02*
X6300245Y-10408813D01*
X6300245Y-10408813D02*
X6290722Y-10446909D01*
X6290722Y-10446909D02*
X6281198Y-10465956D01*
X6281198Y-10465956D02*
X6271674Y-10475480D01*
X6271674Y-10475480D02*
X6252626Y-10485004D01*
X6252626Y-10485004D02*
X6233579Y-10485004D01*
X6233579Y-10485004D02*
X6214531Y-10475480D01*
X6214531Y-10475480D02*
X6205007Y-10465956D01*
X6205007Y-10465956D02*
X6195483Y-10446909D01*
X6195483Y-10446909D02*
X6185960Y-10408813D01*
X6185960Y-10408813D02*
X6185960Y-10361194D01*
X6185960Y-10361194D02*
X6195483Y-10323099D01*
X6195483Y-10323099D02*
X6205007Y-10304051D01*
X6205007Y-10304051D02*
X6214531Y-10294528D01*
X6214531Y-10294528D02*
X6233579Y-10285004D01*
X6385960Y-10485004D02*
X6385960Y-10351670D01*
X6385960Y-10370718D02*
X6395483Y-10361194D01*
X6395483Y-10361194D02*
X6414531Y-10351670D01*
X6414531Y-10351670D02*
X6443103Y-10351670D01*
X6443103Y-10351670D02*
X6462150Y-10361194D01*
X6462150Y-10361194D02*
X6471674Y-10380242D01*
X6471674Y-10380242D02*
X6471674Y-10485004D01*
X6471674Y-10380242D02*
X6481198Y-10361194D01*
X6481198Y-10361194D02*
X6500245Y-10351670D01*
X6500245Y-10351670D02*
X6528817Y-10351670D01*
X6528817Y-10351670D02*
X6547864Y-10361194D01*
X6547864Y-10361194D02*
X6557388Y-10380242D01*
X6557388Y-10380242D02*
X6557388Y-10485004D01*
X6652626Y-10485004D02*
X6652626Y-10351670D01*
X6652626Y-10370718D02*
X6662150Y-10361194D01*
X6662150Y-10361194D02*
X6681198Y-10351670D01*
X6681198Y-10351670D02*
X6709769Y-10351670D01*
X6709769Y-10351670D02*
X6728817Y-10361194D01*
X6728817Y-10361194D02*
X6738341Y-10380242D01*
X6738341Y-10380242D02*
X6738341Y-10485004D01*
X6738341Y-10380242D02*
X6747864Y-10361194D01*
X6747864Y-10361194D02*
X6766912Y-10351670D01*
X6766912Y-10351670D02*
X6795483Y-10351670D01*
X6795483Y-10351670D02*
X6814531Y-10361194D01*
X6814531Y-10361194D02*
X6824055Y-10380242D01*
X6824055Y-10380242D02*
X6824055Y-10485004D01*
X7214531Y-10275480D02*
X7043103Y-10532623D01*
X7471674Y-10285004D02*
X7490722Y-10285004D01*
X7490722Y-10285004D02*
X7509769Y-10294528D01*
X7509769Y-10294528D02*
X7519293Y-10304051D01*
X7519293Y-10304051D02*
X7528817Y-10323099D01*
X7528817Y-10323099D02*
X7538341Y-10361194D01*
X7538341Y-10361194D02*
X7538341Y-10408813D01*
X7538341Y-10408813D02*
X7528817Y-10446909D01*
X7528817Y-10446909D02*
X7519293Y-10465956D01*
X7519293Y-10465956D02*
X7509769Y-10475480D01*
X7509769Y-10475480D02*
X7490722Y-10485004D01*
X7490722Y-10485004D02*
X7471674Y-10485004D01*
X7471674Y-10485004D02*
X7452626Y-10475480D01*
X7452626Y-10475480D02*
X7443103Y-10465956D01*
X7443103Y-10465956D02*
X7433579Y-10446909D01*
X7433579Y-10446909D02*
X7424055Y-10408813D01*
X7424055Y-10408813D02*
X7424055Y-10361194D01*
X7424055Y-10361194D02*
X7433579Y-10323099D01*
X7433579Y-10323099D02*
X7443103Y-10304051D01*
X7443103Y-10304051D02*
X7452626Y-10294528D01*
X7452626Y-10294528D02*
X7471674Y-10285004D01*
X7624055Y-10465956D02*
X7633579Y-10475480D01*
X7633579Y-10475480D02*
X7624055Y-10485004D01*
X7624055Y-10485004D02*
X7614531Y-10475480D01*
X7614531Y-10475480D02*
X7624055Y-10465956D01*
X7624055Y-10465956D02*
X7624055Y-10485004D01*
X7757388Y-10285004D02*
X7776436Y-10285004D01*
X7776436Y-10285004D02*
X7795484Y-10294528D01*
X7795484Y-10294528D02*
X7805007Y-10304051D01*
X7805007Y-10304051D02*
X7814531Y-10323099D01*
X7814531Y-10323099D02*
X7824055Y-10361194D01*
X7824055Y-10361194D02*
X7824055Y-10408813D01*
X7824055Y-10408813D02*
X7814531Y-10446909D01*
X7814531Y-10446909D02*
X7805007Y-10465956D01*
X7805007Y-10465956D02*
X7795484Y-10475480D01*
X7795484Y-10475480D02*
X7776436Y-10485004D01*
X7776436Y-10485004D02*
X7757388Y-10485004D01*
X7757388Y-10485004D02*
X7738341Y-10475480D01*
X7738341Y-10475480D02*
X7728817Y-10465956D01*
X7728817Y-10465956D02*
X7719293Y-10446909D01*
X7719293Y-10446909D02*
X7709769Y-10408813D01*
X7709769Y-10408813D02*
X7709769Y-10361194D01*
X7709769Y-10361194D02*
X7719293Y-10323099D01*
X7719293Y-10323099D02*
X7728817Y-10304051D01*
X7728817Y-10304051D02*
X7738341Y-10294528D01*
X7738341Y-10294528D02*
X7757388Y-10285004D01*
X7890722Y-10285004D02*
X8014531Y-10285004D01*
X8014531Y-10285004D02*
X7947865Y-10361194D01*
X7947865Y-10361194D02*
X7976436Y-10361194D01*
X7976436Y-10361194D02*
X7995484Y-10370718D01*
X7995484Y-10370718D02*
X8005007Y-10380242D01*
X8005007Y-10380242D02*
X8014531Y-10399290D01*
X8014531Y-10399290D02*
X8014531Y-10446909D01*
X8014531Y-10446909D02*
X8005007Y-10465956D01*
X8005007Y-10465956D02*
X7995484Y-10475480D01*
X7995484Y-10475480D02*
X7976436Y-10485004D01*
X7976436Y-10485004D02*
X7919293Y-10485004D01*
X7919293Y-10485004D02*
X7900246Y-10475480D01*
X7900246Y-10475480D02*
X7890722Y-10465956D01*
X8205007Y-10485004D02*
X8090722Y-10485004D01*
X8147865Y-10485004D02*
X8147865Y-10285004D01*
X8147865Y-10285004D02*
X8128817Y-10313575D01*
X8128817Y-10313575D02*
X8109769Y-10332623D01*
X8109769Y-10332623D02*
X8090722Y-10342147D01*
X8385960Y-10285004D02*
X8290722Y-10285004D01*
X8290722Y-10285004D02*
X8281198Y-10380242D01*
X8281198Y-10380242D02*
X8290722Y-10370718D01*
X8290722Y-10370718D02*
X8309769Y-10361194D01*
X8309769Y-10361194D02*
X8357388Y-10361194D01*
X8357388Y-10361194D02*
X8376436Y-10370718D01*
X8376436Y-10370718D02*
X8385960Y-10380242D01*
X8385960Y-10380242D02*
X8395484Y-10399290D01*
X8395484Y-10399290D02*
X8395484Y-10446909D01*
X8395484Y-10446909D02*
X8385960Y-10465956D01*
X8385960Y-10465956D02*
X8376436Y-10475480D01*
X8376436Y-10475480D02*
X8357388Y-10485004D01*
X8357388Y-10485004D02*
X8309769Y-10485004D01*
X8309769Y-10485004D02*
X8290722Y-10475480D01*
X8290722Y-10475480D02*
X8281198Y-10465956D01*
X8471674Y-10285004D02*
X8471674Y-10323099D01*
X8547865Y-10285004D02*
X8547865Y-10323099D01*
X8843103Y-10561194D02*
X8833579Y-10551670D01*
X8833579Y-10551670D02*
X8814531Y-10523099D01*
X8814531Y-10523099D02*
X8805008Y-10504051D01*
X8805008Y-10504051D02*
X8795484Y-10475480D01*
X8795484Y-10475480D02*
X8785960Y-10427861D01*
X8785960Y-10427861D02*
X8785960Y-10389766D01*
X8785960Y-10389766D02*
X8795484Y-10342147D01*
X8795484Y-10342147D02*
X8805008Y-10313575D01*
X8805008Y-10313575D02*
X8814531Y-10294528D01*
X8814531Y-10294528D02*
X8833579Y-10265956D01*
X8833579Y-10265956D02*
X8843103Y-10256432D01*
X8900246Y-10285004D02*
X9024055Y-10285004D01*
X9024055Y-10285004D02*
X8957389Y-10361194D01*
X8957389Y-10361194D02*
X8985960Y-10361194D01*
X8985960Y-10361194D02*
X9005008Y-10370718D01*
X9005008Y-10370718D02*
X9014531Y-10380242D01*
X9014531Y-10380242D02*
X9024055Y-10399290D01*
X9024055Y-10399290D02*
X9024055Y-10446909D01*
X9024055Y-10446909D02*
X9014531Y-10465956D01*
X9014531Y-10465956D02*
X9005008Y-10475480D01*
X9005008Y-10475480D02*
X8985960Y-10485004D01*
X8985960Y-10485004D02*
X8928817Y-10485004D01*
X8928817Y-10485004D02*
X8909770Y-10475480D01*
X8909770Y-10475480D02*
X8900246Y-10465956D01*
X9147865Y-10285004D02*
X9166912Y-10285004D01*
X9166912Y-10285004D02*
X9185960Y-10294528D01*
X9185960Y-10294528D02*
X9195484Y-10304051D01*
X9195484Y-10304051D02*
X9205008Y-10323099D01*
X9205008Y-10323099D02*
X9214531Y-10361194D01*
X9214531Y-10361194D02*
X9214531Y-10408813D01*
X9214531Y-10408813D02*
X9205008Y-10446909D01*
X9205008Y-10446909D02*
X9195484Y-10465956D01*
X9195484Y-10465956D02*
X9185960Y-10475480D01*
X9185960Y-10475480D02*
X9166912Y-10485004D01*
X9166912Y-10485004D02*
X9147865Y-10485004D01*
X9147865Y-10485004D02*
X9128817Y-10475480D01*
X9128817Y-10475480D02*
X9119293Y-10465956D01*
X9119293Y-10465956D02*
X9109770Y-10446909D01*
X9109770Y-10446909D02*
X9100246Y-10408813D01*
X9100246Y-10408813D02*
X9100246Y-10361194D01*
X9100246Y-10361194D02*
X9109770Y-10323099D01*
X9109770Y-10323099D02*
X9119293Y-10304051D01*
X9119293Y-10304051D02*
X9128817Y-10294528D01*
X9128817Y-10294528D02*
X9147865Y-10285004D01*
X9452627Y-10485004D02*
X9452627Y-10285004D01*
X9538341Y-10485004D02*
X9538341Y-10380242D01*
X9538341Y-10380242D02*
X9528817Y-10361194D01*
X9528817Y-10361194D02*
X9509770Y-10351670D01*
X9509770Y-10351670D02*
X9481198Y-10351670D01*
X9481198Y-10351670D02*
X9462151Y-10361194D01*
X9462151Y-10361194D02*
X9452627Y-10370718D01*
X9662151Y-10485004D02*
X9643103Y-10475480D01*
X9643103Y-10475480D02*
X9633579Y-10465956D01*
X9633579Y-10465956D02*
X9624055Y-10446909D01*
X9624055Y-10446909D02*
X9624055Y-10389766D01*
X9624055Y-10389766D02*
X9633579Y-10370718D01*
X9633579Y-10370718D02*
X9643103Y-10361194D01*
X9643103Y-10361194D02*
X9662151Y-10351670D01*
X9662151Y-10351670D02*
X9690722Y-10351670D01*
X9690722Y-10351670D02*
X9709770Y-10361194D01*
X9709770Y-10361194D02*
X9719293Y-10370718D01*
X9719293Y-10370718D02*
X9728817Y-10389766D01*
X9728817Y-10389766D02*
X9728817Y-10446909D01*
X9728817Y-10446909D02*
X9719293Y-10465956D01*
X9719293Y-10465956D02*
X9709770Y-10475480D01*
X9709770Y-10475480D02*
X9690722Y-10485004D01*
X9690722Y-10485004D02*
X9662151Y-10485004D01*
X9843103Y-10485004D02*
X9824055Y-10475480D01*
X9824055Y-10475480D02*
X9814532Y-10456432D01*
X9814532Y-10456432D02*
X9814532Y-10285004D01*
X9995484Y-10475480D02*
X9976436Y-10485004D01*
X9976436Y-10485004D02*
X9938341Y-10485004D01*
X9938341Y-10485004D02*
X9919293Y-10475480D01*
X9919293Y-10475480D02*
X9909770Y-10456432D01*
X9909770Y-10456432D02*
X9909770Y-10380242D01*
X9909770Y-10380242D02*
X9919293Y-10361194D01*
X9919293Y-10361194D02*
X9938341Y-10351670D01*
X9938341Y-10351670D02*
X9976436Y-10351670D01*
X9976436Y-10351670D02*
X9995484Y-10361194D01*
X9995484Y-10361194D02*
X10005008Y-10380242D01*
X10005008Y-10380242D02*
X10005008Y-10399290D01*
X10005008Y-10399290D02*
X9909770Y-10418337D01*
X10081198Y-10475480D02*
X10100246Y-10485004D01*
X10100246Y-10485004D02*
X10138341Y-10485004D01*
X10138341Y-10485004D02*
X10157389Y-10475480D01*
X10157389Y-10475480D02*
X10166913Y-10456432D01*
X10166913Y-10456432D02*
X10166913Y-10446909D01*
X10166913Y-10446909D02*
X10157389Y-10427861D01*
X10157389Y-10427861D02*
X10138341Y-10418337D01*
X10138341Y-10418337D02*
X10109770Y-10418337D01*
X10109770Y-10418337D02*
X10090722Y-10408813D01*
X10090722Y-10408813D02*
X10081198Y-10389766D01*
X10081198Y-10389766D02*
X10081198Y-10380242D01*
X10081198Y-10380242D02*
X10090722Y-10361194D01*
X10090722Y-10361194D02*
X10109770Y-10351670D01*
X10109770Y-10351670D02*
X10138341Y-10351670D01*
X10138341Y-10351670D02*
X10157389Y-10361194D01*
X10233579Y-10561194D02*
X10243103Y-10551670D01*
X10243103Y-10551670D02*
X10262151Y-10523099D01*
X10262151Y-10523099D02*
X10271674Y-10504051D01*
X10271674Y-10504051D02*
X10281198Y-10475480D01*
X10281198Y-10475480D02*
X10290722Y-10427861D01*
X10290722Y-10427861D02*
X10290722Y-10389766D01*
X10290722Y-10389766D02*
X10281198Y-10342147D01*
X10281198Y-10342147D02*
X10271674Y-10313575D01*
X10271674Y-10313575D02*
X10262151Y-10294528D01*
X10262151Y-10294528D02*
X10243103Y-10265956D01*
X10243103Y-10265956D02*
X10233579Y-10256432D01*
D10*
X5268040Y-10657520D02*
G75*
G03*
X5268040Y-10657520I-50000J0D01*
G01*
D11*
X5633579Y-10749004D02*
X5519293Y-10749004D01*
X5576436Y-10749004D02*
X5576436Y-10549004D01*
X5576436Y-10549004D02*
X5557388Y-10577575D01*
X5557388Y-10577575D02*
X5538341Y-10596623D01*
X5538341Y-10596623D02*
X5519293Y-10606147D01*
X5719293Y-10729956D02*
X5728817Y-10739480D01*
X5728817Y-10739480D02*
X5719293Y-10749004D01*
X5719293Y-10749004D02*
X5709769Y-10739480D01*
X5709769Y-10739480D02*
X5719293Y-10729956D01*
X5719293Y-10729956D02*
X5719293Y-10749004D01*
X5852626Y-10549004D02*
X5871674Y-10549004D01*
X5871674Y-10549004D02*
X5890722Y-10558528D01*
X5890722Y-10558528D02*
X5900245Y-10568051D01*
X5900245Y-10568051D02*
X5909769Y-10587099D01*
X5909769Y-10587099D02*
X5919293Y-10625194D01*
X5919293Y-10625194D02*
X5919293Y-10672813D01*
X5919293Y-10672813D02*
X5909769Y-10710909D01*
X5909769Y-10710909D02*
X5900245Y-10729956D01*
X5900245Y-10729956D02*
X5890722Y-10739480D01*
X5890722Y-10739480D02*
X5871674Y-10749004D01*
X5871674Y-10749004D02*
X5852626Y-10749004D01*
X5852626Y-10749004D02*
X5833579Y-10739480D01*
X5833579Y-10739480D02*
X5824055Y-10729956D01*
X5824055Y-10729956D02*
X5814531Y-10710909D01*
X5814531Y-10710909D02*
X5805007Y-10672813D01*
X5805007Y-10672813D02*
X5805007Y-10625194D01*
X5805007Y-10625194D02*
X5814531Y-10587099D01*
X5814531Y-10587099D02*
X5824055Y-10568051D01*
X5824055Y-10568051D02*
X5833579Y-10558528D01*
X5833579Y-10558528D02*
X5852626Y-10549004D01*
X6043102Y-10549004D02*
X6062150Y-10549004D01*
X6062150Y-10549004D02*
X6081198Y-10558528D01*
X6081198Y-10558528D02*
X6090722Y-10568051D01*
X6090722Y-10568051D02*
X6100245Y-10587099D01*
X6100245Y-10587099D02*
X6109769Y-10625194D01*
X6109769Y-10625194D02*
X6109769Y-10672813D01*
X6109769Y-10672813D02*
X6100245Y-10710909D01*
X6100245Y-10710909D02*
X6090722Y-10729956D01*
X6090722Y-10729956D02*
X6081198Y-10739480D01*
X6081198Y-10739480D02*
X6062150Y-10749004D01*
X6062150Y-10749004D02*
X6043102Y-10749004D01*
X6043102Y-10749004D02*
X6024055Y-10739480D01*
X6024055Y-10739480D02*
X6014531Y-10729956D01*
X6014531Y-10729956D02*
X6005007Y-10710909D01*
X6005007Y-10710909D02*
X5995483Y-10672813D01*
X5995483Y-10672813D02*
X5995483Y-10625194D01*
X5995483Y-10625194D02*
X6005007Y-10587099D01*
X6005007Y-10587099D02*
X6014531Y-10568051D01*
X6014531Y-10568051D02*
X6024055Y-10558528D01*
X6024055Y-10558528D02*
X6043102Y-10549004D01*
X6233579Y-10549004D02*
X6252626Y-10549004D01*
X6252626Y-10549004D02*
X6271674Y-10558528D01*
X6271674Y-10558528D02*
X6281198Y-10568051D01*
X6281198Y-10568051D02*
X6290722Y-10587099D01*
X6290722Y-10587099D02*
X6300245Y-10625194D01*
X6300245Y-10625194D02*
X6300245Y-10672813D01*
X6300245Y-10672813D02*
X6290722Y-10710909D01*
X6290722Y-10710909D02*
X6281198Y-10729956D01*
X6281198Y-10729956D02*
X6271674Y-10739480D01*
X6271674Y-10739480D02*
X6252626Y-10749004D01*
X6252626Y-10749004D02*
X6233579Y-10749004D01*
X6233579Y-10749004D02*
X6214531Y-10739480D01*
X6214531Y-10739480D02*
X6205007Y-10729956D01*
X6205007Y-10729956D02*
X6195483Y-10710909D01*
X6195483Y-10710909D02*
X6185960Y-10672813D01*
X6185960Y-10672813D02*
X6185960Y-10625194D01*
X6185960Y-10625194D02*
X6195483Y-10587099D01*
X6195483Y-10587099D02*
X6205007Y-10568051D01*
X6205007Y-10568051D02*
X6214531Y-10558528D01*
X6214531Y-10558528D02*
X6233579Y-10549004D01*
X6385960Y-10749004D02*
X6385960Y-10615670D01*
X6385960Y-10634718D02*
X6395483Y-10625194D01*
X6395483Y-10625194D02*
X6414531Y-10615670D01*
X6414531Y-10615670D02*
X6443103Y-10615670D01*
X6443103Y-10615670D02*
X6462150Y-10625194D01*
X6462150Y-10625194D02*
X6471674Y-10644242D01*
X6471674Y-10644242D02*
X6471674Y-10749004D01*
X6471674Y-10644242D02*
X6481198Y-10625194D01*
X6481198Y-10625194D02*
X6500245Y-10615670D01*
X6500245Y-10615670D02*
X6528817Y-10615670D01*
X6528817Y-10615670D02*
X6547864Y-10625194D01*
X6547864Y-10625194D02*
X6557388Y-10644242D01*
X6557388Y-10644242D02*
X6557388Y-10749004D01*
X6652626Y-10749004D02*
X6652626Y-10615670D01*
X6652626Y-10634718D02*
X6662150Y-10625194D01*
X6662150Y-10625194D02*
X6681198Y-10615670D01*
X6681198Y-10615670D02*
X6709769Y-10615670D01*
X6709769Y-10615670D02*
X6728817Y-10625194D01*
X6728817Y-10625194D02*
X6738341Y-10644242D01*
X6738341Y-10644242D02*
X6738341Y-10749004D01*
X6738341Y-10644242D02*
X6747864Y-10625194D01*
X6747864Y-10625194D02*
X6766912Y-10615670D01*
X6766912Y-10615670D02*
X6795483Y-10615670D01*
X6795483Y-10615670D02*
X6814531Y-10625194D01*
X6814531Y-10625194D02*
X6824055Y-10644242D01*
X6824055Y-10644242D02*
X6824055Y-10749004D01*
X7214531Y-10539480D02*
X7043103Y-10796623D01*
X7471674Y-10549004D02*
X7490722Y-10549004D01*
X7490722Y-10549004D02*
X7509769Y-10558528D01*
X7509769Y-10558528D02*
X7519293Y-10568051D01*
X7519293Y-10568051D02*
X7528817Y-10587099D01*
X7528817Y-10587099D02*
X7538341Y-10625194D01*
X7538341Y-10625194D02*
X7538341Y-10672813D01*
X7538341Y-10672813D02*
X7528817Y-10710909D01*
X7528817Y-10710909D02*
X7519293Y-10729956D01*
X7519293Y-10729956D02*
X7509769Y-10739480D01*
X7509769Y-10739480D02*
X7490722Y-10749004D01*
X7490722Y-10749004D02*
X7471674Y-10749004D01*
X7471674Y-10749004D02*
X7452626Y-10739480D01*
X7452626Y-10739480D02*
X7443103Y-10729956D01*
X7443103Y-10729956D02*
X7433579Y-10710909D01*
X7433579Y-10710909D02*
X7424055Y-10672813D01*
X7424055Y-10672813D02*
X7424055Y-10625194D01*
X7424055Y-10625194D02*
X7433579Y-10587099D01*
X7433579Y-10587099D02*
X7443103Y-10568051D01*
X7443103Y-10568051D02*
X7452626Y-10558528D01*
X7452626Y-10558528D02*
X7471674Y-10549004D01*
X7624055Y-10729956D02*
X7633579Y-10739480D01*
X7633579Y-10739480D02*
X7624055Y-10749004D01*
X7624055Y-10749004D02*
X7614531Y-10739480D01*
X7614531Y-10739480D02*
X7624055Y-10729956D01*
X7624055Y-10729956D02*
X7624055Y-10749004D01*
X7757388Y-10549004D02*
X7776436Y-10549004D01*
X7776436Y-10549004D02*
X7795484Y-10558528D01*
X7795484Y-10558528D02*
X7805007Y-10568051D01*
X7805007Y-10568051D02*
X7814531Y-10587099D01*
X7814531Y-10587099D02*
X7824055Y-10625194D01*
X7824055Y-10625194D02*
X7824055Y-10672813D01*
X7824055Y-10672813D02*
X7814531Y-10710909D01*
X7814531Y-10710909D02*
X7805007Y-10729956D01*
X7805007Y-10729956D02*
X7795484Y-10739480D01*
X7795484Y-10739480D02*
X7776436Y-10749004D01*
X7776436Y-10749004D02*
X7757388Y-10749004D01*
X7757388Y-10749004D02*
X7738341Y-10739480D01*
X7738341Y-10739480D02*
X7728817Y-10729956D01*
X7728817Y-10729956D02*
X7719293Y-10710909D01*
X7719293Y-10710909D02*
X7709769Y-10672813D01*
X7709769Y-10672813D02*
X7709769Y-10625194D01*
X7709769Y-10625194D02*
X7719293Y-10587099D01*
X7719293Y-10587099D02*
X7728817Y-10568051D01*
X7728817Y-10568051D02*
X7738341Y-10558528D01*
X7738341Y-10558528D02*
X7757388Y-10549004D01*
X7890722Y-10549004D02*
X8014531Y-10549004D01*
X8014531Y-10549004D02*
X7947865Y-10625194D01*
X7947865Y-10625194D02*
X7976436Y-10625194D01*
X7976436Y-10625194D02*
X7995484Y-10634718D01*
X7995484Y-10634718D02*
X8005007Y-10644242D01*
X8005007Y-10644242D02*
X8014531Y-10663290D01*
X8014531Y-10663290D02*
X8014531Y-10710909D01*
X8014531Y-10710909D02*
X8005007Y-10729956D01*
X8005007Y-10729956D02*
X7995484Y-10739480D01*
X7995484Y-10739480D02*
X7976436Y-10749004D01*
X7976436Y-10749004D02*
X7919293Y-10749004D01*
X7919293Y-10749004D02*
X7900246Y-10739480D01*
X7900246Y-10739480D02*
X7890722Y-10729956D01*
X8109769Y-10749004D02*
X8147865Y-10749004D01*
X8147865Y-10749004D02*
X8166912Y-10739480D01*
X8166912Y-10739480D02*
X8176436Y-10729956D01*
X8176436Y-10729956D02*
X8195484Y-10701385D01*
X8195484Y-10701385D02*
X8205007Y-10663290D01*
X8205007Y-10663290D02*
X8205007Y-10587099D01*
X8205007Y-10587099D02*
X8195484Y-10568051D01*
X8195484Y-10568051D02*
X8185960Y-10558528D01*
X8185960Y-10558528D02*
X8166912Y-10549004D01*
X8166912Y-10549004D02*
X8128817Y-10549004D01*
X8128817Y-10549004D02*
X8109769Y-10558528D01*
X8109769Y-10558528D02*
X8100246Y-10568051D01*
X8100246Y-10568051D02*
X8090722Y-10587099D01*
X8090722Y-10587099D02*
X8090722Y-10634718D01*
X8090722Y-10634718D02*
X8100246Y-10653766D01*
X8100246Y-10653766D02*
X8109769Y-10663290D01*
X8109769Y-10663290D02*
X8128817Y-10672813D01*
X8128817Y-10672813D02*
X8166912Y-10672813D01*
X8166912Y-10672813D02*
X8185960Y-10663290D01*
X8185960Y-10663290D02*
X8195484Y-10653766D01*
X8195484Y-10653766D02*
X8205007Y-10634718D01*
X8376436Y-10615670D02*
X8376436Y-10749004D01*
X8328817Y-10539480D02*
X8281198Y-10682337D01*
X8281198Y-10682337D02*
X8405008Y-10682337D01*
X8471674Y-10549004D02*
X8471674Y-10587099D01*
X8547865Y-10549004D02*
X8547865Y-10587099D01*
X8843103Y-10825194D02*
X8833579Y-10815670D01*
X8833579Y-10815670D02*
X8814531Y-10787099D01*
X8814531Y-10787099D02*
X8805008Y-10768051D01*
X8805008Y-10768051D02*
X8795484Y-10739480D01*
X8795484Y-10739480D02*
X8785960Y-10691861D01*
X8785960Y-10691861D02*
X8785960Y-10653766D01*
X8785960Y-10653766D02*
X8795484Y-10606147D01*
X8795484Y-10606147D02*
X8805008Y-10577575D01*
X8805008Y-10577575D02*
X8814531Y-10558528D01*
X8814531Y-10558528D02*
X8833579Y-10529956D01*
X8833579Y-10529956D02*
X8843103Y-10520432D01*
X8909770Y-10568051D02*
X8919293Y-10558528D01*
X8919293Y-10558528D02*
X8938341Y-10549004D01*
X8938341Y-10549004D02*
X8985960Y-10549004D01*
X8985960Y-10549004D02*
X9005008Y-10558528D01*
X9005008Y-10558528D02*
X9014531Y-10568051D01*
X9014531Y-10568051D02*
X9024055Y-10587099D01*
X9024055Y-10587099D02*
X9024055Y-10606147D01*
X9024055Y-10606147D02*
X9014531Y-10634718D01*
X9014531Y-10634718D02*
X8900246Y-10749004D01*
X8900246Y-10749004D02*
X9024055Y-10749004D01*
X9147865Y-10549004D02*
X9166912Y-10549004D01*
X9166912Y-10549004D02*
X9185960Y-10558528D01*
X9185960Y-10558528D02*
X9195484Y-10568051D01*
X9195484Y-10568051D02*
X9205008Y-10587099D01*
X9205008Y-10587099D02*
X9214531Y-10625194D01*
X9214531Y-10625194D02*
X9214531Y-10672813D01*
X9214531Y-10672813D02*
X9205008Y-10710909D01*
X9205008Y-10710909D02*
X9195484Y-10729956D01*
X9195484Y-10729956D02*
X9185960Y-10739480D01*
X9185960Y-10739480D02*
X9166912Y-10749004D01*
X9166912Y-10749004D02*
X9147865Y-10749004D01*
X9147865Y-10749004D02*
X9128817Y-10739480D01*
X9128817Y-10739480D02*
X9119293Y-10729956D01*
X9119293Y-10729956D02*
X9109770Y-10710909D01*
X9109770Y-10710909D02*
X9100246Y-10672813D01*
X9100246Y-10672813D02*
X9100246Y-10625194D01*
X9100246Y-10625194D02*
X9109770Y-10587099D01*
X9109770Y-10587099D02*
X9119293Y-10568051D01*
X9119293Y-10568051D02*
X9128817Y-10558528D01*
X9128817Y-10558528D02*
X9147865Y-10549004D01*
X9452627Y-10749004D02*
X9452627Y-10549004D01*
X9538341Y-10749004D02*
X9538341Y-10644242D01*
X9538341Y-10644242D02*
X9528817Y-10625194D01*
X9528817Y-10625194D02*
X9509770Y-10615670D01*
X9509770Y-10615670D02*
X9481198Y-10615670D01*
X9481198Y-10615670D02*
X9462151Y-10625194D01*
X9462151Y-10625194D02*
X9452627Y-10634718D01*
X9662151Y-10749004D02*
X9643103Y-10739480D01*
X9643103Y-10739480D02*
X9633579Y-10729956D01*
X9633579Y-10729956D02*
X9624055Y-10710909D01*
X9624055Y-10710909D02*
X9624055Y-10653766D01*
X9624055Y-10653766D02*
X9633579Y-10634718D01*
X9633579Y-10634718D02*
X9643103Y-10625194D01*
X9643103Y-10625194D02*
X9662151Y-10615670D01*
X9662151Y-10615670D02*
X9690722Y-10615670D01*
X9690722Y-10615670D02*
X9709770Y-10625194D01*
X9709770Y-10625194D02*
X9719293Y-10634718D01*
X9719293Y-10634718D02*
X9728817Y-10653766D01*
X9728817Y-10653766D02*
X9728817Y-10710909D01*
X9728817Y-10710909D02*
X9719293Y-10729956D01*
X9719293Y-10729956D02*
X9709770Y-10739480D01*
X9709770Y-10739480D02*
X9690722Y-10749004D01*
X9690722Y-10749004D02*
X9662151Y-10749004D01*
X9843103Y-10749004D02*
X9824055Y-10739480D01*
X9824055Y-10739480D02*
X9814532Y-10720432D01*
X9814532Y-10720432D02*
X9814532Y-10549004D01*
X9995484Y-10739480D02*
X9976436Y-10749004D01*
X9976436Y-10749004D02*
X9938341Y-10749004D01*
X9938341Y-10749004D02*
X9919293Y-10739480D01*
X9919293Y-10739480D02*
X9909770Y-10720432D01*
X9909770Y-10720432D02*
X9909770Y-10644242D01*
X9909770Y-10644242D02*
X9919293Y-10625194D01*
X9919293Y-10625194D02*
X9938341Y-10615670D01*
X9938341Y-10615670D02*
X9976436Y-10615670D01*
X9976436Y-10615670D02*
X9995484Y-10625194D01*
X9995484Y-10625194D02*
X10005008Y-10644242D01*
X10005008Y-10644242D02*
X10005008Y-10663290D01*
X10005008Y-10663290D02*
X9909770Y-10682337D01*
X10081198Y-10739480D02*
X10100246Y-10749004D01*
X10100246Y-10749004D02*
X10138341Y-10749004D01*
X10138341Y-10749004D02*
X10157389Y-10739480D01*
X10157389Y-10739480D02*
X10166913Y-10720432D01*
X10166913Y-10720432D02*
X10166913Y-10710909D01*
X10166913Y-10710909D02*
X10157389Y-10691861D01*
X10157389Y-10691861D02*
X10138341Y-10682337D01*
X10138341Y-10682337D02*
X10109770Y-10682337D01*
X10109770Y-10682337D02*
X10090722Y-10672813D01*
X10090722Y-10672813D02*
X10081198Y-10653766D01*
X10081198Y-10653766D02*
X10081198Y-10644242D01*
X10081198Y-10644242D02*
X10090722Y-10625194D01*
X10090722Y-10625194D02*
X10109770Y-10615670D01*
X10109770Y-10615670D02*
X10138341Y-10615670D01*
X10138341Y-10615670D02*
X10157389Y-10625194D01*
X10233579Y-10825194D02*
X10243103Y-10815670D01*
X10243103Y-10815670D02*
X10262151Y-10787099D01*
X10262151Y-10787099D02*
X10271674Y-10768051D01*
X10271674Y-10768051D02*
X10281198Y-10739480D01*
X10281198Y-10739480D02*
X10290722Y-10691861D01*
X10290722Y-10691861D02*
X10290722Y-10653766D01*
X10290722Y-10653766D02*
X10281198Y-10606147D01*
X10281198Y-10606147D02*
X10271674Y-10577575D01*
X10271674Y-10577575D02*
X10262151Y-10558528D01*
X10262151Y-10558528D02*
X10243103Y-10529956D01*
X10243103Y-10529956D02*
X10233579Y-10520432D01*
D13*
X5213040Y-10866520D02*
X5213040Y-10976520D01*
X5158040Y-10921520D02*
X5268040Y-10921520D01*
D11*
X5633579Y-11013004D02*
X5519293Y-11013004D01*
X5576436Y-11013004D02*
X5576436Y-10813004D01*
X5576436Y-10813004D02*
X5557388Y-10841575D01*
X5557388Y-10841575D02*
X5538341Y-10860623D01*
X5538341Y-10860623D02*
X5519293Y-10870147D01*
X5719293Y-10993956D02*
X5728817Y-11003480D01*
X5728817Y-11003480D02*
X5719293Y-11013004D01*
X5719293Y-11013004D02*
X5709769Y-11003480D01*
X5709769Y-11003480D02*
X5719293Y-10993956D01*
X5719293Y-10993956D02*
X5719293Y-11013004D01*
X5919293Y-11013004D02*
X5805007Y-11013004D01*
X5862150Y-11013004D02*
X5862150Y-10813004D01*
X5862150Y-10813004D02*
X5843102Y-10841575D01*
X5843102Y-10841575D02*
X5824055Y-10860623D01*
X5824055Y-10860623D02*
X5805007Y-10870147D01*
X6043102Y-10813004D02*
X6062150Y-10813004D01*
X6062150Y-10813004D02*
X6081198Y-10822528D01*
X6081198Y-10822528D02*
X6090722Y-10832051D01*
X6090722Y-10832051D02*
X6100245Y-10851099D01*
X6100245Y-10851099D02*
X6109769Y-10889194D01*
X6109769Y-10889194D02*
X6109769Y-10936813D01*
X6109769Y-10936813D02*
X6100245Y-10974909D01*
X6100245Y-10974909D02*
X6090722Y-10993956D01*
X6090722Y-10993956D02*
X6081198Y-11003480D01*
X6081198Y-11003480D02*
X6062150Y-11013004D01*
X6062150Y-11013004D02*
X6043102Y-11013004D01*
X6043102Y-11013004D02*
X6024055Y-11003480D01*
X6024055Y-11003480D02*
X6014531Y-10993956D01*
X6014531Y-10993956D02*
X6005007Y-10974909D01*
X6005007Y-10974909D02*
X5995483Y-10936813D01*
X5995483Y-10936813D02*
X5995483Y-10889194D01*
X5995483Y-10889194D02*
X6005007Y-10851099D01*
X6005007Y-10851099D02*
X6014531Y-10832051D01*
X6014531Y-10832051D02*
X6024055Y-10822528D01*
X6024055Y-10822528D02*
X6043102Y-10813004D01*
X6233579Y-10813004D02*
X6252626Y-10813004D01*
X6252626Y-10813004D02*
X6271674Y-10822528D01*
X6271674Y-10822528D02*
X6281198Y-10832051D01*
X6281198Y-10832051D02*
X6290722Y-10851099D01*
X6290722Y-10851099D02*
X6300245Y-10889194D01*
X6300245Y-10889194D02*
X6300245Y-10936813D01*
X6300245Y-10936813D02*
X6290722Y-10974909D01*
X6290722Y-10974909D02*
X6281198Y-10993956D01*
X6281198Y-10993956D02*
X6271674Y-11003480D01*
X6271674Y-11003480D02*
X6252626Y-11013004D01*
X6252626Y-11013004D02*
X6233579Y-11013004D01*
X6233579Y-11013004D02*
X6214531Y-11003480D01*
X6214531Y-11003480D02*
X6205007Y-10993956D01*
X6205007Y-10993956D02*
X6195483Y-10974909D01*
X6195483Y-10974909D02*
X6185960Y-10936813D01*
X6185960Y-10936813D02*
X6185960Y-10889194D01*
X6185960Y-10889194D02*
X6195483Y-10851099D01*
X6195483Y-10851099D02*
X6205007Y-10832051D01*
X6205007Y-10832051D02*
X6214531Y-10822528D01*
X6214531Y-10822528D02*
X6233579Y-10813004D01*
X6385960Y-11013004D02*
X6385960Y-10879670D01*
X6385960Y-10898718D02*
X6395483Y-10889194D01*
X6395483Y-10889194D02*
X6414531Y-10879670D01*
X6414531Y-10879670D02*
X6443103Y-10879670D01*
X6443103Y-10879670D02*
X6462150Y-10889194D01*
X6462150Y-10889194D02*
X6471674Y-10908242D01*
X6471674Y-10908242D02*
X6471674Y-11013004D01*
X6471674Y-10908242D02*
X6481198Y-10889194D01*
X6481198Y-10889194D02*
X6500245Y-10879670D01*
X6500245Y-10879670D02*
X6528817Y-10879670D01*
X6528817Y-10879670D02*
X6547864Y-10889194D01*
X6547864Y-10889194D02*
X6557388Y-10908242D01*
X6557388Y-10908242D02*
X6557388Y-11013004D01*
X6652626Y-11013004D02*
X6652626Y-10879670D01*
X6652626Y-10898718D02*
X6662150Y-10889194D01*
X6662150Y-10889194D02*
X6681198Y-10879670D01*
X6681198Y-10879670D02*
X6709769Y-10879670D01*
X6709769Y-10879670D02*
X6728817Y-10889194D01*
X6728817Y-10889194D02*
X6738341Y-10908242D01*
X6738341Y-10908242D02*
X6738341Y-11013004D01*
X6738341Y-10908242D02*
X6747864Y-10889194D01*
X6747864Y-10889194D02*
X6766912Y-10879670D01*
X6766912Y-10879670D02*
X6795483Y-10879670D01*
X6795483Y-10879670D02*
X6814531Y-10889194D01*
X6814531Y-10889194D02*
X6824055Y-10908242D01*
X6824055Y-10908242D02*
X6824055Y-11013004D01*
X7214531Y-10803480D02*
X7043103Y-11060623D01*
X7471674Y-10813004D02*
X7490722Y-10813004D01*
X7490722Y-10813004D02*
X7509769Y-10822528D01*
X7509769Y-10822528D02*
X7519293Y-10832051D01*
X7519293Y-10832051D02*
X7528817Y-10851099D01*
X7528817Y-10851099D02*
X7538341Y-10889194D01*
X7538341Y-10889194D02*
X7538341Y-10936813D01*
X7538341Y-10936813D02*
X7528817Y-10974909D01*
X7528817Y-10974909D02*
X7519293Y-10993956D01*
X7519293Y-10993956D02*
X7509769Y-11003480D01*
X7509769Y-11003480D02*
X7490722Y-11013004D01*
X7490722Y-11013004D02*
X7471674Y-11013004D01*
X7471674Y-11013004D02*
X7452626Y-11003480D01*
X7452626Y-11003480D02*
X7443103Y-10993956D01*
X7443103Y-10993956D02*
X7433579Y-10974909D01*
X7433579Y-10974909D02*
X7424055Y-10936813D01*
X7424055Y-10936813D02*
X7424055Y-10889194D01*
X7424055Y-10889194D02*
X7433579Y-10851099D01*
X7433579Y-10851099D02*
X7443103Y-10832051D01*
X7443103Y-10832051D02*
X7452626Y-10822528D01*
X7452626Y-10822528D02*
X7471674Y-10813004D01*
X7624055Y-10993956D02*
X7633579Y-11003480D01*
X7633579Y-11003480D02*
X7624055Y-11013004D01*
X7624055Y-11013004D02*
X7614531Y-11003480D01*
X7614531Y-11003480D02*
X7624055Y-10993956D01*
X7624055Y-10993956D02*
X7624055Y-11013004D01*
X7757388Y-10813004D02*
X7776436Y-10813004D01*
X7776436Y-10813004D02*
X7795484Y-10822528D01*
X7795484Y-10822528D02*
X7805007Y-10832051D01*
X7805007Y-10832051D02*
X7814531Y-10851099D01*
X7814531Y-10851099D02*
X7824055Y-10889194D01*
X7824055Y-10889194D02*
X7824055Y-10936813D01*
X7824055Y-10936813D02*
X7814531Y-10974909D01*
X7814531Y-10974909D02*
X7805007Y-10993956D01*
X7805007Y-10993956D02*
X7795484Y-11003480D01*
X7795484Y-11003480D02*
X7776436Y-11013004D01*
X7776436Y-11013004D02*
X7757388Y-11013004D01*
X7757388Y-11013004D02*
X7738341Y-11003480D01*
X7738341Y-11003480D02*
X7728817Y-10993956D01*
X7728817Y-10993956D02*
X7719293Y-10974909D01*
X7719293Y-10974909D02*
X7709769Y-10936813D01*
X7709769Y-10936813D02*
X7709769Y-10889194D01*
X7709769Y-10889194D02*
X7719293Y-10851099D01*
X7719293Y-10851099D02*
X7728817Y-10832051D01*
X7728817Y-10832051D02*
X7738341Y-10822528D01*
X7738341Y-10822528D02*
X7757388Y-10813004D01*
X7995484Y-10879670D02*
X7995484Y-11013004D01*
X7947865Y-10803480D02*
X7900246Y-10946337D01*
X7900246Y-10946337D02*
X8024055Y-10946337D01*
X8081198Y-10813004D02*
X8205007Y-10813004D01*
X8205007Y-10813004D02*
X8138341Y-10889194D01*
X8138341Y-10889194D02*
X8166912Y-10889194D01*
X8166912Y-10889194D02*
X8185960Y-10898718D01*
X8185960Y-10898718D02*
X8195484Y-10908242D01*
X8195484Y-10908242D02*
X8205007Y-10927290D01*
X8205007Y-10927290D02*
X8205007Y-10974909D01*
X8205007Y-10974909D02*
X8195484Y-10993956D01*
X8195484Y-10993956D02*
X8185960Y-11003480D01*
X8185960Y-11003480D02*
X8166912Y-11013004D01*
X8166912Y-11013004D02*
X8109769Y-11013004D01*
X8109769Y-11013004D02*
X8090722Y-11003480D01*
X8090722Y-11003480D02*
X8081198Y-10993956D01*
X8271674Y-10813004D02*
X8395484Y-10813004D01*
X8395484Y-10813004D02*
X8328817Y-10889194D01*
X8328817Y-10889194D02*
X8357388Y-10889194D01*
X8357388Y-10889194D02*
X8376436Y-10898718D01*
X8376436Y-10898718D02*
X8385960Y-10908242D01*
X8385960Y-10908242D02*
X8395484Y-10927290D01*
X8395484Y-10927290D02*
X8395484Y-10974909D01*
X8395484Y-10974909D02*
X8385960Y-10993956D01*
X8385960Y-10993956D02*
X8376436Y-11003480D01*
X8376436Y-11003480D02*
X8357388Y-11013004D01*
X8357388Y-11013004D02*
X8300246Y-11013004D01*
X8300246Y-11013004D02*
X8281198Y-11003480D01*
X8281198Y-11003480D02*
X8271674Y-10993956D01*
X8471674Y-10813004D02*
X8471674Y-10851099D01*
X8547865Y-10813004D02*
X8547865Y-10851099D01*
X8843103Y-11089194D02*
X8833579Y-11079670D01*
X8833579Y-11079670D02*
X8814531Y-11051099D01*
X8814531Y-11051099D02*
X8805008Y-11032051D01*
X8805008Y-11032051D02*
X8795484Y-11003480D01*
X8795484Y-11003480D02*
X8785960Y-10955861D01*
X8785960Y-10955861D02*
X8785960Y-10917766D01*
X8785960Y-10917766D02*
X8795484Y-10870147D01*
X8795484Y-10870147D02*
X8805008Y-10841575D01*
X8805008Y-10841575D02*
X8814531Y-10822528D01*
X8814531Y-10822528D02*
X8833579Y-10793956D01*
X8833579Y-10793956D02*
X8843103Y-10784432D01*
X8928817Y-11013004D02*
X8966912Y-11013004D01*
X8966912Y-11013004D02*
X8985960Y-11003480D01*
X8985960Y-11003480D02*
X8995484Y-10993956D01*
X8995484Y-10993956D02*
X9014531Y-10965385D01*
X9014531Y-10965385D02*
X9024055Y-10927290D01*
X9024055Y-10927290D02*
X9024055Y-10851099D01*
X9024055Y-10851099D02*
X9014531Y-10832051D01*
X9014531Y-10832051D02*
X9005008Y-10822528D01*
X9005008Y-10822528D02*
X8985960Y-10813004D01*
X8985960Y-10813004D02*
X8947865Y-10813004D01*
X8947865Y-10813004D02*
X8928817Y-10822528D01*
X8928817Y-10822528D02*
X8919293Y-10832051D01*
X8919293Y-10832051D02*
X8909770Y-10851099D01*
X8909770Y-10851099D02*
X8909770Y-10898718D01*
X8909770Y-10898718D02*
X8919293Y-10917766D01*
X8919293Y-10917766D02*
X8928817Y-10927290D01*
X8928817Y-10927290D02*
X8947865Y-10936813D01*
X8947865Y-10936813D02*
X8985960Y-10936813D01*
X8985960Y-10936813D02*
X9005008Y-10927290D01*
X9005008Y-10927290D02*
X9014531Y-10917766D01*
X9014531Y-10917766D02*
X9024055Y-10898718D01*
X9262151Y-11013004D02*
X9262151Y-10813004D01*
X9347865Y-11013004D02*
X9347865Y-10908242D01*
X9347865Y-10908242D02*
X9338341Y-10889194D01*
X9338341Y-10889194D02*
X9319293Y-10879670D01*
X9319293Y-10879670D02*
X9290722Y-10879670D01*
X9290722Y-10879670D02*
X9271674Y-10889194D01*
X9271674Y-10889194D02*
X9262151Y-10898718D01*
X9471674Y-11013004D02*
X9452627Y-11003480D01*
X9452627Y-11003480D02*
X9443103Y-10993956D01*
X9443103Y-10993956D02*
X9433579Y-10974909D01*
X9433579Y-10974909D02*
X9433579Y-10917766D01*
X9433579Y-10917766D02*
X9443103Y-10898718D01*
X9443103Y-10898718D02*
X9452627Y-10889194D01*
X9452627Y-10889194D02*
X9471674Y-10879670D01*
X9471674Y-10879670D02*
X9500246Y-10879670D01*
X9500246Y-10879670D02*
X9519293Y-10889194D01*
X9519293Y-10889194D02*
X9528817Y-10898718D01*
X9528817Y-10898718D02*
X9538341Y-10917766D01*
X9538341Y-10917766D02*
X9538341Y-10974909D01*
X9538341Y-10974909D02*
X9528817Y-10993956D01*
X9528817Y-10993956D02*
X9519293Y-11003480D01*
X9519293Y-11003480D02*
X9500246Y-11013004D01*
X9500246Y-11013004D02*
X9471674Y-11013004D01*
X9652627Y-11013004D02*
X9633579Y-11003480D01*
X9633579Y-11003480D02*
X9624055Y-10984432D01*
X9624055Y-10984432D02*
X9624055Y-10813004D01*
X9805008Y-11003480D02*
X9785960Y-11013004D01*
X9785960Y-11013004D02*
X9747865Y-11013004D01*
X9747865Y-11013004D02*
X9728817Y-11003480D01*
X9728817Y-11003480D02*
X9719293Y-10984432D01*
X9719293Y-10984432D02*
X9719293Y-10908242D01*
X9719293Y-10908242D02*
X9728817Y-10889194D01*
X9728817Y-10889194D02*
X9747865Y-10879670D01*
X9747865Y-10879670D02*
X9785960Y-10879670D01*
X9785960Y-10879670D02*
X9805008Y-10889194D01*
X9805008Y-10889194D02*
X9814532Y-10908242D01*
X9814532Y-10908242D02*
X9814532Y-10927290D01*
X9814532Y-10927290D02*
X9719293Y-10946337D01*
X9890722Y-11003480D02*
X9909770Y-11013004D01*
X9909770Y-11013004D02*
X9947865Y-11013004D01*
X9947865Y-11013004D02*
X9966913Y-11003480D01*
X9966913Y-11003480D02*
X9976436Y-10984432D01*
X9976436Y-10984432D02*
X9976436Y-10974909D01*
X9976436Y-10974909D02*
X9966913Y-10955861D01*
X9966913Y-10955861D02*
X9947865Y-10946337D01*
X9947865Y-10946337D02*
X9919293Y-10946337D01*
X9919293Y-10946337D02*
X9900246Y-10936813D01*
X9900246Y-10936813D02*
X9890722Y-10917766D01*
X9890722Y-10917766D02*
X9890722Y-10908242D01*
X9890722Y-10908242D02*
X9900246Y-10889194D01*
X9900246Y-10889194D02*
X9919293Y-10879670D01*
X9919293Y-10879670D02*
X9947865Y-10879670D01*
X9947865Y-10879670D02*
X9966913Y-10889194D01*
X10043103Y-11089194D02*
X10052627Y-11079670D01*
X10052627Y-11079670D02*
X10071674Y-11051099D01*
X10071674Y-11051099D02*
X10081198Y-11032051D01*
X10081198Y-11032051D02*
X10090722Y-11003480D01*
X10090722Y-11003480D02*
X10100246Y-10955861D01*
X10100246Y-10955861D02*
X10100246Y-10917766D01*
X10100246Y-10917766D02*
X10090722Y-10870147D01*
X10090722Y-10870147D02*
X10081198Y-10841575D01*
X10081198Y-10841575D02*
X10071674Y-10822528D01*
X10071674Y-10822528D02*
X10052627Y-10793956D01*
X10052627Y-10793956D02*
X10043103Y-10784432D01*
M02*
