G04 #@! TF.GenerationSoftware,KiCad,Pcbnew,7.0.7*
G04 #@! TF.CreationDate,2023-09-08T10:26:21-07:00*
G04 #@! TF.ProjectId,TailLights,5461696c-4c69-4676-9874-732e6b696361,rev?*
G04 #@! TF.SameCoordinates,Original*
G04 #@! TF.FileFunction,Copper,L1,Top*
G04 #@! TF.FilePolarity,Positive*
%FSLAX46Y46*%
G04 Gerber Fmt 4.6, Leading zero omitted, Abs format (unit mm)*
G04 Created by KiCad (PCBNEW 7.0.7) date 2023-09-08 10:26:21*
%MOMM*%
%LPD*%
G01*
G04 APERTURE LIST*
G04 #@! TA.AperFunction,ComponentPad*
%ADD10C,1.600000*%
G04 #@! TD*
G04 #@! TA.AperFunction,ComponentPad*
%ADD11O,1.600000X1.600000*%
G04 #@! TD*
G04 #@! TA.AperFunction,ComponentPad*
%ADD12R,1.700000X1.700000*%
G04 #@! TD*
G04 #@! TA.AperFunction,ComponentPad*
%ADD13O,1.700000X1.700000*%
G04 #@! TD*
G04 #@! TA.AperFunction,ComponentPad*
%ADD14R,2.000000X2.000000*%
G04 #@! TD*
G04 #@! TA.AperFunction,ComponentPad*
%ADD15C,2.000000*%
G04 #@! TD*
G04 #@! TA.AperFunction,ComponentPad*
%ADD16R,1.600000X1.600000*%
G04 #@! TD*
G04 #@! TA.AperFunction,ComponentPad*
%ADD17R,2.000000X1.905000*%
G04 #@! TD*
G04 #@! TA.AperFunction,ComponentPad*
%ADD18O,2.000000X1.905000*%
G04 #@! TD*
G04 #@! TA.AperFunction,ComponentPad*
%ADD19R,2.200000X2.200000*%
G04 #@! TD*
G04 #@! TA.AperFunction,ComponentPad*
%ADD20O,2.200000X2.200000*%
G04 #@! TD*
G04 #@! TA.AperFunction,Conductor*
%ADD21C,2.000000*%
G04 #@! TD*
G04 #@! TA.AperFunction,Conductor*
%ADD22C,1.000000*%
G04 #@! TD*
G04 APERTURE END LIST*
D10*
X69545200Y-63246000D03*
D11*
X69545200Y-60706000D03*
D10*
X68173600Y-68681601D03*
D11*
X65633600Y-68681601D03*
D12*
X87960600Y-86080200D03*
D13*
X85420600Y-86080200D03*
X82880600Y-86080200D03*
X80340600Y-86080200D03*
X77800600Y-86080200D03*
X75260600Y-86080200D03*
D10*
X68275200Y-57861200D03*
D11*
X65735200Y-57861200D03*
D12*
X94538800Y-86156800D03*
D10*
X69646800Y-52120800D03*
D11*
X69646800Y-49580800D03*
D14*
X60655200Y-86309200D03*
D15*
X60655200Y-81309200D03*
D16*
X78486000Y-52578000D03*
D11*
X78486000Y-55118000D03*
X78486000Y-57658000D03*
X78486000Y-60198000D03*
X78486000Y-62738000D03*
X78486000Y-65278000D03*
X78486000Y-67818000D03*
X86106000Y-67818000D03*
X86106000Y-65278000D03*
X86106000Y-62738000D03*
X86106000Y-60198000D03*
X86106000Y-57658000D03*
X86106000Y-55118000D03*
X86106000Y-52578000D03*
D10*
X76352400Y-44196000D03*
X76352400Y-39196000D03*
D17*
X81432400Y-39116000D03*
D18*
X81432400Y-41656000D03*
X81432400Y-44196000D03*
D10*
X68275200Y-46532800D03*
D11*
X65735200Y-46532800D03*
D12*
X61797800Y-39390000D03*
D13*
X61797800Y-41930000D03*
D19*
X66243200Y-72125218D03*
D20*
X66243200Y-75935218D03*
D12*
X76200000Y-75590400D03*
D10*
X69697600Y-74168001D03*
D11*
X69697600Y-71628001D03*
D19*
X66243200Y-61152417D03*
D20*
X66243200Y-64962417D03*
D12*
X59486800Y-55219600D03*
D13*
X59486800Y-57759600D03*
X59486800Y-60299600D03*
D12*
X94030800Y-65836800D03*
D13*
X94030800Y-68376800D03*
D19*
X66344800Y-50027217D03*
D20*
X66344800Y-53837217D03*
D12*
X93929200Y-55118000D03*
D13*
X93929200Y-57658000D03*
X93929200Y-60198000D03*
D10*
X89052400Y-39196000D03*
X89052400Y-44196000D03*
D21*
X69646800Y-54508400D02*
X73406000Y-58267600D01*
X67828783Y-64962417D02*
X66243200Y-64962417D01*
X69646800Y-52120800D02*
X69646800Y-54508400D01*
X87122000Y-52578000D02*
X90068400Y-55524400D01*
X73710800Y-72237600D02*
X71780399Y-74168001D01*
X70778170Y-52120800D02*
X69646800Y-52120800D01*
X73618400Y-41930000D02*
X73618400Y-49280570D01*
X73406000Y-61772800D02*
X71932800Y-63246000D01*
X83921600Y-41656000D02*
X81432400Y-41656000D01*
X86106000Y-52578000D02*
X87122000Y-52578000D01*
X67930383Y-75935218D02*
X66243200Y-75935218D01*
X90068400Y-55524400D02*
X90068400Y-66548000D01*
X89052400Y-44196000D02*
X86563200Y-44196000D01*
X67930383Y-53837217D02*
X66344800Y-53837217D01*
X60869218Y-81309200D02*
X66243200Y-75935218D01*
X73710800Y-67411600D02*
X73710800Y-72237600D01*
X73406000Y-58267600D02*
X73406000Y-61772800D01*
X86106000Y-47142400D02*
X89052400Y-44196000D01*
X91897200Y-68376800D02*
X94030800Y-68376800D01*
X86563200Y-44196000D02*
X83972400Y-41605200D01*
X86106000Y-52578000D02*
X86106000Y-47142400D01*
X71932800Y-63246000D02*
X69545200Y-63246000D01*
X69697600Y-74168001D02*
X67930383Y-75935218D01*
X66243200Y-75935218D02*
X66243200Y-77062800D01*
D22*
X83972400Y-41605200D02*
X83921600Y-41656000D01*
D21*
X90068400Y-66548000D02*
X91897200Y-68376800D01*
X69646800Y-52120800D02*
X67930383Y-53837217D01*
X81432400Y-41656000D02*
X78812400Y-41656000D01*
X66243200Y-77062800D02*
X75260600Y-86080200D01*
D22*
X60655200Y-81309200D02*
X60869218Y-81309200D01*
D21*
X78812400Y-41656000D02*
X76352400Y-39196000D01*
X69545200Y-63246000D02*
X73710800Y-67411600D01*
X61797800Y-41930000D02*
X73618400Y-41930000D01*
X71780399Y-74168001D02*
X69697600Y-74168001D01*
X69545200Y-63246000D02*
X67828783Y-64962417D01*
X73618400Y-49280570D02*
X70778170Y-52120800D01*
X73618400Y-41930000D02*
X76352400Y-39196000D01*
M02*
