G04 #@! TF.GenerationSoftware,KiCad,Pcbnew,7.0.7*
G04 #@! TF.CreationDate,2023-09-08T10:26:21-07:00*
G04 #@! TF.ProjectId,TailLights,5461696c-4c69-4676-9874-732e6b696361,rev?*
G04 #@! TF.SameCoordinates,Original*
G04 #@! TF.FileFunction,Soldermask,Bot*
G04 #@! TF.FilePolarity,Negative*
%FSLAX46Y46*%
G04 Gerber Fmt 4.6, Leading zero omitted, Abs format (unit mm)*
G04 Created by KiCad (PCBNEW 7.0.7) date 2023-09-08 10:26:21*
%MOMM*%
%LPD*%
G01*
G04 APERTURE LIST*
%ADD10C,1.600000*%
%ADD11O,1.600000X1.600000*%
%ADD12R,1.700000X1.700000*%
%ADD13O,1.700000X1.700000*%
%ADD14C,2.200000*%
%ADD15R,2.000000X2.000000*%
%ADD16C,2.000000*%
%ADD17R,1.600000X1.600000*%
%ADD18R,2.000000X1.905000*%
%ADD19O,2.000000X1.905000*%
%ADD20R,2.200000X2.200000*%
%ADD21O,2.200000X2.200000*%
G04 APERTURE END LIST*
D10*
X69545200Y-63246000D03*
D11*
X69545200Y-60706000D03*
D10*
X68173600Y-68681601D03*
D11*
X65633600Y-68681601D03*
D12*
X87960600Y-86080200D03*
D13*
X85420600Y-86080200D03*
X82880600Y-86080200D03*
X80340600Y-86080200D03*
X77800600Y-86080200D03*
X75260600Y-86080200D03*
D10*
X68275200Y-57861200D03*
D11*
X65735200Y-57861200D03*
D12*
X94538800Y-86156800D03*
D14*
X96824800Y-94132400D03*
D10*
X69646800Y-52120800D03*
D11*
X69646800Y-49580800D03*
D15*
X60655200Y-86309200D03*
D16*
X60655200Y-81309200D03*
D17*
X78486000Y-52578000D03*
D11*
X78486000Y-55118000D03*
X78486000Y-57658000D03*
X78486000Y-60198000D03*
X78486000Y-62738000D03*
X78486000Y-65278000D03*
X78486000Y-67818000D03*
X86106000Y-67818000D03*
X86106000Y-65278000D03*
X86106000Y-62738000D03*
X86106000Y-60198000D03*
X86106000Y-57658000D03*
X86106000Y-55118000D03*
X86106000Y-52578000D03*
D10*
X76352400Y-44196000D03*
X76352400Y-39196000D03*
D14*
X56438800Y-93980000D03*
D18*
X81432400Y-39116000D03*
D19*
X81432400Y-41656000D03*
X81432400Y-44196000D03*
D10*
X68275200Y-46532800D03*
D11*
X65735200Y-46532800D03*
D12*
X61797800Y-39390000D03*
D13*
X61797800Y-41930000D03*
D20*
X66243200Y-72125218D03*
D21*
X66243200Y-75935218D03*
D12*
X76200000Y-75590400D03*
D10*
X69697600Y-74168001D03*
D11*
X69697600Y-71628001D03*
D14*
X55981600Y-32918400D03*
D20*
X66243200Y-61152417D03*
D21*
X66243200Y-64962417D03*
D12*
X59486800Y-55219600D03*
D13*
X59486800Y-57759600D03*
X59486800Y-60299600D03*
D12*
X94030800Y-65836800D03*
D13*
X94030800Y-68376800D03*
D20*
X66344800Y-50027217D03*
D21*
X66344800Y-53837217D03*
D14*
X97739200Y-32715200D03*
D12*
X93929200Y-55118000D03*
D13*
X93929200Y-57658000D03*
X93929200Y-60198000D03*
D10*
X89052400Y-39196000D03*
X89052400Y-44196000D03*
M02*
